M48
;Layer_Color=9474304
;FILE_FORMAT=2:4
INCH,LZ
;TYPE=PLATED
T1F00S00C0.0236
T2F00S00C0.0340
T3F00S00C0.0360
T4F00S00C0.0394
T5F00S00C0.0402
T6F00S00C0.0433
T8F00S00C0.1378
%
T01
X035738Y022851
X0364Y0223
X0371Y0235
X0372Y0269
X033895Y026455
X032953Y027453
X0317Y0294
X03135Y02975
X03365Y03085
X034934Y029266
X0366Y030368
X04045Y03105
X0434Y0193
X04315Y01865
X0434Y018
X0441Y0177
X04475Y018
X04505Y01865
X04475Y0193
X0441Y0196
X0262Y02
X02535Y01925
X02565Y0186
X02535Y01795
X0247Y01765
X024Y01795
X02375Y0186
X024Y01925
X0247Y01955
X02695Y0232
X02795Y02665
X028703Y025953
X02935Y0318
X0291Y040329
X02945Y0409
X03035Y04055
X0305Y0413
X03035Y0425
Y04335
X03Y043
X02815Y04285
X02745Y0428
X0275Y042
X028194Y041994
X027945Y043834
Y044367
X028Y045
X0285
X03095Y046113
X02555Y04685
X0313Y04415
Y04135
X0335Y0383
X034537Y03695
X036Y03715
X03565Y03755
X03645Y0367
X03795Y03875
X0412Y04025
X040697Y033
X04155Y03145
X0372Y0321
X0358Y0334
X035202Y03129
X034296Y032196
X03275Y0318
X0444Y04685
X04505Y04715
X04535Y0478
X04505Y04845
X0444Y04875
X0437Y04845
X04345Y0478
X0437Y04715
X03845Y047
X0358Y04825
X02835Y0479
X0265Y0478
X0262Y04715
Y04845
X02555Y04875
X02485Y04845
X0246Y0478
X02485Y04715
T02
X030514Y027236
X0291Y02865
T03
X0385Y043613
X0385Y0444
X039484
X039484Y043613
T04
X03145Y0192
X03245Y0192
Y0202
X03145
X0366Y0202
X0376
X0386
X0396
X0406
Y0192
X0396
X0386
X0376
X0366
X03045Y0192
X02945
X02945Y0202
X03045
X02845Y0202
Y0192
T05
X0435Y0208
X0445
Y0218
X0435
X0435Y0228
X0445Y0228
Y0238
X0435
Y0248
Y0258
X0435Y0268
X0445Y0268
Y0278
X0435Y0278
X0435Y0288
Y0298
Y0308
X0445
Y0298
Y0288
Y0258
Y0248
X0253Y0248
Y0238
Y0228
X0243
Y0218
X0253
Y0208
X0243
X0243Y0238
Y0248
Y0258
X0253
Y0268
Y0278
X0243
Y0268
Y0288
Y0298
X0253
Y0288
Y0308
X0243
Y0318
X0253
Y0328
Y0338
Y0348
Y0358
Y0368
X0243
Y0358
Y0348
Y0338
Y0328
Y0378
Y0388
Y0398
X0253
Y0408
Y0418
X0243
X0243Y0408
X0253Y0388
Y0378
X0435
Y0388
Y0398
X0435Y0408
X0445Y0408
Y0418
X0435Y0418
X0445Y0398
Y0388
Y0378
Y0368
Y0358
X0435Y0358
X0435Y0348
Y0338
Y0328
X0445
Y0318
X0435Y0318
X0445Y0338
Y0348
X0435Y0368
T06
X02455Y04455
X02555
Y04555
X02655Y04555
X02655Y04455
X02455Y04555
X03195Y04805
X03295
X03395
X03495
X03095
T08
X0441Y01865
X0247Y0186
X0444Y0478
X02555
M30
