G04*
G04 #@! TF.GenerationSoftware,Altium Limited,Altium Designer,20.1.12 (249)*
G04*
G04 Layer_Physical_Order=2*
G04 Layer_Color=16711680*
%FSTAX24Y24*%
%MOIN*%
G70*
G04*
G04 #@! TF.SameCoordinates,A4519483-63F0-4905-8E8D-142606AE7E66*
G04*
G04*
G04 #@! TF.FilePolarity,Positive*
G04*
G01*
G75*
%ADD13C,0.0200*%
%ADD28R,0.0315X0.0433*%
%ADD32R,0.0433X0.0472*%
%ADD36R,0.0433X0.0315*%
%ADD64O,0.1378X0.1772*%
%ADD67C,0.0080*%
%ADD68C,0.0400*%
%ADD69C,0.0300*%
%ADD70O,0.0591X0.0787*%
%ADD71R,0.0591X0.0787*%
%ADD72R,0.0630X0.0630*%
%ADD73C,0.0630*%
%ADD74C,0.0598*%
%ADD75R,0.0598X0.0598*%
%ADD76C,0.2362*%
%ADD77C,0.0640*%
%ADD78C,0.0750*%
%ADD79C,0.0394*%
%ADD80R,0.0394X0.0945*%
%ADD81R,0.1299X0.0945*%
%ADD82R,0.0472X0.0433*%
G36*
X03314Y049055D02*
X043941Y049051D01*
X043951Y049001D01*
X043817Y048945D01*
X043645Y04884D01*
X043491Y048709D01*
X04336Y048555D01*
X043255Y048383D01*
X043178Y048197D01*
X043131Y048001D01*
X043115Y0478D01*
X043131Y047599D01*
X043178Y047403D01*
X043255Y047217D01*
X04336Y047045D01*
X043491Y046891D01*
X043645Y04676D01*
X043817Y046655D01*
X044003Y046578D01*
X044199Y046531D01*
X0444Y046515D01*
X044601Y046531D01*
X044797Y046578D01*
X044983Y046655D01*
X045155Y04676D01*
X045309Y046891D01*
X04544Y047045D01*
X0455Y047143D01*
X04555Y047129D01*
X04555Y01745D01*
X044679D01*
X044669Y017499D01*
X044683Y017505D01*
X044855Y01761D01*
X045009Y017741D01*
X04514Y017895D01*
X045245Y018067D01*
X045322Y018253D01*
X045369Y018449D01*
X045385Y01865D01*
X045369Y018851D01*
X045322Y019047D01*
X045245Y019233D01*
X04514Y019405D01*
X045009Y019559D01*
X044855Y01969D01*
X044683Y019795D01*
X044497Y019872D01*
X044301Y019919D01*
X0441Y019935D01*
X043899Y019919D01*
X043703Y019872D01*
X043517Y019795D01*
X043345Y01969D01*
X043191Y019559D01*
X04306Y019405D01*
X042955Y019233D01*
X042878Y019047D01*
X042831Y018851D01*
X042815Y01865D01*
X042831Y018449D01*
X042878Y018253D01*
X042955Y018067D01*
X04306Y017895D01*
X043191Y017741D01*
X043345Y01761D01*
X043517Y017505D01*
X043531Y017499D01*
X043521Y01745D01*
X025371Y01745D01*
X025357Y0175D01*
X025455Y01756D01*
X025609Y017691D01*
X02574Y017845D01*
X025845Y018017D01*
X025922Y018203D01*
X025969Y018399D01*
X025985Y0186D01*
X025969Y018801D01*
X025922Y018997D01*
X025845Y019183D01*
X02574Y019355D01*
X025609Y019509D01*
X025455Y01964D01*
X025283Y019745D01*
X025097Y019822D01*
X024901Y019869D01*
X0247Y019885D01*
X024499Y019869D01*
X024303Y019822D01*
X024117Y019745D01*
X023945Y01964D01*
X023791Y019509D01*
X023735Y019442D01*
X023688Y019459D01*
X023456Y049023D01*
X023491Y049059D01*
X025109Y049058D01*
X025119Y049008D01*
X024967Y048945D01*
X024795Y04884D01*
X024641Y048709D01*
X02451Y048555D01*
X024405Y048383D01*
X024328Y048197D01*
X024281Y048001D01*
X024265Y0478D01*
X024281Y047599D01*
X024328Y047403D01*
X024405Y047217D01*
X02451Y047045D01*
X024641Y046891D01*
X024795Y04676D01*
X024967Y046655D01*
X025153Y046578D01*
X025349Y046531D01*
X02555Y046515D01*
X025751Y046531D01*
X025947Y046578D01*
X026133Y046655D01*
X026305Y04676D01*
X026459Y046891D01*
X02659Y047045D01*
X026695Y047217D01*
X026772Y047403D01*
X026819Y047599D01*
X026835Y0478D01*
X026819Y048001D01*
X026772Y048197D01*
X026695Y048383D01*
X02659Y048555D01*
X026459Y048709D01*
X026305Y04884D01*
X026133Y048945D01*
X025982Y049008D01*
X025992Y049058D01*
X03276Y049055D01*
X03295Y04915D01*
X03314Y049055D01*
D02*
G37*
%LPC*%
G36*
X036557Y048617D02*
X036043D01*
Y048501D01*
X035993Y048476D01*
X03595Y048509D01*
X035877Y048539D01*
X0358Y048549D01*
X035723Y048539D01*
X03565Y048509D01*
X035588Y048462D01*
X035541Y0484D01*
X035511Y048327D01*
X035501Y04825D01*
X035511Y048173D01*
X035541Y0481D01*
X035588Y048038D01*
X03565Y047991D01*
X035723Y047961D01*
X0358Y047951D01*
X035877Y047961D01*
X03595Y047991D01*
X035993Y048024D01*
X036043Y047999D01*
Y047983D01*
X03614D01*
X036143Y047983D01*
X036145Y047983D01*
X036147Y047983D01*
X03615Y047983D01*
X036557D01*
Y048617D01*
D02*
G37*
G36*
X033197Y048383D02*
X033176Y04831D01*
X033178Y048267D01*
X033169D01*
X033156Y048183D01*
X033152Y0481D01*
X033362D01*
X033354Y048158D01*
X033312Y048259D01*
X033246Y048346D01*
X033197Y048383D01*
D02*
G37*
G36*
X032703D02*
X032654Y048346D01*
X032588Y048259D01*
X032546Y048158D01*
X032538Y0481D01*
X032748D01*
X032744Y048183D01*
X032731Y048267D01*
X032722D01*
X032727Y048279D01*
X032728Y048286D01*
X032726Y048302D01*
X032703Y048383D01*
D02*
G37*
G36*
X033362Y048D02*
X033D01*
Y047638D01*
X033058Y047646D01*
X033159Y047688D01*
X033246Y047754D01*
X033312Y047841D01*
X033354Y047942D01*
X033362Y048D01*
D02*
G37*
G36*
X0329D02*
X032538D01*
X032546Y047942D01*
X032588Y047841D01*
X032654Y047754D01*
X032741Y047688D01*
X032842Y047646D01*
X0329Y047638D01*
Y048D01*
D02*
G37*
G36*
X031365Y048465D02*
X030535D01*
Y047635D01*
X031365D01*
Y048465D01*
D02*
G37*
G36*
X037357Y048617D02*
X036843D01*
Y048091D01*
X036842Y048088D01*
X036842Y048087D01*
X036842Y048085D01*
X036843Y048081D01*
Y047983D01*
X036937D01*
X03694Y047983D01*
X036957Y047982D01*
Y047918D01*
X03694Y047917D01*
X036937Y047917D01*
X036843D01*
Y047819D01*
X036842Y047815D01*
X036842Y047814D01*
X036842Y047812D01*
X036843Y047809D01*
Y047391D01*
X036842Y047388D01*
X036842Y047386D01*
X036842Y047385D01*
X036843Y047381D01*
Y047283D01*
X0368Y047267D01*
X03675Y047267D01*
X036714Y047267D01*
X0366D01*
X036557Y047283D01*
X036557Y047317D01*
Y047917D01*
X036154D01*
X036153Y047917D01*
X03615Y047917D01*
X036148D01*
X036144Y047917D01*
X03614Y047917D01*
X036043D01*
Y047826D01*
X036042Y047825D01*
X036041Y047817D01*
X036035Y047814D01*
X036021Y047809D01*
X036001Y047806D01*
X035984Y047804D01*
X035484D01*
X035476Y047812D01*
X035463Y047826D01*
X035404Y047895D01*
X035383Y047922D01*
X035368Y047944D01*
X035359Y047961D01*
X035357Y047965D01*
X035369Y04805D01*
X035354Y048158D01*
X035312Y048259D01*
X035246Y048346D01*
X035159Y048412D01*
X035058Y048454D01*
X03495Y048469D01*
X034842Y048454D01*
X034741Y048412D01*
X034654Y048346D01*
X034588Y048259D01*
X034546Y048158D01*
X034531Y04805D01*
X034546Y047942D01*
X034588Y047841D01*
X034654Y047754D01*
X034741Y047688D01*
X034842Y047646D01*
X03495Y047631D01*
X035035Y047643D01*
X035039Y047641D01*
X035056Y047632D01*
X035076Y047618D01*
X035201Y04751D01*
X035256Y047456D01*
X035322Y047412D01*
X0354Y047396D01*
X035984D01*
X036001Y047394D01*
X036021Y047391D01*
X036035Y047386D01*
X036041Y047383D01*
X036042Y047375D01*
X036043Y047374D01*
X036043Y047283D01*
X036064Y047242D01*
Y047233D01*
Y047D01*
X0364D01*
Y04695D01*
X03645D01*
Y046735D01*
X036578D01*
X036636Y046752D01*
X03664Y046698D01*
X036652Y046644D01*
X036656Y046633D01*
X036714D01*
X03675Y046633D01*
X036786Y046633D01*
X037436D01*
Y046813D01*
X037437Y046824D01*
X037438Y046844D01*
X037441Y046857D01*
X037916D01*
X037927Y046857D01*
X03804Y04685D01*
X038086Y046843D01*
X038127Y046836D01*
X038162Y046827D01*
X038191Y046817D01*
X038213Y046806D01*
X038229Y046797D01*
X038238Y046789D01*
X038238Y046788D01*
X038242Y046785D01*
X038245Y046783D01*
X038246Y046782D01*
X0383Y046741D01*
X038373Y046711D01*
X03845Y046701D01*
X038527Y046711D01*
X0386Y046741D01*
X038662Y046788D01*
X038709Y04685D01*
X038739Y046923D01*
X038749Y047D01*
X038739Y047077D01*
X038709Y04715D01*
X038662Y047212D01*
X0386Y047259D01*
X038527Y047289D01*
X03845Y047299D01*
X038373Y047289D01*
X0383Y047259D01*
X038246Y047218D01*
X038245Y047217D01*
X038242Y047215D01*
X038238Y047212D01*
X038238Y047211D01*
X038229Y047203D01*
X038213Y047194D01*
X038191Y047183D01*
X038162Y047173D01*
X038127Y047164D01*
X038088Y047157D01*
X037925Y047143D01*
X037916Y047143D01*
X037438D01*
X037438Y047149D01*
X037437Y047169D01*
X037436Y047172D01*
Y047267D01*
X0374D01*
X037357Y047283D01*
X037357Y047381D01*
X037358Y047385D01*
X037358Y047386D01*
X037358Y047388D01*
X037357Y047391D01*
Y047809D01*
X037358Y047812D01*
X037358Y047814D01*
X037358Y047815D01*
X037357Y047819D01*
Y047917D01*
X037263D01*
X03726Y047917D01*
X037243Y047918D01*
Y047982D01*
X03726Y047983D01*
X037263Y047983D01*
X037357D01*
Y048081D01*
X037358Y048085D01*
X037358Y048087D01*
X037358Y048088D01*
X037357Y048091D01*
Y048617D01*
D02*
G37*
G36*
X029157Y047467D02*
X028643D01*
Y047287D01*
X028642Y047276D01*
X02864Y047256D01*
X028638Y047243D01*
X02805D01*
X02805Y047243D01*
X027995Y047232D01*
X027949Y047201D01*
X027949Y047201D01*
X027191Y046443D01*
X02575D01*
X02575Y046443D01*
X025695Y046432D01*
X025649Y046401D01*
X025649Y046401D01*
X025449Y046201D01*
X025418Y046155D01*
X025407Y0461D01*
X025407Y0461D01*
Y046081D01*
X025405Y046025D01*
X025402Y045996D01*
X025398Y045971D01*
X025393Y045952D01*
X025388Y045939D01*
X025385Y045933D01*
X025383Y045931D01*
X02538Y045929D01*
X025341Y045912D01*
X025254Y045846D01*
X025188Y045759D01*
X025146Y045658D01*
X025131Y04555D01*
X025146Y045442D01*
X025188Y045341D01*
X025254Y045254D01*
X025341Y045188D01*
X025442Y045146D01*
X02555Y045131D01*
X025658Y045146D01*
X025759Y045188D01*
X025846Y045254D01*
X025912Y045341D01*
X025954Y045442D01*
X025969Y04555D01*
X025954Y045658D01*
X025912Y045759D01*
X025846Y045846D01*
X025759Y045912D01*
X02572Y045929D01*
X025717Y045931D01*
X025715Y045933D01*
X025712Y045939D01*
X025707Y045952D01*
X025702Y045971D01*
X025698Y045994D01*
X025694Y046042D01*
X025809Y046157D01*
X02725D01*
X02725Y046157D01*
X027305Y046168D01*
X027351Y046199D01*
X028109Y046957D01*
X02864D01*
X028641Y046951D01*
X028642Y046931D01*
X028643Y046928D01*
Y046833D01*
X02874D01*
X028743Y046833D01*
X028745Y046833D01*
X028747Y046833D01*
X02875Y046833D01*
X029157D01*
Y047467D01*
D02*
G37*
G36*
X03635Y0469D02*
X036064D01*
Y046633D01*
X036219D01*
X036218Y046635D01*
X036211Y046671D01*
X036201Y046699D01*
X036191Y046719D01*
X036179Y046731D01*
X036165Y046735D01*
X03635D01*
Y0469D01*
D02*
G37*
G36*
X029157Y046767D02*
X028643D01*
Y046635D01*
X028642Y046626D01*
X02864Y046605D01*
X028638Y046593D01*
X02855D01*
X02855Y046593D01*
X028495Y046582D01*
X028449Y046551D01*
X028449Y046551D01*
X027116Y045218D01*
X026965D01*
Y045965D01*
X026135D01*
Y045218D01*
X025975D01*
X025975Y045218D01*
X02592Y045207D01*
X025874Y045176D01*
X025874Y045176D01*
X025862Y045164D01*
X025791Y045098D01*
X025752Y045068D01*
X025714Y045041D01*
X025678Y045018D01*
X025644Y045D01*
X025611Y044986D01*
X025581Y044976D01*
X025552Y044969D01*
X02552Y044966D01*
X025514Y044964D01*
X025509Y044964D01*
X025506Y044963D01*
X025442Y044954D01*
X025341Y044912D01*
X025254Y044846D01*
X025188Y044759D01*
X025146Y044658D01*
X025131Y04455D01*
X02514Y044488D01*
X025116Y044452D01*
X025105Y044397D01*
X025116Y044343D01*
X025147Y044296D01*
X025193Y044266D01*
X025247Y044255D01*
X025249D01*
X025249Y044255D01*
X025253Y044256D01*
X025254Y044254D01*
X025341Y044188D01*
X025442Y044146D01*
X02555Y044131D01*
X025658Y044146D01*
X025759Y044188D01*
X025846Y044254D01*
X025912Y044341D01*
X025954Y044442D01*
X025969Y04455D01*
X025954Y044658D01*
X02594Y044692D01*
X02594Y044694D01*
X025939Y044697D01*
X025938Y044701D01*
X025931Y044723D01*
X02593Y044738D01*
X02593Y044754D01*
X025935Y044775D01*
X025944Y0448D01*
X025958Y044829D01*
X025978Y044861D01*
X026005Y044896D01*
X026035Y044932D01*
X026284D01*
X026301Y044882D01*
X026254Y044846D01*
X026188Y044759D01*
X026146Y044658D01*
X026131Y04455D01*
X026146Y044442D01*
X026188Y044341D01*
X026226Y04429D01*
X026247Y043693D01*
Y0406D01*
X026248Y040595D01*
Y0403D01*
X026256Y040261D01*
X026278Y040228D01*
X026528Y039978D01*
X026561Y039956D01*
X0266Y039948D01*
X026647D01*
Y03195D01*
Y03125D01*
Y023207D01*
X026647Y0232D01*
X026646Y023195D01*
X026594Y023198D01*
X026588Y023228D01*
X026544Y023294D01*
X026394Y023444D01*
X026328Y023488D01*
X02625Y023504D01*
X025639D01*
X025614Y023554D01*
X025649Y023599D01*
X025689Y023696D01*
X025703Y0238D01*
X025689Y023904D01*
X025649Y024001D01*
X025585Y024085D01*
X025501Y024149D01*
X025404Y024189D01*
X0253Y024203D01*
X025196Y024189D01*
X025099Y024149D01*
X025015Y024085D01*
X024951Y024001D01*
X024911Y023904D01*
X024897Y0238D01*
X024911Y023696D01*
X024951Y023599D01*
X024986Y023554D01*
X024961Y023504D01*
X0248D01*
X024722Y023488D01*
X024656Y023444D01*
X024594Y023383D01*
X02451Y023309D01*
X024469Y023277D01*
X024431Y02325D01*
X024397Y02323D01*
X024367Y023215D01*
X024343Y023206D01*
X024326Y023202D01*
X024311Y023201D01*
X0243Y023203D01*
X024196Y023189D01*
X024099Y023149D01*
X024015Y023085D01*
X023951Y023001D01*
X023911Y022904D01*
X023897Y0228D01*
X023911Y022696D01*
X023951Y022599D01*
X024015Y022515D01*
X024099Y022451D01*
X024196Y022411D01*
X0243Y022397D01*
X024404Y022411D01*
X024501Y022451D01*
X024585Y022515D01*
X024649Y022599D01*
X024689Y022696D01*
X024703Y0228D01*
X024701Y022811D01*
X024702Y022826D01*
X024706Y022843D01*
X024715Y022867D01*
X02473Y022897D01*
X02475Y022931D01*
X024775Y022967D01*
X024885Y023096D01*
X024961D01*
X024986Y023046D01*
X024951Y023001D01*
X024911Y022904D01*
X024897Y0228D01*
X024911Y022696D01*
X024951Y022599D01*
X025015Y022515D01*
X025099Y022451D01*
X025196Y022411D01*
X0253Y022397D01*
X025404Y022411D01*
X025501Y022451D01*
X025585Y022515D01*
X025649Y022599D01*
X025689Y022696D01*
X025703Y0228D01*
X025689Y022904D01*
X025649Y023001D01*
X025614Y023046D01*
X025639Y023096D01*
X026166D01*
X026196Y023066D01*
Y022916D01*
X026194Y022899D01*
X026191Y022879D01*
X026186Y022865D01*
X026183Y022859D01*
X026175Y022858D01*
X026174Y022857D01*
X026083D01*
Y02276D01*
X026083Y022756D01*
X026083Y022752D01*
Y02275D01*
X026083Y022747D01*
X026083Y022746D01*
Y022343D01*
X026717D01*
Y022746D01*
X026717Y022747D01*
X026717Y02275D01*
Y022752D01*
X026717Y022756D01*
X026717Y02276D01*
Y022857D01*
X026626D01*
X026625Y022858D01*
X026617Y022859D01*
X026614Y022865D01*
X026609Y022879D01*
X026606Y022899D01*
X026604Y022916D01*
Y0231D01*
X026619Y023113D01*
X026654Y023126D01*
X026656Y023124D01*
X026656Y023124D01*
X026658Y023122D01*
X026661Y023114D01*
X026688Y023049D01*
X026736Y022986D01*
X026799Y022938D01*
X026872Y022908D01*
X02695Y022897D01*
X027028Y022908D01*
X027101Y022938D01*
X027164Y022986D01*
X027212Y023049D01*
X027242Y023122D01*
X027246Y023151D01*
X027296Y023147D01*
Y021584D01*
X026656Y020944D01*
X026612Y020878D01*
X026596Y0208D01*
Y0194D01*
X026612Y019322D01*
X026656Y019256D01*
X026956Y018956D01*
X027022Y018912D01*
X0271Y018896D01*
X0271Y018896D01*
X027226D01*
X027347Y018892D01*
X027358Y01889D01*
X02737Y018885D01*
X027377Y018882D01*
X02738Y01888D01*
X02738Y018879D01*
X027381Y018878D01*
X027382Y018874D01*
X027383Y018857D01*
X027383Y018855D01*
Y018764D01*
X027481D01*
X027485Y018763D01*
X027488Y018764D01*
X027489D01*
X027493Y018763D01*
X027494Y018764D01*
X027912D01*
X027915Y018763D01*
X027919Y018764D01*
X027924D01*
X027926Y018764D01*
X027927Y018764D01*
X028017D01*
Y018775D01*
X028067Y018811D01*
X028131Y018798D01*
X028174Y018786D01*
X028215Y018772D01*
X028248Y018758D01*
X028251Y018756D01*
X028265Y018751D01*
X028292Y018737D01*
X028299Y018735D01*
X028305Y018732D01*
X028312Y018731D01*
X028347Y018716D01*
X02845Y018703D01*
X028553Y018716D01*
X028649Y018756D01*
X028732Y01882D01*
X028795Y018902D01*
X028835Y018998D01*
X028838Y019017D01*
X028862Y019049D01*
X028892Y019122D01*
X028903Y0192D01*
X028892Y019278D01*
X028862Y019351D01*
X028838Y019383D01*
X028835Y019402D01*
X028795Y019498D01*
X028732Y01958D01*
X028649Y019644D01*
X028579Y019673D01*
Y019727D01*
X028649Y019756D01*
X028732Y01982D01*
X028795Y019902D01*
X028822Y019967D01*
X028872Y019957D01*
Y019734D01*
X028872Y019734D01*
X028883Y019679D01*
X028914Y019633D01*
X029078Y019468D01*
X029078Y019467D01*
X029078Y019457D01*
X029076Y019445D01*
X02907Y019414D01*
X029065Y019402D01*
X029063Y019387D01*
X029062Y019384D01*
X029061Y019374D01*
X02906Y019366D01*
X029058Y019356D01*
X029059Y019354D01*
X029051Y019298D01*
Y019102D01*
X029065Y018998D01*
X029105Y018902D01*
X029168Y01882D01*
X029251Y018756D01*
X029347Y018716D01*
X02945Y018703D01*
X029553Y018716D01*
X029649Y018756D01*
X029732Y01882D01*
X029795Y018902D01*
X029835Y018998D01*
X029849Y019102D01*
Y019298D01*
X029835Y019402D01*
X029795Y019498D01*
X029732Y01958D01*
X029649Y019644D01*
X029579Y019673D01*
Y019727D01*
X029649Y019756D01*
X029732Y01982D01*
X029795Y019902D01*
X029807Y019931D01*
X029857Y019921D01*
Y019748D01*
X029857Y019748D01*
X029868Y019694D01*
X029899Y019647D01*
X030078Y019468D01*
X030078Y019467D01*
X030078Y019457D01*
X030076Y019445D01*
X03007Y019414D01*
X030065Y019402D01*
X030063Y019387D01*
X030062Y019384D01*
X030061Y019374D01*
X03006Y019366D01*
X030058Y019356D01*
X030059Y019354D01*
X030051Y019298D01*
Y019102D01*
X030065Y018998D01*
X030105Y018902D01*
X030168Y01882D01*
X030251Y018756D01*
X030347Y018716D01*
X03045Y018703D01*
X030553Y018716D01*
X030649Y018756D01*
X030732Y01882D01*
X030795Y018902D01*
X030835Y018998D01*
X030849Y019102D01*
Y019298D01*
X030835Y019402D01*
X030795Y019498D01*
X030732Y01958D01*
X030649Y019644D01*
X030579Y019673D01*
Y019727D01*
X030649Y019756D01*
X030732Y01982D01*
X030795Y019902D01*
X030835Y019998D01*
X030849Y020102D01*
Y020298D01*
X030839Y020369D01*
X03084Y020374D01*
X030837Y02039D01*
X030841Y020393D01*
X031151Y020704D01*
X031151Y020704D01*
X031182Y02075D01*
X031193Y020805D01*
X031193Y020805D01*
Y021638D01*
X031205Y02164D01*
X031226Y021642D01*
X031235Y021643D01*
X031367D01*
Y022157D01*
X030733D01*
Y022157D01*
X030717D01*
Y022157D01*
X030117D01*
X030083Y022157D01*
X030033Y022157D01*
X029433D01*
Y021643D01*
X029565D01*
X029574Y021642D01*
X029595Y02164D01*
X029607Y021638D01*
Y021209D01*
X029349Y020951D01*
X029318Y020905D01*
X029307Y02085D01*
X029307Y02085D01*
Y020682D01*
X029306Y02068D01*
X029299Y020674D01*
X029289Y020666D01*
X029263Y020649D01*
X029251Y020644D01*
X029239Y020635D01*
X029236Y020633D01*
X029229Y020627D01*
X029222Y020622D01*
X029214Y020616D01*
X029213Y020614D01*
X029207Y020611D01*
X029157Y020635D01*
Y021638D01*
X02917Y02164D01*
X02919Y021642D01*
X0292Y021643D01*
X029317D01*
Y021744D01*
X029317Y021745D01*
X029317Y021746D01*
Y021747D01*
X029317Y021748D01*
X029317Y021748D01*
Y022157D01*
X028683D01*
Y021643D01*
X02883D01*
X028839Y021642D01*
X028859Y02164D01*
X028872Y021638D01*
Y020443D01*
X028822Y020433D01*
X028795Y020498D01*
X028732Y02058D01*
X028649Y020644D01*
X028553Y020684D01*
X0285Y020691D01*
Y020589D01*
X028508Y020588D01*
X0285Y020584D01*
Y02056D01*
X028518Y020554D01*
X028542Y020549D01*
X028569Y020548D01*
X028599Y020551D01*
X0285Y020539D01*
Y0202D01*
X02845D01*
Y02015D01*
X02817D01*
Y020015D01*
X028169Y020042D01*
X028167Y020067D01*
X028162Y020089D01*
X028156Y020108D01*
X028148Y020124D01*
X028138Y020137D01*
X028126Y020147D01*
X02812Y02015D01*
X02803D01*
X028017Y020136D01*
X028001Y020136D01*
X02775D01*
Y019992D01*
X02776Y019993D01*
X027789Y020001D01*
X027819Y020015D01*
X02785Y020035D01*
X027882Y02006D01*
X027915Y020092D01*
X027972Y020035D01*
X027941Y020002D01*
X027915Y019969D01*
X027896Y019938D01*
X027881Y019908D01*
X027873Y019879D01*
X02787Y019852D01*
X027873Y019825D01*
X027881Y0198D01*
X027896Y019775D01*
X027915Y019752D01*
X02775Y019918D01*
Y0198D01*
X0277D01*
Y01975D01*
X027383D01*
Y019464D01*
X027383Y019464D01*
Y019436D01*
X027383D01*
X027383Y019414D01*
Y019345D01*
X027383Y019343D01*
X027382Y019326D01*
X027381Y019322D01*
X02738Y019321D01*
X02738Y01932D01*
X027377Y019318D01*
X02737Y019315D01*
X027369Y019314D01*
X027201Y019304D01*
X027184D01*
X027004Y019484D01*
Y020716D01*
X027644Y021356D01*
X027644Y021356D01*
X027688Y021422D01*
X027704Y0215D01*
Y03626D01*
X032694Y04125D01*
X032694Y04125D01*
X032738Y041316D01*
X032754Y041394D01*
Y0446D01*
X032738Y044678D01*
X032694Y044744D01*
X032344Y045094D01*
X032278Y045138D01*
X0322Y045154D01*
X030802D01*
Y0452D01*
X030794Y045239D01*
X030772Y045272D01*
X030739Y045294D01*
X0307Y045302D01*
X0277D01*
X027662Y045345D01*
X02766Y045359D01*
X028591Y046289D01*
X028591Y046289D01*
X028633Y046277D01*
X028642Y04627D01*
X028643Y046265D01*
Y046133D01*
X029157D01*
Y046767D01*
D02*
G37*
G36*
X041045Y046389D02*
X040922Y046323D01*
X040802Y046224D01*
X040703Y046104D01*
X040635Y045977D01*
X040645Y045982D01*
X040714Y046029D01*
X040863Y046143D01*
X040873Y046152D01*
X040881Y046161D01*
X040992Y046307D01*
X041037Y046375D01*
X041045Y046389D01*
D02*
G37*
G36*
X03677Y046442D02*
X036782Y046427D01*
X036835Y046373D01*
X036896Y046319D01*
X036965Y046265D01*
X037042Y046211D01*
X036672Y046137D01*
Y045517D01*
X037107D01*
X037042Y046211D01*
X037121Y046143D01*
X037339Y045982D01*
X03735Y045977D01*
X037281Y046104D01*
X037183Y046224D01*
X037062Y046323D01*
X036925Y046396D01*
X036777Y046441D01*
X03677Y046442D01*
D02*
G37*
G36*
X041679Y046389D02*
X041687Y046375D01*
X041732Y046307D01*
X041843Y046161D01*
X041885Y046111D01*
X041932Y046059D01*
X042126Y045865D01*
X042095Y045967D01*
X042021Y046104D01*
X041923Y046224D01*
X041803Y046323D01*
X041679Y046389D01*
D02*
G37*
G36*
X0246Y045962D02*
Y0456D01*
X024962D01*
X024954Y045658D01*
X024912Y045759D01*
X024846Y045846D01*
X024759Y045912D01*
X024658Y045954D01*
X0246Y045962D01*
D02*
G37*
G36*
X0245D02*
X024442Y045954D01*
X024341Y045912D01*
X024254Y045846D01*
X024188Y045759D01*
X024146Y045658D01*
X024138Y0456D01*
X0245D01*
Y045962D01*
D02*
G37*
G36*
X04185Y046083D02*
X041412D01*
Y045517D01*
X04185D01*
Y046083D01*
D02*
G37*
G36*
X041312D02*
X040931D01*
X040878Y045517D01*
X041312D01*
Y046083D01*
D02*
G37*
G36*
X036184Y046324D02*
X036182Y046323D01*
X036061Y046224D01*
X035963Y046104D01*
X03589Y045967D01*
X035844Y045818D01*
X035829Y045664D01*
Y045517D01*
X036572D01*
Y046117D01*
X036025Y046008D01*
X036065Y046072D01*
X036133Y046197D01*
X03616Y04626D01*
X036183Y046323D01*
X036184Y046324D01*
D02*
G37*
G36*
X03395Y048469D02*
X033842Y048454D01*
X033741Y048412D01*
X033654Y048346D01*
X033588Y048259D01*
X033546Y048158D01*
X033531Y04805D01*
X033546Y047942D01*
X033588Y047841D01*
X033654Y047754D01*
X033666Y047745D01*
X033704Y047706D01*
X033734Y047667D01*
X033761Y047621D01*
X033786Y047568D01*
X033807Y047508D01*
X033825Y047442D01*
X033839Y047369D01*
X033856Y047198D01*
X033857Y047139D01*
Y046D01*
X033857Y046D01*
X033868Y045945D01*
X033899Y045899D01*
X034387Y045411D01*
X034384Y045389D01*
X03433Y045372D01*
X032151Y047551D01*
X032094Y047608D01*
X032094Y04761D01*
X032096Y047633D01*
X032099Y047651D01*
X032101Y047664D01*
X032159Y047688D01*
X032246Y047754D01*
X032312Y047841D01*
X032354Y047942D01*
X032369Y04805D01*
X032354Y048158D01*
X032312Y048259D01*
X032246Y048346D01*
X032159Y048412D01*
X032058Y048454D01*
X03195Y048469D01*
X031842Y048454D01*
X031741Y048412D01*
X031654Y048346D01*
X031588Y048259D01*
X031546Y048158D01*
X031531Y04805D01*
X031546Y047942D01*
X031588Y047841D01*
X031654Y047754D01*
X031741Y047688D01*
X031799Y047664D01*
X031801Y047651D01*
X031804Y047634D01*
X031807Y047585D01*
Y04755D01*
X031807Y04755D01*
X031818Y047495D01*
X031849Y047449D01*
X031988Y04731D01*
X03197Y047271D01*
X031963Y047264D01*
X031921Y047266D01*
X031911Y047266D01*
X0319Y047268D01*
X031894Y047267D01*
X031844Y047266D01*
X029975Y047245D01*
X029957Y047294D01*
Y047467D01*
X029443D01*
Y046833D01*
X02985D01*
X029853Y046833D01*
X029855Y046833D01*
X029857Y046833D01*
X02986Y046833D01*
X029957D01*
Y046928D01*
X029958Y046931D01*
X029959Y046951D01*
X02996Y04696D01*
X031897Y046981D01*
X031902Y046982D01*
X031903Y046982D01*
X03204Y046862D01*
X033878Y045025D01*
X033874Y044998D01*
X033822Y04498D01*
X032251Y046551D01*
X032205Y046582D01*
X03215Y046593D01*
X03215Y046593D01*
X029962D01*
X02996Y046605D01*
X029958Y046626D01*
X029957Y046635D01*
Y046767D01*
X029443D01*
Y046133D01*
X029957D01*
Y046265D01*
X029958Y046274D01*
X02996Y046295D01*
X029962Y046307D01*
X030669D01*
X030673Y046299D01*
X030688Y046257D01*
X030661Y046191D01*
X030651Y046113D01*
X030661Y046036D01*
X030691Y045963D01*
X030738Y045901D01*
X0308Y045854D01*
X030873Y045824D01*
X03095Y045814D01*
X031027Y045824D01*
X0311Y045854D01*
X031154Y045895D01*
X031155Y045896D01*
X031158Y045898D01*
X031162Y045901D01*
X031162Y045902D01*
X031171Y04591D01*
X031187Y04592D01*
X031209Y04593D01*
X031238Y04594D01*
X031273Y045949D01*
X031312Y045956D01*
X031475Y04597D01*
X031484Y04597D01*
X031978D01*
X033357Y044591D01*
Y038834D01*
X033357Y038823D01*
X03335Y03871D01*
X033343Y038664D01*
X033336Y038623D01*
X033327Y038588D01*
X033317Y038559D01*
X033306Y038537D01*
X033297Y038521D01*
X033289Y038512D01*
X033288Y038512D01*
X033285Y038508D01*
X033283Y038505D01*
X033282Y038504D01*
X033241Y03845D01*
X033211Y038377D01*
X033201Y0383D01*
X033211Y038223D01*
X033241Y03815D01*
X033282Y038096D01*
X033283Y038095D01*
X033285Y038092D01*
X033288Y038088D01*
X033289Y038088D01*
X033297Y038079D01*
X033306Y038063D01*
X033317Y038041D01*
X033327Y038012D01*
X033336Y037977D01*
X033343Y037938D01*
X033357Y037775D01*
X033357Y037766D01*
Y03235D01*
X033357Y03235D01*
X033368Y032295D01*
X033399Y032249D01*
X034449Y031199D01*
X034449Y031199D01*
X034495Y031168D01*
X03455Y031157D01*
X034661D01*
X034675Y031157D01*
X034787Y031149D01*
X034832Y031142D01*
X034873Y031134D01*
X034908Y031124D01*
X034936Y031114D01*
X034959Y031103D01*
X034975Y031092D01*
X034988Y031081D01*
X03499Y031078D01*
X035052Y031031D01*
X035124Y031001D01*
X035202Y030991D01*
X035279Y031001D01*
X035351Y031031D01*
X035413Y031078D01*
X035461Y03114D01*
X035489Y031207D01*
X035529Y031225D01*
X035538Y031228D01*
X036121Y030645D01*
X036129Y030637D01*
X036204Y030552D01*
X036232Y030515D01*
X036255Y03048D01*
X036274Y030449D01*
X036287Y030422D01*
X036295Y030399D01*
X0363Y030381D01*
X036301Y030369D01*
X036301Y030368D01*
X036301Y030363D01*
X036302Y030359D01*
X036302Y030358D01*
X036311Y03029D01*
X036341Y030218D01*
X036388Y030156D01*
X03645Y030109D01*
X036523Y030079D01*
X0366Y030069D01*
X036677Y030079D01*
X03675Y030109D01*
X036812Y030156D01*
X036859Y030218D01*
X036889Y03029D01*
X036899Y030368D01*
X036889Y030445D01*
X036859Y030518D01*
X036812Y03058D01*
X03675Y030627D01*
X036677Y030657D01*
X03661Y030666D01*
X036609Y030666D01*
X036605Y030667D01*
X0366Y030667D01*
X036599Y030667D01*
X036587Y030668D01*
X036569Y030672D01*
X036546Y030681D01*
X036519Y030694D01*
X036488Y030713D01*
X036455Y030735D01*
X03633Y03084D01*
X036323Y030847D01*
X034373Y032797D01*
X034273Y036725D01*
X034322Y036742D01*
X034325Y036738D01*
X034387Y036691D01*
X034459Y036661D01*
X034537Y036651D01*
X034614Y036661D01*
X034687Y036691D01*
X034749Y036738D01*
X034796Y0368D01*
X034826Y036873D01*
X034836Y03695D01*
X034826Y037027D01*
X034796Y0371D01*
X034749Y037162D01*
X034687Y037209D01*
X034614Y037239D01*
X034537Y037249D01*
X034492Y037243D01*
X034444Y037282D01*
X034443Y037285D01*
Y039385D01*
X034493Y039405D01*
X035249Y038649D01*
X035249Y038649D01*
X035295Y038618D01*
X03535Y038607D01*
X03535Y038607D01*
X037416D01*
X037427Y038607D01*
X03754Y0386D01*
X037586Y038593D01*
X037627Y038586D01*
X037662Y038577D01*
X037691Y038567D01*
X037713Y038556D01*
X037729Y038547D01*
X037738Y038539D01*
X037738Y038538D01*
X037742Y038535D01*
X037745Y038533D01*
X037746Y038532D01*
X0378Y038491D01*
X037873Y038461D01*
X03795Y038451D01*
X038027Y038461D01*
X0381Y038491D01*
X038162Y038538D01*
X038209Y0386D01*
X038239Y038673D01*
X038249Y03875D01*
X038239Y038827D01*
X038209Y0389D01*
X038162Y038962D01*
X0381Y039009D01*
X038027Y039039D01*
X03795Y039049D01*
X037873Y039039D01*
X0378Y039009D01*
X037746Y038968D01*
X037745Y038967D01*
X037742Y038965D01*
X037738Y038962D01*
X037738Y038961D01*
X037729Y038953D01*
X037713Y038944D01*
X037691Y038933D01*
X037662Y038923D01*
X037627Y038914D01*
X037588Y038907D01*
X037425Y038893D01*
X037416Y038893D01*
X035409D01*
X034693Y039609D01*
Y04545D01*
X034682Y045505D01*
X034651Y045551D01*
X034651Y045551D01*
X034143Y046059D01*
Y047176D01*
X034143Y047223D01*
X034148Y047319D01*
X034164Y047489D01*
X034176Y047559D01*
X034191Y04762D01*
X034207Y047672D01*
X034225Y047715D01*
X034243Y047748D01*
X034266Y047778D01*
X034268Y047783D01*
X034312Y047841D01*
X034354Y047942D01*
X034369Y04805D01*
X034354Y048158D01*
X034312Y048259D01*
X034246Y048346D01*
X034159Y048412D01*
X034058Y048454D01*
X03395Y048469D01*
D02*
G37*
G36*
X0245Y0455D02*
X024138D01*
X024146Y045442D01*
X024188Y045341D01*
X024254Y045254D01*
X024304Y045216D01*
X0243Y045371D01*
X0245Y045414D01*
Y0455D01*
D02*
G37*
G36*
X024962D02*
X0246D01*
Y045436D01*
X0247Y045457D01*
X024701Y045339D01*
X024702Y045319D01*
X024761Y045316D01*
X024749Y0453D01*
X024739Y045272D01*
X02473Y045232D01*
X024722Y045182D01*
X024721Y045172D01*
X024759Y045188D01*
X024846Y045254D01*
X024912Y045341D01*
X024954Y045442D01*
X024962Y0455D01*
D02*
G37*
G36*
X041312Y045417D02*
X040868D01*
X040815Y04485D01*
X040737Y044965D01*
X040579Y045172D01*
X040585Y045115D01*
X04063Y044967D01*
X040703Y04483D01*
X040802Y044709D01*
X040922Y044611D01*
X041059Y044538D01*
X041208Y044493D01*
X041312Y044482D01*
Y045417D01*
D02*
G37*
G36*
X024726Y044926D02*
X02473Y044868D01*
X024739Y044828D01*
X024749Y0448D01*
X024761Y044784D01*
X024701Y044781D01*
X024701Y044761D01*
X0247Y044643D01*
X0246Y044664D01*
Y0446D01*
X024962D01*
X024954Y044658D01*
X024912Y044759D01*
X024846Y044846D01*
X024759Y044912D01*
X024726Y044926D01*
D02*
G37*
G36*
X024304Y044884D02*
X024254Y044846D01*
X024188Y044759D01*
X024146Y044658D01*
X024138Y0446D01*
X0245D01*
Y044686D01*
X0243Y044728D01*
X024304Y044884D01*
D02*
G37*
G36*
X04185Y045417D02*
X041412D01*
Y044482D01*
X041517Y044493D01*
X041666Y044538D01*
X041803Y044611D01*
X041923Y044709D01*
X042021Y04483D01*
X042095Y044967D01*
X042126Y04507D01*
X04201Y044957D01*
X04185Y044783D01*
Y045417D01*
D02*
G37*
G36*
X037116Y045417D02*
X036672D01*
Y044482D01*
X036777Y044493D01*
X036925Y044538D01*
X037062Y044611D01*
X037183Y044709D01*
X037281Y04483D01*
X037354Y044967D01*
X0374Y045115D01*
X037406Y045181D01*
X037387Y045158D01*
X037247Y044965D01*
X037169Y04485D01*
X037116Y045417D01*
D02*
G37*
G36*
X036572D02*
X035829D01*
Y04527D01*
X035844Y045115D01*
X03589Y044967D01*
X035963Y04483D01*
X036061Y044709D01*
X036182Y044611D01*
X036319Y044538D01*
X036467Y044493D01*
X036572Y044482D01*
Y045417D01*
D02*
G37*
G36*
X03855Y044817D02*
Y04445D01*
X038917D01*
X038909Y04451D01*
X038867Y044612D01*
X0388Y0447D01*
X038712Y044767D01*
X03861Y044809D01*
X03855Y044817D01*
D02*
G37*
G36*
X03845D02*
X03839Y044809D01*
X038288Y044767D01*
X0382Y0447D01*
X038133Y044612D01*
X038091Y04451D01*
X038083Y04445D01*
X03845D01*
Y044817D01*
D02*
G37*
G36*
X024962Y0445D02*
X0246D01*
Y044138D01*
X024658Y044146D01*
X024759Y044188D01*
X024846Y044254D01*
X024912Y044341D01*
X024954Y044442D01*
X024962Y0445D01*
D02*
G37*
G36*
X0245D02*
X024138D01*
X024146Y044442D01*
X024188Y044341D01*
X024254Y044254D01*
X024341Y044188D01*
X024442Y044146D01*
X0245Y044138D01*
Y0445D01*
D02*
G37*
G36*
X039484Y044824D02*
X039375Y044809D01*
X039272Y044767D01*
X039185Y0447D01*
X039117Y044612D01*
X039075Y04451D01*
X039061Y0444D01*
X039075Y04429D01*
X039117Y044188D01*
X039185Y0441D01*
X039272Y044033D01*
X039277Y044031D01*
Y043981D01*
X039272Y043979D01*
X039185Y043912D01*
X039117Y043824D01*
X039075Y043722D01*
X039061Y043613D01*
X039075Y043503D01*
X039117Y043401D01*
X039185Y043313D01*
X039272Y043246D01*
X039375Y043203D01*
X039484Y043189D01*
X039594Y043203D01*
X039696Y043246D01*
X039784Y043313D01*
X039851Y043401D01*
X039893Y043503D01*
X039908Y043613D01*
X039893Y043722D01*
X039851Y043824D01*
X039784Y043912D01*
X039696Y043979D01*
X039692Y043981D01*
Y044031D01*
X039696Y044033D01*
X039784Y0441D01*
X039851Y044188D01*
X039893Y04429D01*
X039908Y0444D01*
X039893Y04451D01*
X039851Y044612D01*
X039784Y0447D01*
X039696Y044767D01*
X039594Y044809D01*
X039484Y044824D01*
D02*
G37*
G36*
X038917Y04435D02*
X0385D01*
X038083D01*
X038091Y04429D01*
X038133Y044188D01*
X0382Y0441D01*
X038288Y044033D01*
X038293Y044031D01*
Y043981D01*
X038288Y043979D01*
X0382Y043912D01*
X038133Y043824D01*
X038091Y043722D01*
X038076Y043613D01*
X038091Y043503D01*
X038133Y043401D01*
X0382Y043313D01*
X038288Y043246D01*
X03839Y043203D01*
X0385Y043189D01*
X03861Y043203D01*
X038712Y043246D01*
X0388Y043313D01*
X038867Y043401D01*
X038909Y043503D01*
X038924Y043613D01*
X038909Y043722D01*
X038867Y043824D01*
X0388Y043912D01*
X038712Y043979D01*
X038707Y043981D01*
Y044031D01*
X038712Y044033D01*
X0388Y0441D01*
X038867Y044188D01*
X038909Y04429D01*
X038917Y04435D01*
D02*
G37*
G36*
X04355Y042196D02*
Y04185D01*
X043711D01*
Y042012D01*
X04372Y042009D01*
X04374Y042007D01*
X043815Y042004D01*
X043847Y042004D01*
X043785Y042085D01*
X043701Y042149D01*
X043604Y042189D01*
X04355Y042196D01*
D02*
G37*
G36*
X044899Y042199D02*
X044765D01*
X044767Y042162D01*
X044774Y042134D01*
X044781Y042114D01*
X044789Y042102D01*
X044798Y042098D01*
X04455D01*
Y04185D01*
X044899D01*
Y042199D01*
D02*
G37*
G36*
X044313D02*
X044101D01*
Y042024D01*
X044102Y042024D01*
X044138Y042035D01*
X044166Y042048D01*
X044186Y042063D01*
X044198Y042079D01*
X044202Y042098D01*
Y042001D01*
X044321Y042D01*
X044321Y04185D01*
X04445D01*
Y042098D01*
X044202D01*
X04423Y042102D01*
X044255Y042114D01*
X044277Y042134D01*
X044297Y042162D01*
X044313Y042198D01*
X044313Y042199D01*
D02*
G37*
G36*
X02435Y042196D02*
Y04185D01*
X024696D01*
X024689Y041904D01*
X024649Y042001D01*
X024585Y042085D01*
X024501Y042149D01*
X024404Y042189D01*
X02435Y042196D01*
D02*
G37*
G36*
X02425Y042196D02*
X024196Y042189D01*
X024099Y042149D01*
X024015Y042085D01*
X023951Y042001D01*
X023911Y041904D01*
X023904Y04185D01*
X02425D01*
Y042196D01*
D02*
G37*
G36*
X04345Y042196D02*
X043396Y042189D01*
X043299Y042149D01*
X043215Y042085D01*
X043151Y042001D01*
X043111Y041904D01*
X043104Y04185D01*
X04345D01*
Y042196D01*
D02*
G37*
G36*
X0445Y0418D02*
D01*
D01*
D01*
D02*
G37*
G36*
X043711Y04175D02*
X04355D01*
Y041675D01*
X043711Y04169D01*
Y04175D01*
D02*
G37*
G36*
X04445Y04175D02*
X044321D01*
X044321Y0416D01*
X044202Y041598D01*
Y041502D01*
X044397D01*
X044399Y04157D01*
X0444Y04168D01*
X04445D01*
Y04175D01*
D02*
G37*
G36*
X043843Y041591D02*
X043746Y041589D01*
X043742Y041482D01*
X043785Y041515D01*
X043843Y041591D01*
D02*
G37*
G36*
X04345Y04175D02*
X043104D01*
X043111Y041696D01*
X043151Y041599D01*
X043215Y041515D01*
X043299Y041451D01*
X043326Y04144D01*
X043321Y041508D01*
X043312Y041543D01*
X043302Y041569D01*
X043291Y041586D01*
X043349Y041589D01*
X04335Y041657D01*
X04345Y041666D01*
Y04175D01*
D02*
G37*
G36*
X02425D02*
X023904D01*
X023911Y041696D01*
X023951Y041599D01*
X024015Y041515D01*
X024099Y041451D01*
X024196Y041411D01*
X02425Y041404D01*
Y04175D01*
D02*
G37*
G36*
X024696D02*
X02435D01*
Y041404D01*
X024404Y041411D01*
X024501Y041451D01*
X024585Y041515D01*
X024649Y041599D01*
X024689Y041696D01*
X024696Y04175D01*
D02*
G37*
G36*
X044899Y04175D02*
X04455D01*
Y04168D01*
X0448D01*
X044783Y041502D01*
X044798D01*
X044798Y041498D01*
X044799Y041486D01*
X044799Y041401D01*
X044899D01*
Y04175D01*
D02*
G37*
G36*
X044101Y041576D02*
Y041401D01*
X044351D01*
X044351Y041402D01*
X044329Y041438D01*
X044303Y041466D01*
X044273Y041486D01*
X04424Y041498D01*
X044202Y041502D01*
X044198Y041521D01*
X044186Y041537D01*
X044166Y041552D01*
X044138Y041565D01*
X044102Y041575D01*
X044101Y041576D01*
D02*
G37*
G36*
X025699Y042199D02*
X024901D01*
Y041401D01*
X025699D01*
Y042199D01*
D02*
G37*
G36*
X043748Y041113D02*
X04375Y041037D01*
X043725Y041034D01*
X043724Y040999D01*
X04355Y041009D01*
Y04085D01*
X043896D01*
X043889Y040904D01*
X043849Y041001D01*
X043785Y041085D01*
X043748Y041113D01*
D02*
G37*
G36*
X044762Y041102D02*
X044746D01*
X044735Y040985D01*
X04455Y041006D01*
Y04085D01*
X044896D01*
X044889Y040904D01*
X044849Y041001D01*
X044785Y041085D01*
X044762Y041102D01*
D02*
G37*
G36*
X02535Y041196D02*
Y04085D01*
X025696D01*
X025689Y040904D01*
X025649Y041001D01*
X025585Y041085D01*
X025501Y041149D01*
X025404Y041189D01*
X02535Y041196D01*
D02*
G37*
G36*
X02435D02*
Y04085D01*
X024696D01*
X024689Y040904D01*
X024649Y041001D01*
X024585Y041085D01*
X024501Y041149D01*
X024404Y041189D01*
X02435Y041196D01*
D02*
G37*
G36*
X04437Y041178D02*
X044299Y041149D01*
X044215Y041085D01*
X044151Y041001D01*
X044111Y040904D01*
X044104Y04085D01*
X04445D01*
Y041017D01*
X044312Y041033D01*
X044329Y041052D01*
X044344Y041081D01*
X044357Y041121D01*
X044368Y041171D01*
X04437Y041178D01*
D02*
G37*
G36*
X02525Y041196D02*
X025196Y041189D01*
X025099Y041149D01*
X025015Y041085D01*
X024951Y041001D01*
X024911Y040904D01*
X024904Y04085D01*
X02525D01*
Y041196D01*
D02*
G37*
G36*
X02425D02*
X024196Y041189D01*
X024099Y041149D01*
X024015Y041085D01*
X023951Y041001D01*
X023911Y040904D01*
X023904Y04085D01*
X02425D01*
Y041196D01*
D02*
G37*
G36*
X043333Y041163D02*
X043299Y041149D01*
X043215Y041085D01*
X043151Y041001D01*
X043111Y040904D01*
X043104Y04085D01*
X04345D01*
Y041002D01*
X04335Y04099D01*
X04335Y04102D01*
X0433Y041023D01*
X04331Y041037D01*
X043318Y041062D01*
X043326Y041099D01*
X043332Y041146D01*
X043333Y041163D01*
D02*
G37*
G36*
X02425Y04075D02*
X023904D01*
X023911Y040696D01*
X023951Y040599D01*
X024015Y040515D01*
X024091Y040457D01*
X024088Y040589D01*
X0241D01*
X0241Y040621D01*
X02425D01*
Y04075D01*
D02*
G37*
G36*
X024696D02*
X02435D01*
Y040621D01*
X0245D01*
X024501Y040589D01*
X024512D01*
X024509Y04058D01*
X024507Y04056D01*
X024504Y040485D01*
X024504Y040453D01*
X024585Y040515D01*
X024649Y040599D01*
X024689Y040696D01*
X024696Y04075D01*
D02*
G37*
G36*
X044896D02*
X04455D01*
Y040404D01*
X044604Y040411D01*
X044701Y040451D01*
X044785Y040515D01*
X044849Y040599D01*
X044889Y040696D01*
X044896Y04075D01*
D02*
G37*
G36*
X04445D02*
X044104D01*
X044111Y040696D01*
X044151Y040599D01*
X044215Y040515D01*
X044299Y040451D01*
X044396Y040411D01*
X04445Y040404D01*
Y04075D01*
D02*
G37*
G36*
X04345Y04075D02*
X043104D01*
X043111Y040696D01*
X043151Y040599D01*
X043215Y040515D01*
X043299Y040451D01*
X043396Y040411D01*
X04345Y040404D01*
Y04075D01*
D02*
G37*
G36*
X02525Y04075D02*
X024904D01*
X024911Y040696D01*
X024951Y040599D01*
X025015Y040515D01*
X025099Y040451D01*
X025196Y040411D01*
X02525Y040404D01*
Y04075D01*
D02*
G37*
G36*
X025696D02*
X02535D01*
Y040404D01*
X025404Y040411D01*
X025501Y040451D01*
X025585Y040515D01*
X025649Y040599D01*
X025689Y040696D01*
X025696Y04075D01*
D02*
G37*
G36*
X043896Y04075D02*
X04355D01*
Y040404D01*
X043604Y040411D01*
X043701Y040451D01*
X043785Y040515D01*
X043849Y040599D01*
X043889Y040696D01*
X043896Y04075D01*
D02*
G37*
G36*
X024509Y040143D02*
X024512Y040011D01*
X0245D01*
X0245Y039979D01*
X02435D01*
Y03985D01*
X024696D01*
X024689Y039904D01*
X024649Y040001D01*
X024585Y040085D01*
X024509Y040143D01*
D02*
G37*
G36*
X024096Y040147D02*
X024015Y040085D01*
X023951Y040001D01*
X023911Y039904D01*
X023904Y03985D01*
X02425D01*
Y039979D01*
X0241D01*
X024099Y040011D01*
X024088D01*
X024091Y04002D01*
X024093Y04004D01*
X024096Y040115D01*
X024096Y040147D01*
D02*
G37*
G36*
X02425Y03975D02*
X023904D01*
X023911Y039696D01*
X023951Y039599D01*
X024015Y039515D01*
X024099Y039451D01*
X024196Y039411D01*
X02425Y039404D01*
Y03975D01*
D02*
G37*
G36*
X024696D02*
X02435D01*
Y039404D01*
X024404Y039411D01*
X024501Y039451D01*
X024585Y039515D01*
X024649Y039599D01*
X024689Y039696D01*
X024696Y03975D01*
D02*
G37*
G36*
X0445Y040203D02*
X044396Y040189D01*
X044299Y040149D01*
X044215Y040085D01*
X044151Y040001D01*
X044111Y039904D01*
X044097Y0398D01*
X044111Y039696D01*
X044151Y039599D01*
X044215Y039515D01*
X044299Y039451D01*
X044396Y039411D01*
X0445Y039397D01*
X044604Y039411D01*
X044701Y039451D01*
X044785Y039515D01*
X044849Y039599D01*
X044889Y039696D01*
X044903Y0398D01*
X044889Y039904D01*
X044849Y040001D01*
X044785Y040085D01*
X044701Y040149D01*
X044604Y040189D01*
X0445Y040203D01*
D02*
G37*
G36*
X0435D02*
X043396Y040189D01*
X043299Y040149D01*
X043215Y040085D01*
X043151Y040001D01*
X043111Y039904D01*
X043097Y0398D01*
X043111Y039696D01*
X043151Y039599D01*
X043215Y039515D01*
X043299Y039451D01*
X043396Y039411D01*
X0435Y039397D01*
X043604Y039411D01*
X043701Y039451D01*
X043785Y039515D01*
X043849Y039599D01*
X043889Y039696D01*
X043903Y0398D01*
X043889Y039904D01*
X043849Y040001D01*
X043785Y040085D01*
X043701Y040149D01*
X043604Y040189D01*
X0435Y040203D01*
D02*
G37*
G36*
X0253Y040203D02*
X025196Y040189D01*
X025099Y040149D01*
X025015Y040085D01*
X024951Y040001D01*
X024911Y039904D01*
X024897Y0398D01*
X024911Y039696D01*
X024951Y039599D01*
X025015Y039515D01*
X025099Y039451D01*
X025196Y039411D01*
X0253Y039397D01*
X025404Y039411D01*
X025501Y039451D01*
X025585Y039515D01*
X025649Y039599D01*
X025689Y039696D01*
X025703Y0398D01*
X025689Y039904D01*
X025649Y040001D01*
X025585Y040085D01*
X025501Y040149D01*
X025404Y040189D01*
X0253Y040203D01*
D02*
G37*
G36*
X0445Y039203D02*
X044396Y039189D01*
X044299Y039149D01*
X044215Y039085D01*
X044151Y039001D01*
X044111Y038904D01*
X044097Y0388D01*
X044111Y038696D01*
X044151Y038599D01*
X044215Y038515D01*
X044299Y038451D01*
X044396Y038411D01*
X0445Y038397D01*
X044604Y038411D01*
X044701Y038451D01*
X044785Y038515D01*
X044849Y038599D01*
X044889Y038696D01*
X044903Y0388D01*
X044889Y038904D01*
X044849Y039001D01*
X044785Y039085D01*
X044701Y039149D01*
X044604Y039189D01*
X0445Y039203D01*
D02*
G37*
G36*
X0435D02*
X043396Y039189D01*
X043299Y039149D01*
X043215Y039085D01*
X043151Y039001D01*
X043111Y038904D01*
X043097Y0388D01*
X043111Y038696D01*
X043151Y038599D01*
X043215Y038515D01*
X043299Y038451D01*
X043396Y038411D01*
X0435Y038397D01*
X043604Y038411D01*
X043701Y038451D01*
X043785Y038515D01*
X043849Y038599D01*
X043889Y038696D01*
X043903Y0388D01*
X043889Y038904D01*
X043849Y039001D01*
X043785Y039085D01*
X043701Y039149D01*
X043604Y039189D01*
X0435Y039203D01*
D02*
G37*
G36*
X0243Y039203D02*
X024196Y039189D01*
X024099Y039149D01*
X024015Y039085D01*
X023951Y039001D01*
X023911Y038904D01*
X023897Y0388D01*
X023911Y038696D01*
X023951Y038599D01*
X024015Y038515D01*
X024099Y038451D01*
X024196Y038411D01*
X0243Y038397D01*
X024404Y038411D01*
X024501Y038451D01*
X024585Y038515D01*
X024649Y038599D01*
X024689Y038696D01*
X024703Y0388D01*
X024689Y038904D01*
X024649Y039001D01*
X024585Y039085D01*
X024501Y039149D01*
X024404Y039189D01*
X0243Y039203D01*
D02*
G37*
G36*
X0253Y039203D02*
X025196Y039189D01*
X025099Y039149D01*
X025015Y039085D01*
X024951Y039001D01*
X024911Y038904D01*
X024897Y0388D01*
X024911Y038696D01*
X024951Y038599D01*
X025015Y038515D01*
X025099Y038451D01*
X025196Y038411D01*
X0253Y038397D01*
X025404Y038411D01*
X025501Y038451D01*
X025585Y038515D01*
X025649Y038599D01*
X025689Y038696D01*
X025703Y0388D01*
X025689Y038904D01*
X025649Y039001D01*
X025585Y039085D01*
X025501Y039149D01*
X025404Y039189D01*
X0253Y039203D01*
D02*
G37*
G36*
X0445Y038203D02*
X044396Y038189D01*
X044299Y038149D01*
X044215Y038085D01*
X044151Y038001D01*
X044111Y037904D01*
X044097Y0378D01*
X044111Y037696D01*
X044151Y037599D01*
X044215Y037515D01*
X044299Y037451D01*
X044396Y037411D01*
X0445Y037397D01*
X044604Y037411D01*
X044701Y037451D01*
X044785Y037515D01*
X044849Y037599D01*
X044889Y037696D01*
X044903Y0378D01*
X044889Y037904D01*
X044849Y038001D01*
X044785Y038085D01*
X044701Y038149D01*
X044604Y038189D01*
X0445Y038203D01*
D02*
G37*
G36*
X0435D02*
X043396Y038189D01*
X043299Y038149D01*
X043215Y038085D01*
X043151Y038001D01*
X043111Y037904D01*
X043097Y0378D01*
X043111Y037696D01*
X043151Y037599D01*
X043215Y037515D01*
X043299Y037451D01*
X043396Y037411D01*
X0435Y037397D01*
X043604Y037411D01*
X043701Y037451D01*
X043785Y037515D01*
X043849Y037599D01*
X043889Y037696D01*
X043903Y0378D01*
X043889Y037904D01*
X043849Y038001D01*
X043785Y038085D01*
X043701Y038149D01*
X043604Y038189D01*
X0435Y038203D01*
D02*
G37*
G36*
X0253D02*
X025196Y038189D01*
X025099Y038149D01*
X025015Y038085D01*
X024951Y038001D01*
X024911Y037904D01*
X024897Y0378D01*
X024911Y037696D01*
X024951Y037599D01*
X025015Y037515D01*
X025099Y037451D01*
X025196Y037411D01*
X0253Y037397D01*
X025404Y037411D01*
X025501Y037451D01*
X025585Y037515D01*
X025649Y037599D01*
X025689Y037696D01*
X025703Y0378D01*
X025689Y037904D01*
X025649Y038001D01*
X025585Y038085D01*
X025501Y038149D01*
X025404Y038189D01*
X0253Y038203D01*
D02*
G37*
G36*
X0243Y038203D02*
X024196Y038189D01*
X024099Y038149D01*
X024015Y038085D01*
X023951Y038001D01*
X023911Y037904D01*
X023897Y0378D01*
X023911Y037696D01*
X023951Y037599D01*
X024015Y037515D01*
X024099Y037451D01*
X024196Y037411D01*
X0243Y037397D01*
X024404Y037411D01*
X024501Y037451D01*
X024585Y037515D01*
X024649Y037599D01*
X024689Y037696D01*
X024703Y0378D01*
X024689Y037904D01*
X024649Y038001D01*
X024585Y038085D01*
X024501Y038149D01*
X024404Y038189D01*
X0243Y038203D01*
D02*
G37*
G36*
X0435Y037203D02*
X043396Y037189D01*
X043299Y037149D01*
X043215Y037085D01*
X043151Y037001D01*
X043111Y036904D01*
X043097Y0368D01*
X043111Y036696D01*
X043151Y036599D01*
X043215Y036515D01*
X043299Y036451D01*
X043396Y036411D01*
X0435Y036397D01*
X043604Y036411D01*
X043701Y036451D01*
X043785Y036515D01*
X043849Y036599D01*
X043889Y036696D01*
X043903Y0368D01*
X043889Y036904D01*
X043849Y037001D01*
X043785Y037085D01*
X043701Y037149D01*
X043604Y037189D01*
X0435Y037203D01*
D02*
G37*
G36*
X0445Y037203D02*
X044396Y037189D01*
X044299Y037149D01*
X044215Y037085D01*
X044151Y037001D01*
X044111Y036904D01*
X044097Y0368D01*
X044111Y036696D01*
X044151Y036599D01*
X044215Y036515D01*
X044299Y036451D01*
X044396Y036411D01*
X0445Y036397D01*
X044604Y036411D01*
X044701Y036451D01*
X044785Y036515D01*
X044849Y036599D01*
X044889Y036696D01*
X044903Y0368D01*
X044889Y036904D01*
X044849Y037001D01*
X044785Y037085D01*
X044701Y037149D01*
X044604Y037189D01*
X0445Y037203D01*
D02*
G37*
G36*
X0253D02*
X025196Y037189D01*
X025099Y037149D01*
X025015Y037085D01*
X024951Y037001D01*
X024911Y036904D01*
X024897Y0368D01*
X024911Y036696D01*
X024951Y036599D01*
X025015Y036515D01*
X025099Y036451D01*
X025196Y036411D01*
X0253Y036397D01*
X025404Y036411D01*
X025501Y036451D01*
X025585Y036515D01*
X025649Y036599D01*
X025689Y036696D01*
X025703Y0368D01*
X025689Y036904D01*
X025649Y037001D01*
X025585Y037085D01*
X025501Y037149D01*
X025404Y037189D01*
X0253Y037203D01*
D02*
G37*
G36*
X0243D02*
X024196Y037189D01*
X024099Y037149D01*
X024015Y037085D01*
X023951Y037001D01*
X023911Y036904D01*
X023897Y0368D01*
X023911Y036696D01*
X023951Y036599D01*
X024015Y036515D01*
X024099Y036451D01*
X024196Y036411D01*
X0243Y036397D01*
X024404Y036411D01*
X024501Y036451D01*
X024585Y036515D01*
X024649Y036599D01*
X024689Y036696D01*
X024703Y0368D01*
X024689Y036904D01*
X024649Y037001D01*
X024585Y037085D01*
X024501Y037149D01*
X024404Y037189D01*
X0243Y037203D01*
D02*
G37*
G36*
X0445Y036203D02*
X044396Y036189D01*
X044299Y036149D01*
X044215Y036085D01*
X044151Y036001D01*
X044111Y035904D01*
X044097Y0358D01*
X044111Y035696D01*
X044151Y035599D01*
X044215Y035515D01*
X044299Y035451D01*
X044396Y035411D01*
X0445Y035397D01*
X044604Y035411D01*
X044701Y035451D01*
X044785Y035515D01*
X044849Y035599D01*
X044889Y035696D01*
X044903Y0358D01*
X044889Y035904D01*
X044849Y036001D01*
X044785Y036085D01*
X044701Y036149D01*
X044604Y036189D01*
X0445Y036203D01*
D02*
G37*
G36*
X0435Y036203D02*
X043396Y036189D01*
X043299Y036149D01*
X043215Y036085D01*
X043151Y036001D01*
X043111Y035904D01*
X043097Y0358D01*
X043111Y035696D01*
X043151Y035599D01*
X043215Y035515D01*
X043299Y035451D01*
X043396Y035411D01*
X0435Y035397D01*
X043604Y035411D01*
X043701Y035451D01*
X043785Y035515D01*
X043849Y035599D01*
X043889Y035696D01*
X043903Y0358D01*
X043889Y035904D01*
X043849Y036001D01*
X043785Y036085D01*
X043701Y036149D01*
X043604Y036189D01*
X0435Y036203D01*
D02*
G37*
G36*
X0253D02*
X025196Y036189D01*
X025099Y036149D01*
X025015Y036085D01*
X024951Y036001D01*
X024911Y035904D01*
X024897Y0358D01*
X024911Y035696D01*
X024951Y035599D01*
X025015Y035515D01*
X025099Y035451D01*
X025196Y035411D01*
X0253Y035397D01*
X025404Y035411D01*
X025501Y035451D01*
X025585Y035515D01*
X025649Y035599D01*
X025689Y035696D01*
X025703Y0358D01*
X025689Y035904D01*
X025649Y036001D01*
X025585Y036085D01*
X025501Y036149D01*
X025404Y036189D01*
X0253Y036203D01*
D02*
G37*
G36*
X0243D02*
X024196Y036189D01*
X024099Y036149D01*
X024015Y036085D01*
X023951Y036001D01*
X023911Y035904D01*
X023897Y0358D01*
X023911Y035696D01*
X023951Y035599D01*
X024015Y035515D01*
X024099Y035451D01*
X024196Y035411D01*
X0243Y035397D01*
X024404Y035411D01*
X024501Y035451D01*
X024585Y035515D01*
X024649Y035599D01*
X024689Y035696D01*
X024703Y0358D01*
X024689Y035904D01*
X024649Y036001D01*
X024585Y036085D01*
X024501Y036149D01*
X024404Y036189D01*
X0243Y036203D01*
D02*
G37*
G36*
X0445Y035203D02*
X044396Y035189D01*
X044299Y035149D01*
X044215Y035085D01*
X044151Y035001D01*
X044111Y034904D01*
X044097Y0348D01*
X044111Y034696D01*
X044151Y034599D01*
X044215Y034515D01*
X044299Y034451D01*
X044396Y034411D01*
X0445Y034397D01*
X044604Y034411D01*
X044701Y034451D01*
X044785Y034515D01*
X044849Y034599D01*
X044889Y034696D01*
X044903Y0348D01*
X044889Y034904D01*
X044849Y035001D01*
X044785Y035085D01*
X044701Y035149D01*
X044604Y035189D01*
X0445Y035203D01*
D02*
G37*
G36*
X0435D02*
X043396Y035189D01*
X043299Y035149D01*
X043215Y035085D01*
X043151Y035001D01*
X043111Y034904D01*
X043097Y0348D01*
X043111Y034696D01*
X043151Y034599D01*
X043215Y034515D01*
X043299Y034451D01*
X043396Y034411D01*
X0435Y034397D01*
X043604Y034411D01*
X043701Y034451D01*
X043785Y034515D01*
X043849Y034599D01*
X043889Y034696D01*
X043903Y0348D01*
X043889Y034904D01*
X043849Y035001D01*
X043785Y035085D01*
X043701Y035149D01*
X043604Y035189D01*
X0435Y035203D01*
D02*
G37*
G36*
X0253Y035203D02*
X025196Y035189D01*
X025099Y035149D01*
X025015Y035085D01*
X024951Y035001D01*
X024911Y034904D01*
X024897Y0348D01*
X024911Y034696D01*
X024951Y034599D01*
X025015Y034515D01*
X025099Y034451D01*
X025196Y034411D01*
X0253Y034397D01*
X025404Y034411D01*
X025501Y034451D01*
X025585Y034515D01*
X025649Y034599D01*
X025689Y034696D01*
X025703Y0348D01*
X025689Y034904D01*
X025649Y035001D01*
X025585Y035085D01*
X025501Y035149D01*
X025404Y035189D01*
X0253Y035203D01*
D02*
G37*
G36*
X0243D02*
X024196Y035189D01*
X024099Y035149D01*
X024015Y035085D01*
X023951Y035001D01*
X023911Y034904D01*
X023897Y0348D01*
X023911Y034696D01*
X023951Y034599D01*
X024015Y034515D01*
X024099Y034451D01*
X024196Y034411D01*
X0243Y034397D01*
X024404Y034411D01*
X024501Y034451D01*
X024585Y034515D01*
X024649Y034599D01*
X024689Y034696D01*
X024703Y0348D01*
X024689Y034904D01*
X024649Y035001D01*
X024585Y035085D01*
X024501Y035149D01*
X024404Y035189D01*
X0243Y035203D01*
D02*
G37*
G36*
X0445Y034203D02*
X044396Y034189D01*
X044299Y034149D01*
X044215Y034085D01*
X044151Y034001D01*
X044111Y033904D01*
X044097Y0338D01*
X044111Y033696D01*
X044151Y033599D01*
X044215Y033515D01*
X044299Y033451D01*
X044396Y033411D01*
X0445Y033397D01*
X044604Y033411D01*
X044701Y033451D01*
X044785Y033515D01*
X044849Y033599D01*
X044889Y033696D01*
X044903Y0338D01*
X044889Y033904D01*
X044849Y034001D01*
X044785Y034085D01*
X044701Y034149D01*
X044604Y034189D01*
X0445Y034203D01*
D02*
G37*
G36*
X0435D02*
X043396Y034189D01*
X043299Y034149D01*
X043215Y034085D01*
X043151Y034001D01*
X043111Y033904D01*
X043097Y0338D01*
X043111Y033696D01*
X043151Y033599D01*
X043215Y033515D01*
X043299Y033451D01*
X043396Y033411D01*
X0435Y033397D01*
X043604Y033411D01*
X043701Y033451D01*
X043785Y033515D01*
X043849Y033599D01*
X043889Y033696D01*
X043903Y0338D01*
X043889Y033904D01*
X043849Y034001D01*
X043785Y034085D01*
X043701Y034149D01*
X043604Y034189D01*
X0435Y034203D01*
D02*
G37*
G36*
X0243Y034203D02*
X024196Y034189D01*
X024099Y034149D01*
X024015Y034085D01*
X023951Y034001D01*
X023911Y033904D01*
X023897Y0338D01*
X023911Y033696D01*
X023951Y033599D01*
X024015Y033515D01*
X024099Y033451D01*
X024196Y033411D01*
X0243Y033397D01*
X024404Y033411D01*
X024501Y033451D01*
X024585Y033515D01*
X024649Y033599D01*
X024689Y033696D01*
X024703Y0338D01*
X024689Y033904D01*
X024649Y034001D01*
X024585Y034085D01*
X024501Y034149D01*
X024404Y034189D01*
X0243Y034203D01*
D02*
G37*
G36*
X0253Y034203D02*
X025196Y034189D01*
X025099Y034149D01*
X025015Y034085D01*
X024951Y034001D01*
X024911Y033904D01*
X024897Y0338D01*
X024911Y033696D01*
X024951Y033599D01*
X025015Y033515D01*
X025099Y033451D01*
X025196Y033411D01*
X0253Y033397D01*
X025404Y033411D01*
X025501Y033451D01*
X025585Y033515D01*
X025649Y033599D01*
X025689Y033696D01*
X025703Y0338D01*
X025689Y033904D01*
X025649Y034001D01*
X025585Y034085D01*
X025501Y034149D01*
X025404Y034189D01*
X0253Y034203D01*
D02*
G37*
G36*
X0412Y040549D02*
X041123Y040539D01*
X04105Y040509D01*
X040988Y040462D01*
X040941Y0404D01*
X040928Y04037D01*
X040918Y040355D01*
X040915Y040336D01*
X040911Y040327D01*
X040901Y04025D01*
X040907Y040199D01*
Y033414D01*
X040888Y033398D01*
X040858Y033375D01*
X04083Y033355D01*
X040802Y033338D01*
X040775Y033325D01*
X040748Y033314D01*
X040723Y033306D01*
X040699Y033301D01*
X04067Y033298D01*
X040662Y033295D01*
X040619Y033289D01*
X040547Y033259D01*
X040485Y033212D01*
X040438Y03315D01*
X040408Y033077D01*
X040397Y033D01*
X040408Y032923D01*
X040438Y03285D01*
X040485Y032788D01*
X040547Y032741D01*
X040619Y032711D01*
X040697Y032701D01*
X040774Y032711D01*
X040847Y032741D01*
X040909Y032788D01*
X040956Y03285D01*
X040986Y032923D01*
X040992Y032965D01*
X040994Y032973D01*
X040998Y033002D01*
X041003Y033026D01*
X041011Y033052D01*
X041022Y033078D01*
X041035Y033105D01*
X041052Y033133D01*
X041071Y03316D01*
X041122Y033223D01*
X041127Y033229D01*
X041151Y033252D01*
X041151Y033252D01*
X041182Y033299D01*
X041193Y033353D01*
X041193Y033353D01*
Y03971D01*
X041194Y039735D01*
X041199Y039773D01*
X041207Y039809D01*
X041218Y039841D01*
X041233Y039871D01*
X04125Y039899D01*
X041271Y039925D01*
X041295Y03995D01*
X041323Y039973D01*
X041349Y03999D01*
X04135Y039991D01*
X041351Y039992D01*
X041359Y039997D01*
X041362Y04D01*
X041412Y040038D01*
X041459Y0401D01*
X041489Y040173D01*
X041499Y04025D01*
X041489Y040327D01*
X041459Y0404D01*
X041412Y040462D01*
X04135Y040509D01*
X041277Y040539D01*
X0412Y040549D01*
D02*
G37*
G36*
X0445Y033203D02*
X044396Y033189D01*
X044299Y033149D01*
X044215Y033085D01*
X044151Y033001D01*
X044111Y032904D01*
X044097Y0328D01*
X044111Y032696D01*
X044151Y032599D01*
X044215Y032515D01*
X044299Y032451D01*
X044396Y032411D01*
X0445Y032397D01*
X044604Y032411D01*
X044701Y032451D01*
X044785Y032515D01*
X044849Y032599D01*
X044889Y032696D01*
X044903Y0328D01*
X044889Y032904D01*
X044849Y033001D01*
X044785Y033085D01*
X044701Y033149D01*
X044604Y033189D01*
X0445Y033203D01*
D02*
G37*
G36*
X0435D02*
X043396Y033189D01*
X043299Y033149D01*
X043215Y033085D01*
X043151Y033001D01*
X043111Y032904D01*
X043097Y0328D01*
X043111Y032696D01*
X043151Y032599D01*
X043215Y032515D01*
X043299Y032451D01*
X043396Y032411D01*
X0435Y032397D01*
X043604Y032411D01*
X043701Y032451D01*
X043785Y032515D01*
X043849Y032599D01*
X043889Y032696D01*
X043903Y0328D01*
X043889Y032904D01*
X043849Y033001D01*
X043785Y033085D01*
X043701Y033149D01*
X043604Y033189D01*
X0435Y033203D01*
D02*
G37*
G36*
X0253Y033203D02*
X025196Y033189D01*
X025099Y033149D01*
X025015Y033085D01*
X024951Y033001D01*
X024911Y032904D01*
X024897Y0328D01*
X024911Y032696D01*
X024951Y032599D01*
X025015Y032515D01*
X025099Y032451D01*
X025196Y032411D01*
X0253Y032397D01*
X025404Y032411D01*
X025501Y032451D01*
X025585Y032515D01*
X025649Y032599D01*
X025689Y032696D01*
X025703Y0328D01*
X025689Y032904D01*
X025649Y033001D01*
X025585Y033085D01*
X025501Y033149D01*
X025404Y033189D01*
X0253Y033203D01*
D02*
G37*
G36*
X0243D02*
X024196Y033189D01*
X024099Y033149D01*
X024015Y033085D01*
X023951Y033001D01*
X023911Y032904D01*
X023897Y0328D01*
X023911Y032696D01*
X023951Y032599D01*
X024015Y032515D01*
X024099Y032451D01*
X024196Y032411D01*
X0243Y032397D01*
X024404Y032411D01*
X024501Y032451D01*
X024585Y032515D01*
X024649Y032599D01*
X024689Y032696D01*
X024703Y0328D01*
X024689Y032904D01*
X024649Y033001D01*
X024585Y033085D01*
X024501Y033149D01*
X024404Y033189D01*
X0243Y033203D01*
D02*
G37*
G36*
X026407Y032267D02*
X025893D01*
Y032002D01*
X025873Y031974D01*
X025862Y031967D01*
X025841Y031961D01*
X02584Y031961D01*
X02581Y031967D01*
X025763Y031981D01*
X02572Y031997D01*
X02568Y032017D01*
X025643Y032039D01*
X025608Y032063D01*
X025587Y032082D01*
X025585Y032085D01*
X025574Y032093D01*
X025573Y032094D01*
X025573Y032094D01*
X025501Y032149D01*
X025404Y032189D01*
X0253Y032203D01*
X025196Y032189D01*
X025099Y032149D01*
X025015Y032085D01*
X024951Y032001D01*
X024911Y031904D01*
X024897Y0318D01*
X024911Y031696D01*
X024951Y031599D01*
X025015Y031515D01*
X025099Y031451D01*
X025119Y031443D01*
X025109Y031393D01*
X02475D01*
X02475Y031393D01*
X024695Y031382D01*
X024649Y031351D01*
X024649Y031351D01*
X024625Y031327D01*
X024611Y031313D01*
X024574Y031282D01*
X02454Y031255D01*
X024507Y031233D01*
X024478Y031217D01*
X024451Y031205D01*
X024428Y031197D01*
X024407Y031194D01*
X02439Y031193D01*
X024367Y031195D01*
X024361Y031195D01*
X024356Y031196D01*
X024354Y031196D01*
X0243Y031203D01*
X024196Y031189D01*
X024099Y031149D01*
X024015Y031085D01*
X023951Y031001D01*
X023911Y030904D01*
X023897Y0308D01*
X023911Y030696D01*
X023951Y030599D01*
X024015Y030515D01*
X024099Y030451D01*
X024196Y030411D01*
X0243Y030397D01*
X024404Y030411D01*
X024501Y030451D01*
X024585Y030515D01*
X024649Y030599D01*
X024689Y030696D01*
X024703Y0308D01*
X024696Y030854D01*
X024696Y030856D01*
X024695Y030861D01*
X024695Y030866D01*
X024693Y03089D01*
X024694Y030907D01*
X024697Y030928D01*
X024705Y030951D01*
X024717Y030978D01*
X024733Y031007D01*
X024754Y031038D01*
X024811Y031107D01*
X02497D01*
X024994Y031057D01*
X024951Y031001D01*
X024911Y030904D01*
X024897Y0308D01*
X024911Y030696D01*
X024951Y030599D01*
X025015Y030515D01*
X025099Y030451D01*
X025196Y030411D01*
X0253Y030397D01*
X025404Y030411D01*
X025501Y030451D01*
X025585Y030515D01*
X025649Y030599D01*
X025689Y030696D01*
X025703Y0308D01*
X025689Y030904D01*
X025649Y031001D01*
X025606Y031057D01*
X02563Y031107D01*
X025888D01*
X02589Y031095D01*
X025892Y031074D01*
X025893Y031065D01*
Y030933D01*
X026407D01*
Y031567D01*
X025893D01*
Y031435D01*
X025892Y031426D01*
X02589Y031405D01*
X025888Y031393D01*
X025491D01*
X025481Y031443D01*
X025501Y031451D01*
X025573Y031506D01*
X025573Y031506D01*
X025574Y031507D01*
X025585Y031515D01*
X025587Y031518D01*
X025608Y031537D01*
X025643Y031561D01*
X02568Y031583D01*
X02572Y031603D01*
X025763Y031619D01*
X02581Y031633D01*
X025843Y03164D01*
X025893Y031633D01*
X025893Y031633D01*
X02599D01*
X025993Y031633D01*
X025997Y031633D01*
X026407D01*
Y032267D01*
D02*
G37*
G36*
X0445Y032203D02*
X044396Y032189D01*
X044299Y032149D01*
X044215Y032085D01*
X044151Y032001D01*
X044111Y031904D01*
X044097Y0318D01*
X044111Y031696D01*
X044151Y031599D01*
X044215Y031515D01*
X044299Y031451D01*
X044396Y031411D01*
X0445Y031397D01*
X044604Y031411D01*
X044701Y031451D01*
X044785Y031515D01*
X044849Y031599D01*
X044889Y031696D01*
X044903Y0318D01*
X044889Y031904D01*
X044849Y032001D01*
X044785Y032085D01*
X044701Y032149D01*
X044604Y032189D01*
X0445Y032203D01*
D02*
G37*
G36*
X0435Y032203D02*
X043396Y032189D01*
X043299Y032149D01*
X043215Y032085D01*
X043151Y032001D01*
X043111Y031904D01*
X043097Y0318D01*
X043111Y031696D01*
X043151Y031599D01*
X043215Y031515D01*
X043299Y031451D01*
X043396Y031411D01*
X0435Y031397D01*
X043604Y031411D01*
X043701Y031451D01*
X043785Y031515D01*
X043849Y031599D01*
X043889Y031696D01*
X043903Y0318D01*
X043889Y031904D01*
X043849Y032001D01*
X043785Y032085D01*
X043701Y032149D01*
X043604Y032189D01*
X0435Y032203D01*
D02*
G37*
G36*
X0243D02*
X024196Y032189D01*
X024099Y032149D01*
X024015Y032085D01*
X023951Y032001D01*
X023911Y031904D01*
X023897Y0318D01*
X023911Y031696D01*
X023951Y031599D01*
X024015Y031515D01*
X024099Y031451D01*
X024196Y031411D01*
X0243Y031397D01*
X024404Y031411D01*
X024501Y031451D01*
X024585Y031515D01*
X024649Y031599D01*
X024689Y031696D01*
X024703Y0318D01*
X024689Y031904D01*
X024649Y032001D01*
X024585Y032085D01*
X024501Y032149D01*
X024404Y032189D01*
X0243Y032203D01*
D02*
G37*
G36*
X0445Y031203D02*
X044396Y031189D01*
X044299Y031149D01*
X044215Y031085D01*
X044151Y031001D01*
X044111Y030904D01*
X044097Y0308D01*
X044111Y030696D01*
X044151Y030599D01*
X044215Y030515D01*
X044299Y030451D01*
X044396Y030411D01*
X0445Y030397D01*
X044604Y030411D01*
X044701Y030451D01*
X044785Y030515D01*
X044849Y030599D01*
X044889Y030696D01*
X044903Y0308D01*
X044889Y030904D01*
X044849Y031001D01*
X044785Y031085D01*
X044701Y031149D01*
X044604Y031189D01*
X0445Y031203D01*
D02*
G37*
G36*
X0435D02*
X043396Y031189D01*
X043299Y031149D01*
X043215Y031085D01*
X043151Y031001D01*
X043111Y030904D01*
X043097Y0308D01*
X043111Y030696D01*
X043151Y030599D01*
X043215Y030515D01*
X043299Y030451D01*
X043396Y030411D01*
X0435Y030397D01*
X043604Y030411D01*
X043701Y030451D01*
X043785Y030515D01*
X043849Y030599D01*
X043889Y030696D01*
X043903Y0308D01*
X043889Y030904D01*
X043849Y031001D01*
X043785Y031085D01*
X043701Y031149D01*
X043604Y031189D01*
X0435Y031203D01*
D02*
G37*
G36*
X0445Y030203D02*
X044396Y030189D01*
X044299Y030149D01*
X044215Y030085D01*
X044151Y030001D01*
X044111Y029904D01*
X044097Y0298D01*
X044111Y029696D01*
X044151Y029599D01*
X044215Y029515D01*
X044299Y029451D01*
X044396Y029411D01*
X0445Y029397D01*
X044604Y029411D01*
X044701Y029451D01*
X044785Y029515D01*
X044849Y029599D01*
X044889Y029696D01*
X044903Y0298D01*
X044889Y029904D01*
X044849Y030001D01*
X044785Y030085D01*
X044701Y030149D01*
X044604Y030189D01*
X0445Y030203D01*
D02*
G37*
G36*
X0435D02*
X043396Y030189D01*
X043299Y030149D01*
X043215Y030085D01*
X043151Y030001D01*
X043111Y029904D01*
X043097Y0298D01*
X043111Y029696D01*
X043151Y029599D01*
X043215Y029515D01*
X043299Y029451D01*
X043396Y029411D01*
X0435Y029397D01*
X043604Y029411D01*
X043701Y029451D01*
X043785Y029515D01*
X043849Y029599D01*
X043889Y029696D01*
X043903Y0298D01*
X043889Y029904D01*
X043849Y030001D01*
X043785Y030085D01*
X043701Y030149D01*
X043604Y030189D01*
X0435Y030203D01*
D02*
G37*
G36*
X0253Y030203D02*
X025196Y030189D01*
X025099Y030149D01*
X025015Y030085D01*
X024951Y030001D01*
X024911Y029904D01*
X024897Y0298D01*
X024911Y029696D01*
X024951Y029599D01*
X025015Y029515D01*
X025099Y029451D01*
X025196Y029411D01*
X0253Y029397D01*
X025404Y029411D01*
X025501Y029451D01*
X025585Y029515D01*
X025649Y029599D01*
X025689Y029696D01*
X025703Y0298D01*
X025689Y029904D01*
X025649Y030001D01*
X025585Y030085D01*
X025501Y030149D01*
X025404Y030189D01*
X0253Y030203D01*
D02*
G37*
G36*
X0243D02*
X024196Y030189D01*
X024099Y030149D01*
X024015Y030085D01*
X023951Y030001D01*
X023911Y029904D01*
X023897Y0298D01*
X023911Y029696D01*
X023951Y029599D01*
X024015Y029515D01*
X024099Y029451D01*
X024196Y029411D01*
X0243Y029397D01*
X024404Y029411D01*
X024501Y029451D01*
X024585Y029515D01*
X024649Y029599D01*
X024689Y029696D01*
X024703Y0298D01*
X024689Y029904D01*
X024649Y030001D01*
X024585Y030085D01*
X024501Y030149D01*
X024404Y030189D01*
X0243Y030203D01*
D02*
G37*
G36*
X04455Y029196D02*
Y02885D01*
X044896D01*
X044889Y028904D01*
X044849Y029001D01*
X044785Y029085D01*
X044701Y029149D01*
X044604Y029189D01*
X04455Y029196D01*
D02*
G37*
G36*
X04445D02*
X044396Y029189D01*
X044299Y029149D01*
X044215Y029085D01*
X044151Y029001D01*
X044111Y028904D01*
X044104Y02885D01*
X04445D01*
Y029196D01*
D02*
G37*
G36*
X044896Y02875D02*
X04455D01*
Y028404D01*
X044604Y028411D01*
X044701Y028451D01*
X044785Y028515D01*
X044849Y028599D01*
X044889Y028696D01*
X044896Y02875D01*
D02*
G37*
G36*
X04445D02*
X044104D01*
X044111Y028696D01*
X044151Y028599D01*
X044215Y028515D01*
X044299Y028451D01*
X044396Y028411D01*
X04445Y028404D01*
Y02875D01*
D02*
G37*
G36*
X0435Y029203D02*
X043396Y029189D01*
X043299Y029149D01*
X043215Y029085D01*
X043151Y029001D01*
X043111Y028904D01*
X043097Y0288D01*
X043111Y028696D01*
X043151Y028599D01*
X043215Y028515D01*
X043299Y028451D01*
X043396Y028411D01*
X0435Y028397D01*
X043604Y028411D01*
X043701Y028451D01*
X043785Y028515D01*
X043849Y028599D01*
X043889Y028696D01*
X043903Y0288D01*
X043889Y028904D01*
X043849Y029001D01*
X043785Y029085D01*
X043701Y029149D01*
X043604Y029189D01*
X0435Y029203D01*
D02*
G37*
G36*
X0253D02*
X025196Y029189D01*
X025099Y029149D01*
X025015Y029085D01*
X024951Y029001D01*
X024911Y028904D01*
X024897Y0288D01*
X024911Y028696D01*
X024951Y028599D01*
X025015Y028515D01*
X025099Y028451D01*
X025196Y028411D01*
X0253Y028397D01*
X025404Y028411D01*
X025501Y028451D01*
X025585Y028515D01*
X025649Y028599D01*
X025689Y028696D01*
X025703Y0288D01*
X025689Y028904D01*
X025649Y029001D01*
X025585Y029085D01*
X025501Y029149D01*
X025404Y029189D01*
X0253Y029203D01*
D02*
G37*
G36*
X0243Y029203D02*
X024196Y029189D01*
X024099Y029149D01*
X024015Y029085D01*
X023951Y029001D01*
X023911Y028904D01*
X023897Y0288D01*
X023911Y028696D01*
X023951Y028599D01*
X024015Y028515D01*
X024099Y028451D01*
X024196Y028411D01*
X0243Y028397D01*
X024404Y028411D01*
X024501Y028451D01*
X024585Y028515D01*
X024649Y028599D01*
X024689Y028696D01*
X024703Y0288D01*
X024689Y028904D01*
X024649Y029001D01*
X024585Y029085D01*
X024501Y029149D01*
X024404Y029189D01*
X0243Y029203D01*
D02*
G37*
G36*
X0291Y029129D02*
X028976Y029113D01*
X02886Y029065D01*
X028761Y028989D01*
X028685Y02889D01*
X028637Y028774D01*
X028621Y02865D01*
X028637Y028526D01*
X028685Y02841D01*
X028761Y028311D01*
X02886Y028235D01*
X028976Y028187D01*
X0291Y028171D01*
X029224Y028187D01*
X02934Y028235D01*
X029439Y028311D01*
X029515Y02841D01*
X029563Y028526D01*
X029579Y02865D01*
X029563Y028774D01*
X029515Y02889D01*
X029439Y028989D01*
X02934Y029065D01*
X029224Y029113D01*
X0291Y029129D01*
D02*
G37*
G36*
X0435Y028203D02*
X043396Y028189D01*
X043299Y028149D01*
X043215Y028085D01*
X043212Y02808D01*
X043189Y028061D01*
X043155Y028038D01*
X043114Y028018D01*
X043064Y027999D01*
X043007Y027982D01*
X042942Y027968D01*
X04287Y027957D01*
X042699Y027944D01*
X042649Y027943D01*
X040464D01*
X040464Y027943D01*
X040409Y027932D01*
X040363Y027901D01*
X040363Y027901D01*
X038562Y0261D01*
X031607D01*
X031553Y026089D01*
X031507Y026058D01*
X031507Y026058D01*
X028949Y023501D01*
X028918Y023455D01*
X028907Y0234D01*
X028907Y0234D01*
Y022962D01*
X028894Y02296D01*
X028874Y022958D01*
X028863Y022957D01*
X028683D01*
Y022443D01*
X029317D01*
Y02285D01*
X029317Y022853D01*
X029317Y022855D01*
X029317Y022857D01*
X029317Y02286D01*
Y022957D01*
X029222D01*
X029219Y022958D01*
X029199Y022959D01*
X029193Y02296D01*
Y023341D01*
X031667Y025815D01*
X031998D01*
X032017Y025769D01*
X029699Y023451D01*
X029668Y023405D01*
X029657Y02335D01*
X029657Y02335D01*
Y022962D01*
X029644Y02296D01*
X029624Y022958D01*
X029613Y022957D01*
X029433D01*
Y022443D01*
X029597D01*
X029599Y02244D01*
X029645Y022409D01*
X0297Y022398D01*
X029755Y022409D01*
X029801Y02244D01*
X029803Y022443D01*
X030033D01*
X030067Y022443D01*
Y022443D01*
X030083D01*
Y022443D01*
X030683D01*
X030717Y022443D01*
Y022443D01*
X030733D01*
Y022443D01*
X031367D01*
Y022848D01*
X031367Y022851D01*
X031367Y022854D01*
X031367Y022857D01*
X031367Y02286D01*
Y022957D01*
X031293D01*
Y023241D01*
X033327Y025275D01*
X033408D01*
X033427Y025229D01*
X031499Y023301D01*
X031468Y023255D01*
X031457Y0232D01*
X031457Y0232D01*
Y020703D01*
X03145Y020697D01*
X031347Y020684D01*
X031251Y020644D01*
X031168Y02058D01*
X031105Y020498D01*
X031065Y020402D01*
X031051Y020298D01*
Y020102D01*
X031065Y019998D01*
X031105Y019902D01*
X031168Y01982D01*
X031251Y019756D01*
X031321Y019727D01*
Y019673D01*
X031251Y019644D01*
X031168Y01958D01*
X031105Y019498D01*
X031065Y019402D01*
X031051Y019298D01*
Y019102D01*
X031065Y018998D01*
X031105Y018902D01*
X031168Y01882D01*
X031251Y018756D01*
X031347Y018716D01*
X03145Y018703D01*
X031553Y018716D01*
X031649Y018756D01*
X031732Y01882D01*
X031795Y018902D01*
X031835Y018998D01*
X031849Y019102D01*
Y019298D01*
X031841Y019354D01*
X031842Y019356D01*
X03184Y019366D01*
X031839Y019374D01*
X031838Y019384D01*
X031837Y019387D01*
X031835Y019402D01*
X031829Y019415D01*
X031827Y019427D01*
X031824Y019444D01*
X031822Y019457D01*
X031822Y019467D01*
X031822Y019468D01*
X032051Y019697D01*
X032051Y019697D01*
X032057Y019706D01*
X032271D01*
X032281Y019656D01*
X032251Y019644D01*
X032168Y01958D01*
X032105Y019498D01*
X032065Y019402D01*
X032051Y019298D01*
Y019102D01*
X032065Y018998D01*
X032105Y018902D01*
X032168Y01882D01*
X032251Y018756D01*
X032347Y018716D01*
X03245Y018703D01*
X032553Y018716D01*
X032649Y018756D01*
X032732Y01882D01*
X032795Y018902D01*
X032817Y018955D01*
X032853Y018986D01*
X03287Y018983D01*
X032887Y018978D01*
X032889Y018979D01*
X032892Y018978D01*
X032909Y018981D01*
X032926Y018984D01*
X032928Y018985D01*
X032931Y018986D01*
X032945Y018995D01*
X03296Y019004D01*
X032962Y019006D01*
X032964Y019008D01*
X032974Y019022D01*
X032984Y019036D01*
X032985Y019039D01*
X032986Y019041D01*
X03299Y019057D01*
X03325D01*
X03325Y019057D01*
X033305Y019068D01*
X033351Y019099D01*
X033501Y019249D01*
X033532Y019295D01*
X033543Y01935D01*
X033543Y01935D01*
Y023095D01*
X034655Y024207D01*
X03619D01*
X036209Y024161D01*
X035637Y023589D01*
X035606Y023543D01*
X035596Y023488D01*
X035596Y023488D01*
Y023386D01*
X035595Y023375D01*
X035588Y023262D01*
X035582Y023216D01*
X035574Y023174D01*
X035565Y023139D01*
X035555Y023111D01*
X035545Y023089D01*
X035535Y023073D01*
X035527Y023064D01*
X035527Y023063D01*
X035524Y023059D01*
X035521Y023056D01*
X03552Y023055D01*
X035479Y023001D01*
X035449Y022929D01*
X035439Y022851D01*
X035449Y022774D01*
X035479Y022702D01*
X035527Y02264D01*
X035589Y022592D01*
X035661Y022562D01*
X035738Y022552D01*
X035816Y022562D01*
X035888Y022592D01*
X03595Y02264D01*
X035998Y022702D01*
X036027Y022774D01*
X036038Y022851D01*
X036027Y022929D01*
X035998Y023001D01*
X035956Y023055D01*
X035956Y023056D01*
X035953Y023059D01*
X03595Y023063D01*
X035949Y023064D01*
X035942Y023073D01*
X035932Y023089D01*
X035922Y023111D01*
X035912Y023139D01*
X035903Y023174D01*
X035895Y023213D01*
X035881Y023376D01*
X035881Y023386D01*
Y023429D01*
X036479Y024027D01*
X036755D01*
X036775Y023977D01*
X036299Y023501D01*
X036268Y023455D01*
X036257Y0234D01*
X036257Y0234D01*
Y022834D01*
X036257Y022823D01*
X03625Y02271D01*
X036243Y022664D01*
X036236Y022623D01*
X036227Y022588D01*
X036217Y022559D01*
X036206Y022537D01*
X036197Y022521D01*
X036189Y022512D01*
X036188Y022512D01*
X036185Y022508D01*
X036183Y022505D01*
X036182Y022504D01*
X036141Y02245D01*
X036111Y022377D01*
X036101Y0223D01*
X036111Y022223D01*
X036141Y02215D01*
X036188Y022088D01*
X03625Y022041D01*
X036323Y022011D01*
X0364Y022001D01*
X036477Y022011D01*
X03655Y022041D01*
X036612Y022088D01*
X036659Y02215D01*
X036689Y022223D01*
X036699Y0223D01*
X036689Y022377D01*
X036659Y02245D01*
X036618Y022504D01*
X036617Y022505D01*
X036615Y022508D01*
X036612Y022512D01*
X036611Y022512D01*
X036603Y022521D01*
X036594Y022537D01*
X036583Y022559D01*
X036573Y022588D01*
X036564Y022623D01*
X036557Y022662D01*
X036543Y022825D01*
X036543Y022834D01*
Y023341D01*
X036757Y023556D01*
X036805Y023532D01*
X036801Y0235D01*
X036811Y023423D01*
X036841Y02335D01*
X036882Y023296D01*
X036883Y023295D01*
X036885Y023292D01*
X036888Y023288D01*
X036889Y023288D01*
X036897Y023279D01*
X036906Y023263D01*
X036917Y023241D01*
X036927Y023212D01*
X036928Y023208D01*
X036927Y023202D01*
X036926Y023198D01*
X036895Y02316D01*
X036888Y023157D01*
X036783D01*
Y022643D01*
X037417D01*
Y023157D01*
X037312D01*
X037305Y02316D01*
X037274Y023198D01*
X037273Y023202D01*
X037272Y023208D01*
X037273Y023212D01*
X037283Y023241D01*
X037294Y023263D01*
X037303Y023279D01*
X037311Y023288D01*
X037312Y023288D01*
X037315Y023292D01*
X037317Y023295D01*
X037318Y023296D01*
X037359Y02335D01*
X037389Y023423D01*
X037399Y0235D01*
X037389Y023577D01*
X037359Y02365D01*
X037312Y023712D01*
X037295Y023725D01*
X037312Y023775D01*
X038008D01*
X038027Y023729D01*
X037799Y023501D01*
X037768Y023455D01*
X037757Y0234D01*
X037757Y0234D01*
Y023162D01*
X037745Y02316D01*
X037724Y023158D01*
X037715Y023157D01*
X037583D01*
Y022643D01*
X038217D01*
Y023157D01*
X038085D01*
X038076Y023158D01*
X038055Y02316D01*
X038043Y023162D01*
Y023341D01*
X038297Y023595D01*
X038678D01*
X038697Y023549D01*
X038549Y023401D01*
X038518Y023355D01*
X038507Y0233D01*
X038507Y0233D01*
Y023162D01*
X038495Y02316D01*
X038474Y023158D01*
X038465Y023157D01*
X038333D01*
Y022643D01*
X038967D01*
Y023157D01*
X038835D01*
X038826Y023158D01*
X038805Y02316D01*
X038793Y023162D01*
Y023241D01*
X038967Y023415D01*
X039782D01*
X039814Y023365D01*
X039807Y023331D01*
X039807Y023331D01*
Y023162D01*
X039795Y02316D01*
X039774Y023158D01*
X039765Y023157D01*
X039633D01*
Y022643D01*
X040267D01*
Y023157D01*
X040135D01*
X040126Y023158D01*
X040105Y02316D01*
X040093Y023162D01*
Y023235D01*
X040559D01*
X040578Y023217D01*
X040592Y023188D01*
X040574Y023158D01*
X040565Y023157D01*
X040433D01*
Y022643D01*
X041067D01*
Y023055D01*
X041183D01*
Y022643D01*
X041709D01*
X041712Y022642D01*
X041714Y022642D01*
X041715Y022642D01*
X041719Y022643D01*
X041817D01*
Y022657D01*
X041863Y022676D01*
X042132Y022407D01*
Y021625D01*
X042132Y021625D01*
X042143Y02157D01*
X042174Y021524D01*
X042999Y020699D01*
X042999Y020699D01*
X043045Y020668D01*
X0431Y020657D01*
X0431Y020657D01*
X043127D01*
X043151Y020599D01*
X043215Y020515D01*
X043299Y020451D01*
X043396Y020411D01*
X0435Y020397D01*
X043604Y020411D01*
X043701Y020451D01*
X043785Y020515D01*
X043849Y020599D01*
X043889Y020696D01*
X043903Y0208D01*
X043889Y020904D01*
X043849Y021001D01*
X043785Y021085D01*
X043722Y021133D01*
X043739Y021183D01*
X043914D01*
X043916Y021181D01*
X043953Y021137D01*
X043986Y021092D01*
X044015Y021048D01*
X044039Y021003D01*
X044059Y020959D01*
X044075Y020914D01*
X044087Y02087D01*
X044095Y020825D01*
X0441Y020775D01*
X044101Y020769D01*
X044111Y020696D01*
X044151Y020599D01*
X044215Y020515D01*
X044299Y020451D01*
X044396Y020411D01*
X0445Y020397D01*
X044604Y020411D01*
X044701Y020451D01*
X044785Y020515D01*
X044849Y020599D01*
X044889Y020696D01*
X044903Y0208D01*
X044889Y020904D01*
X044849Y021001D01*
X044785Y021085D01*
X044701Y021149D01*
X044604Y021189D01*
X044531Y021199D01*
X044525Y0212D01*
X044475Y021205D01*
X04443Y021213D01*
X044386Y021225D01*
X044341Y021241D01*
X044297Y021261D01*
X044252Y021285D01*
X044208Y021314D01*
X044163Y021347D01*
X044119Y021384D01*
X044094Y021407D01*
X044075Y021427D01*
X044029Y021458D01*
X043974Y021469D01*
X043974Y021469D01*
X043801D01*
X043791Y021496D01*
X043787Y021519D01*
X043849Y021599D01*
X043889Y021696D01*
X043903Y0218D01*
X043889Y021904D01*
X043849Y022001D01*
X043806Y022057D01*
X043831Y022107D01*
X04399D01*
X044019Y022074D01*
X044045Y022039D01*
X044067Y022007D01*
X044083Y021978D01*
X044095Y021951D01*
X044103Y021928D01*
X044106Y021908D01*
X044107Y02189D01*
X044105Y021867D01*
X044105Y021861D01*
X044104Y021856D01*
X044104Y021854D01*
X044097Y0218D01*
X044111Y021696D01*
X044151Y021599D01*
X044215Y021515D01*
X044299Y021451D01*
X044396Y021411D01*
X0445Y021397D01*
X044604Y021411D01*
X044701Y021451D01*
X044785Y021515D01*
X044849Y021599D01*
X044889Y021696D01*
X044903Y0218D01*
X044889Y021904D01*
X044849Y022001D01*
X044785Y022085D01*
X044701Y022149D01*
X044604Y022189D01*
X0445Y022203D01*
X044446Y022196D01*
X044444Y022196D01*
X044439Y022195D01*
X044433Y022195D01*
X04441Y022193D01*
X044392Y022194D01*
X044372Y022197D01*
X044349Y022205D01*
X044322Y022217D01*
X044293Y022233D01*
X044262Y022254D01*
X044188Y022314D01*
X044176Y022326D01*
X044151Y022351D01*
X044105Y022381D01*
X04405Y022392D01*
X04405Y022392D01*
X04369D01*
X04368Y022442D01*
X043701Y022451D01*
X043785Y022515D01*
X043849Y022599D01*
X043889Y022696D01*
X043903Y0228D01*
X043889Y022904D01*
X043849Y023001D01*
X043785Y023085D01*
X043761Y023103D01*
X043778Y023153D01*
X043951D01*
X043952Y023152D01*
X043987Y02311D01*
X044018Y02307D01*
X044043Y023031D01*
X044064Y022994D01*
X044079Y022958D01*
X04409Y022924D01*
X044097Y022892D01*
X0441Y022861D01*
X0441Y022825D01*
X0441Y022825D01*
X0441Y022825D01*
X0441Y022822D01*
X044097Y0228D01*
X044111Y022696D01*
X044151Y022599D01*
X044215Y022515D01*
X044299Y022451D01*
X044396Y022411D01*
X0445Y022397D01*
X044604Y022411D01*
X044701Y022451D01*
X044785Y022515D01*
X044849Y022599D01*
X044889Y022696D01*
X044903Y0228D01*
X044889Y022904D01*
X044849Y023001D01*
X044785Y023085D01*
X044701Y023149D01*
X044604Y023189D01*
X0445Y023203D01*
X044487Y023201D01*
X044451Y023201D01*
X044419Y023205D01*
X044385Y023213D01*
X044351Y023225D01*
X044314Y023242D01*
X044276Y023263D01*
X044237Y023288D01*
X044197Y023319D01*
X044155Y023355D01*
X044134Y023374D01*
X044112Y023396D01*
X044066Y023427D01*
X044011Y023438D01*
X044011Y023438D01*
X043766D01*
X043749Y023488D01*
X043785Y023515D01*
X043849Y023599D01*
X043889Y023696D01*
X043903Y0238D01*
X043889Y023904D01*
X043849Y024001D01*
X043785Y024085D01*
X043701Y024149D01*
X043681Y024157D01*
X043691Y024207D01*
X04389D01*
X043896Y024201D01*
X043937Y024153D01*
X043973Y024104D01*
X044005Y024056D01*
X044032Y024009D01*
X044054Y023962D01*
X044072Y023915D01*
X044085Y023868D01*
X044094Y023821D01*
X0441Y02377D01*
X044102Y023763D01*
X044111Y023696D01*
X044151Y023599D01*
X044215Y023515D01*
X044299Y023451D01*
X044396Y023411D01*
X0445Y023397D01*
X044604Y023411D01*
X044701Y023451D01*
X044785Y023515D01*
X044849Y023599D01*
X044889Y023696D01*
X044903Y0238D01*
X044889Y023904D01*
X044849Y024001D01*
X044785Y024085D01*
X044701Y024149D01*
X044604Y024189D01*
X044537Y024198D01*
X04453Y0242D01*
X044479Y024206D01*
X044432Y024215D01*
X044385Y024228D01*
X044338Y024246D01*
X044291Y024268D01*
X044244Y024295D01*
X044196Y024327D01*
X044147Y024363D01*
X044099Y024404D01*
X044072Y02443D01*
X044051Y024451D01*
X044005Y024482D01*
X04395Y024493D01*
X04395Y024493D01*
X04383D01*
X043806Y024543D01*
X043849Y024599D01*
X043889Y024696D01*
X043903Y0248D01*
X043889Y024904D01*
X043849Y025001D01*
X043814Y025046D01*
X043839Y025096D01*
X044001D01*
X044027Y025066D01*
X044052Y025033D01*
X044073Y025003D01*
X044088Y024975D01*
X044099Y024951D01*
X044106Y02493D01*
X044109Y024913D01*
X044109Y024898D01*
X044107Y024878D01*
X044107Y024874D01*
X044097Y0248D01*
X044111Y024696D01*
X044151Y024599D01*
X044215Y024515D01*
X044299Y024451D01*
X044396Y024411D01*
X0445Y024397D01*
X044604Y024411D01*
X044701Y024451D01*
X044785Y024515D01*
X044849Y024599D01*
X044889Y024696D01*
X044903Y0248D01*
X044889Y024904D01*
X044849Y025001D01*
X044785Y025085D01*
X044701Y025149D01*
X044604Y025189D01*
X0445Y025203D01*
X044426Y025193D01*
X044422Y025193D01*
X044402Y025191D01*
X044387Y025191D01*
X04437Y025194D01*
X044349Y025201D01*
X044325Y025212D01*
X044297Y025227D01*
X044268Y025247D01*
X044197Y025305D01*
X044187Y025315D01*
X044162Y02534D01*
X044115Y025371D01*
X044061Y025382D01*
X044061Y025382D01*
X043665D01*
X043655Y025432D01*
X043701Y025451D01*
X043785Y025515D01*
X043849Y025599D01*
X043889Y025696D01*
X043903Y0258D01*
X043889Y025904D01*
X043849Y026001D01*
X043814Y026046D01*
X043839Y026096D01*
X04405D01*
X044069Y026075D01*
X044091Y026046D01*
X044108Y026021D01*
X04412Y026D01*
X044127Y025982D01*
X04413Y02597D01*
X044131Y025962D01*
X044131Y025958D01*
X044127Y025946D01*
X044126Y025941D01*
X044111Y025904D01*
X044097Y0258D01*
X044111Y025696D01*
X044151Y025599D01*
X044215Y025515D01*
X044299Y025451D01*
X044396Y025411D01*
X0445Y025397D01*
X044604Y025411D01*
X044701Y025451D01*
X044785Y025515D01*
X044849Y025599D01*
X044889Y025696D01*
X044903Y0258D01*
X044889Y025904D01*
X044849Y026001D01*
X044785Y026085D01*
X044701Y026149D01*
X044604Y026189D01*
X0445Y026203D01*
X04445Y026196D01*
X044444Y026197D01*
X044427Y026196D01*
X044417Y026197D01*
X044403Y0262D01*
X044384Y026207D01*
X044362Y026218D01*
X044337Y026233D01*
X04431Y026252D01*
X044245Y026307D01*
X04424Y026311D01*
X044212Y02634D01*
X044165Y026371D01*
X044111Y026382D01*
X044111Y026382D01*
X043665D01*
X043655Y026432D01*
X043701Y026451D01*
X043785Y026515D01*
X043849Y026599D01*
X043889Y026696D01*
X043903Y0268D01*
X043889Y026904D01*
X043849Y027001D01*
X043814Y027046D01*
X043839Y027096D01*
X044001D01*
X044027Y027066D01*
X044052Y027033D01*
X044073Y027003D01*
X044088Y026975D01*
X044099Y026951D01*
X044106Y02693D01*
X044109Y026913D01*
X044109Y026898D01*
X044107Y026878D01*
X044107Y026874D01*
X044097Y0268D01*
X044111Y026696D01*
X044151Y026599D01*
X044215Y026515D01*
X044299Y026451D01*
X044396Y026411D01*
X0445Y026397D01*
X044604Y026411D01*
X044701Y026451D01*
X044785Y026515D01*
X044849Y026599D01*
X044889Y026696D01*
X044903Y0268D01*
X044889Y026904D01*
X044849Y027001D01*
X044785Y027085D01*
X044701Y027149D01*
X044604Y027189D01*
X0445Y027203D01*
X044426Y027193D01*
X044422Y027193D01*
X044402Y027191D01*
X044387Y027191D01*
X04437Y027194D01*
X044349Y027201D01*
X044325Y027212D01*
X044297Y027227D01*
X044268Y027247D01*
X044197Y027305D01*
X044187Y027315D01*
X044162Y02734D01*
X044115Y027371D01*
X044061Y027382D01*
X044061Y027382D01*
X043665D01*
X043655Y027432D01*
X043701Y027451D01*
X043785Y027515D01*
X043849Y027599D01*
X043889Y027696D01*
X043903Y0278D01*
X043889Y027904D01*
X043849Y028001D01*
X043785Y028085D01*
X043701Y028149D01*
X043604Y028189D01*
X0435Y028203D01*
D02*
G37*
G36*
X04455Y028196D02*
Y02785D01*
X044896D01*
X044889Y027904D01*
X044849Y028001D01*
X044785Y028085D01*
X044701Y028149D01*
X044604Y028189D01*
X04455Y028196D01*
D02*
G37*
G36*
X04445Y028196D02*
X044396Y028189D01*
X044299Y028149D01*
X044215Y028085D01*
X044151Y028001D01*
X044111Y027904D01*
X044104Y02785D01*
X04445D01*
Y028196D01*
D02*
G37*
G36*
Y02775D02*
X044104D01*
X044111Y027696D01*
X044151Y027599D01*
X044215Y027515D01*
X044299Y027451D01*
X044396Y027411D01*
X04445Y027404D01*
Y02775D01*
D02*
G37*
G36*
X044896D02*
X04455D01*
Y027404D01*
X044604Y027411D01*
X044701Y027451D01*
X044785Y027515D01*
X044849Y027599D01*
X044889Y027696D01*
X044896Y02775D01*
D02*
G37*
G36*
X0253Y028203D02*
X025196Y028189D01*
X025099Y028149D01*
X025015Y028085D01*
X024951Y028001D01*
X024911Y027904D01*
X024897Y0278D01*
X024911Y027696D01*
X024951Y027599D01*
X025015Y027515D01*
X025099Y027451D01*
X025196Y027411D01*
X0253Y027397D01*
X025404Y027411D01*
X025501Y027451D01*
X025585Y027515D01*
X025649Y027599D01*
X025689Y027696D01*
X025703Y0278D01*
X025689Y027904D01*
X025649Y028001D01*
X025585Y028085D01*
X025501Y028149D01*
X025404Y028189D01*
X0253Y028203D01*
D02*
G37*
G36*
X0243D02*
X024196Y028189D01*
X024099Y028149D01*
X024015Y028085D01*
X023951Y028001D01*
X023911Y027904D01*
X023897Y0278D01*
X023911Y027696D01*
X023951Y027599D01*
X024015Y027515D01*
X024099Y027451D01*
X024196Y027411D01*
X0243Y027397D01*
X024404Y027411D01*
X024501Y027451D01*
X024585Y027515D01*
X024649Y027599D01*
X024689Y027696D01*
X024703Y0278D01*
X024689Y027904D01*
X024649Y028001D01*
X024585Y028085D01*
X024501Y028149D01*
X024404Y028189D01*
X0243Y028203D01*
D02*
G37*
G36*
X0356Y038152D02*
X035561Y038144D01*
X035528Y038122D01*
X035028Y037622D01*
X035006Y037589D01*
X034998Y03755D01*
X035006Y037511D01*
X035028Y037478D01*
X036147Y036358D01*
Y03565D01*
X036158Y035572D01*
X036188Y035499D01*
X036236Y035436D01*
X040147Y031525D01*
Y03105D01*
Y030425D01*
X036525Y026803D01*
X034775D01*
X032248Y02933D01*
X032252Y02935D01*
X032244Y029389D01*
X032222Y029422D01*
X031322Y030322D01*
X031289Y030344D01*
X03125Y030352D01*
X03123Y030348D01*
X030114Y031464D01*
X030051Y031512D01*
X029978Y031542D01*
X0299Y031553D01*
X029899Y031552D01*
X029721Y031724D01*
X029671Y031784D01*
X029656Y031804D01*
X029648Y031818D01*
X029647Y031819D01*
X029647Y031821D01*
X029647Y031821D01*
X029639Y031877D01*
X029609Y03195D01*
X029562Y032012D01*
X0295Y032059D01*
X029427Y032089D01*
X02935Y032099D01*
X029273Y032089D01*
X0292Y032059D01*
X029138Y032012D01*
X029091Y03195D01*
X029061Y031877D01*
X029051Y0318D01*
X029061Y031723D01*
X029091Y03165D01*
X029138Y031588D01*
X0292Y031541D01*
X029273Y031511D01*
X029329Y031503D01*
X029329Y031503D01*
X029331Y031503D01*
X029332Y031502D01*
X029342Y031496D01*
X029516Y031343D01*
X029563Y031295D01*
X029598Y031257D01*
X029597Y03125D01*
X029608Y031172D01*
X029638Y031099D01*
X029686Y031036D01*
X030736Y029986D01*
X030729Y029923D01*
X030728Y029922D01*
X030706Y029889D01*
X030698Y02985D01*
X030706Y029811D01*
X030728Y029778D01*
X031628Y028878D01*
X031661Y028856D01*
X0317Y028848D01*
X031739Y028856D01*
X031772Y028878D01*
X031808Y028914D01*
X032924Y027799D01*
X032906Y027746D01*
X032875Y027742D01*
X032803Y027712D01*
X032741Y027664D01*
X032693Y027602D01*
X032663Y02753D01*
X032653Y027453D01*
X032663Y027375D01*
X032693Y027303D01*
X032741Y027241D01*
X032803Y027193D01*
X032829Y027182D01*
X033392Y02662D01*
X033479Y026527D01*
X033529Y026466D01*
X033544Y026446D01*
X033552Y026432D01*
X033553Y026431D01*
X033553Y026429D01*
X033553Y026429D01*
X033561Y026373D01*
X033591Y0263D01*
X033638Y026238D01*
X0337Y026191D01*
X033773Y026161D01*
X03385Y026151D01*
X033927Y026161D01*
X034Y026191D01*
X034062Y026238D01*
X034109Y0263D01*
X034139Y026373D01*
X034149Y02645D01*
X034142Y02651D01*
X034189Y026533D01*
X034436Y026286D01*
X034436Y026286D01*
X034499Y026238D01*
X034572Y026208D01*
X03465Y026197D01*
X03665D01*
X036728Y026208D01*
X036801Y026238D01*
X036864Y026286D01*
X037181Y026603D01*
X0372Y026601D01*
X037277Y026611D01*
X03735Y026641D01*
X037412Y026688D01*
X037459Y02675D01*
X037489Y026823D01*
X037499Y0269D01*
X037497Y026919D01*
X040664Y030086D01*
X040664Y030086D01*
X040712Y030149D01*
X040742Y030222D01*
X040753Y0303D01*
X040753Y0303D01*
Y03105D01*
Y03165D01*
X040742Y031728D01*
X040712Y031801D01*
X040664Y031864D01*
X036753Y035775D01*
Y036358D01*
X036872Y036478D01*
X036894Y036511D01*
X036902Y03655D01*
Y03665D01*
X036894Y036689D01*
X036872Y036722D01*
X036751Y036844D01*
X036737Y036876D01*
X036689Y036939D01*
X036502Y037126D01*
Y03725D01*
X036494Y037289D01*
X036472Y037322D01*
X035672Y038122D01*
X035639Y038144D01*
X0356Y038152D01*
D02*
G37*
G36*
X030514Y027715D02*
X03039Y027699D01*
X030275Y027651D01*
X030175Y027575D01*
X030099Y027475D01*
X030051Y02736D01*
X030035Y027236D01*
X030051Y027112D01*
X030099Y026996D01*
X030175Y026897D01*
X030275Y026821D01*
X03039Y026773D01*
X030514Y026757D01*
X030638Y026773D01*
X030754Y026821D01*
X030853Y026897D01*
X030929Y026996D01*
X030977Y027112D01*
X030993Y027236D01*
X030977Y02736D01*
X030929Y027475D01*
X030853Y027575D01*
X030754Y027651D01*
X030638Y027699D01*
X030514Y027715D01*
D02*
G37*
G36*
X0253Y027203D02*
X025196Y027189D01*
X025099Y027149D01*
X025015Y027085D01*
X024951Y027001D01*
X024911Y026904D01*
X024897Y0268D01*
X024911Y026696D01*
X024951Y026599D01*
X025015Y026515D01*
X025099Y026451D01*
X025196Y026411D01*
X0253Y026397D01*
X025404Y026411D01*
X025501Y026451D01*
X025585Y026515D01*
X025649Y026599D01*
X025689Y026696D01*
X025703Y0268D01*
X025689Y026904D01*
X025649Y027001D01*
X025585Y027085D01*
X025501Y027149D01*
X025404Y027189D01*
X0253Y027203D01*
D02*
G37*
G36*
X0243D02*
X024196Y027189D01*
X024099Y027149D01*
X024015Y027085D01*
X023951Y027001D01*
X023911Y026904D01*
X023897Y0268D01*
X023911Y026696D01*
X023951Y026599D01*
X024015Y026515D01*
X024099Y026451D01*
X024196Y026411D01*
X0243Y026397D01*
X024404Y026411D01*
X024501Y026451D01*
X024585Y026515D01*
X024649Y026599D01*
X024689Y026696D01*
X024703Y0268D01*
X024689Y026904D01*
X024649Y027001D01*
X024585Y027085D01*
X024501Y027149D01*
X024404Y027189D01*
X0243Y027203D01*
D02*
G37*
G36*
X0253Y026203D02*
X025196Y026189D01*
X025099Y026149D01*
X025015Y026085D01*
X024951Y026001D01*
X024911Y025904D01*
X024897Y0258D01*
X024911Y025696D01*
X024951Y025599D01*
X025015Y025515D01*
X025099Y025451D01*
X025196Y025411D01*
X0253Y025397D01*
X025404Y025411D01*
X025501Y025451D01*
X025585Y025515D01*
X025649Y025599D01*
X025689Y025696D01*
X025703Y0258D01*
X025689Y025904D01*
X025649Y026001D01*
X025585Y026085D01*
X025501Y026149D01*
X025404Y026189D01*
X0253Y026203D01*
D02*
G37*
G36*
X0243D02*
X024196Y026189D01*
X024099Y026149D01*
X024015Y026085D01*
X023951Y026001D01*
X023911Y025904D01*
X023897Y0258D01*
X023911Y025696D01*
X023951Y025599D01*
X024015Y025515D01*
X024099Y025451D01*
X024196Y025411D01*
X0243Y025397D01*
X024404Y025411D01*
X024501Y025451D01*
X024585Y025515D01*
X024649Y025599D01*
X024689Y025696D01*
X024703Y0258D01*
X024689Y025904D01*
X024649Y026001D01*
X024585Y026085D01*
X024501Y026149D01*
X024404Y026189D01*
X0243Y026203D01*
D02*
G37*
G36*
Y025203D02*
X024196Y025189D01*
X024099Y025149D01*
X024015Y025085D01*
X023951Y025001D01*
X023911Y024904D01*
X023897Y0248D01*
X023911Y024696D01*
X023951Y024599D01*
X024015Y024515D01*
X024099Y024451D01*
X024196Y024411D01*
X0243Y024397D01*
X024404Y024411D01*
X024501Y024451D01*
X024585Y024515D01*
X024649Y024599D01*
X024689Y024696D01*
X024703Y0248D01*
X024689Y024904D01*
X024649Y025001D01*
X024585Y025085D01*
X024501Y025149D01*
X024404Y025189D01*
X0243Y025203D01*
D02*
G37*
G36*
X0253Y025203D02*
X025196Y025189D01*
X025099Y025149D01*
X025015Y025085D01*
X024951Y025001D01*
X024911Y024904D01*
X024897Y0248D01*
X024911Y024696D01*
X024951Y024599D01*
X025015Y024515D01*
X025099Y024451D01*
X025196Y024411D01*
X0253Y024397D01*
X025404Y024411D01*
X025501Y024451D01*
X025585Y024515D01*
X025649Y024599D01*
X025689Y024696D01*
X025703Y0248D01*
X025689Y024904D01*
X025649Y025001D01*
X025585Y025085D01*
X025501Y025149D01*
X025404Y025189D01*
X0253Y025203D01*
D02*
G37*
G36*
X0243Y024203D02*
X024196Y024189D01*
X024099Y024149D01*
X024015Y024085D01*
X023951Y024001D01*
X023911Y023904D01*
X023897Y0238D01*
X023911Y023696D01*
X023951Y023599D01*
X024015Y023515D01*
X024099Y023451D01*
X024196Y023411D01*
X0243Y023397D01*
X024404Y023411D01*
X024501Y023451D01*
X024585Y023515D01*
X024649Y023599D01*
X024689Y023696D01*
X024703Y0238D01*
X024689Y023904D01*
X024649Y024001D01*
X024585Y024085D01*
X024501Y024149D01*
X024404Y024189D01*
X0243Y024203D01*
D02*
G37*
G36*
X026657Y023123D02*
X026658Y02312D01*
X026658Y023122D01*
X026657Y023123D01*
D02*
G37*
G36*
X026717Y022057D02*
X02645D01*
Y02185D01*
X026717D01*
Y022057D01*
D02*
G37*
G36*
X02635D02*
X026083D01*
Y02185D01*
X02635D01*
Y022057D01*
D02*
G37*
G36*
X026717Y02175D02*
X02645D01*
Y021644D01*
X026615D01*
X026612Y02164D01*
X02661Y021628D01*
X026608Y021608D01*
X026604Y021544D01*
X026604Y021543D01*
X026717D01*
Y02175D01*
D02*
G37*
G36*
X02635D02*
X026083D01*
Y021543D01*
X026189D01*
X026185Y021644D01*
X02635D01*
Y02175D01*
D02*
G37*
G36*
X0253Y022203D02*
X025196Y022189D01*
X025099Y022149D01*
X025015Y022085D01*
X024951Y022001D01*
X024911Y021904D01*
X024897Y0218D01*
X024911Y021696D01*
X024951Y021599D01*
X025015Y021515D01*
X025099Y021451D01*
X025196Y021411D01*
X0253Y021397D01*
X025404Y021411D01*
X025501Y021451D01*
X025585Y021515D01*
X025649Y021599D01*
X025689Y021696D01*
X025703Y0218D01*
X025689Y021904D01*
X025649Y022001D01*
X025585Y022085D01*
X025501Y022149D01*
X025404Y022189D01*
X0253Y022203D01*
D02*
G37*
G36*
X0243D02*
X024196Y022189D01*
X024099Y022149D01*
X024015Y022085D01*
X023951Y022001D01*
X023911Y021904D01*
X023897Y0218D01*
X023911Y021696D01*
X023951Y021599D01*
X024015Y021515D01*
X024099Y021451D01*
X024196Y021411D01*
X0243Y021397D01*
X024404Y021411D01*
X024501Y021451D01*
X024585Y021515D01*
X024649Y021599D01*
X024689Y021696D01*
X024703Y0218D01*
X024689Y021904D01*
X024649Y022001D01*
X024585Y022085D01*
X024501Y022149D01*
X024404Y022189D01*
X0243Y022203D01*
D02*
G37*
G36*
X041817Y022357D02*
X041183D01*
Y021843D01*
X041315D01*
X041324Y021842D01*
X041345Y02184D01*
X041357Y021838D01*
Y021019D01*
X041311Y021D01*
X040893Y021418D01*
Y021797D01*
X040909Y021801D01*
X040911Y021802D01*
X040914Y021803D01*
X040928Y021813D01*
X040942Y021823D01*
X040944Y021825D01*
X040946Y021827D01*
X040955Y021842D01*
X040955Y021843D01*
X041067D01*
Y022357D01*
X040433D01*
Y021843D01*
X040545D01*
X040545Y021842D01*
X040554Y021827D01*
X040556Y021825D01*
X040558Y021823D01*
X040572Y021813D01*
X040586Y021803D01*
X040589Y021802D01*
X040591Y021801D01*
X040607Y021797D01*
Y021359D01*
X040607Y021359D01*
X040618Y021304D01*
X040649Y021258D01*
X041143Y020765D01*
Y019644D01*
X040994Y019496D01*
X040937Y019509D01*
X040882Y01958D01*
X040799Y019644D01*
X040769Y019656D01*
X040779Y019706D01*
X040995D01*
Y020694D01*
X0408D01*
X0408Y020694D01*
X040791Y020709D01*
X040789Y020711D01*
X040787Y020713D01*
X040773Y020723D01*
X040759Y020733D01*
X040757Y020734D01*
X040754Y020735D01*
X040738Y020739D01*
X040737Y020739D01*
Y020955D01*
X040727Y02101D01*
X040696Y021056D01*
X040696Y021056D01*
X040093Y021659D01*
Y021838D01*
X040105Y02184D01*
X040126Y021842D01*
X040135Y021843D01*
X040267D01*
Y022357D01*
X039633D01*
Y021843D01*
X039765D01*
X039774Y021842D01*
X039795Y02184D01*
X039807Y021838D01*
Y0216D01*
X039807Y0216D01*
X039818Y021545D01*
X039849Y021499D01*
X040452Y020896D01*
Y020698D01*
X040439Y020696D01*
X040419Y020694D01*
X04041Y020694D01*
X040205D01*
Y019706D01*
X040421D01*
X040431Y019656D01*
X040401Y019644D01*
X040318Y01958D01*
X040255Y019498D01*
X040215Y019402D01*
X040201Y019298D01*
Y019102D01*
X040215Y018998D01*
X040255Y018902D01*
X040318Y01882D01*
X040401Y018756D01*
X040497Y018716D01*
X0406Y018703D01*
X040703Y018716D01*
X040799Y018756D01*
X040882Y01882D01*
X040945Y018902D01*
X040985Y018998D01*
X040999Y019102D01*
Y019132D01*
X041023Y019137D01*
X041069Y019167D01*
X041311Y019409D01*
X041357Y01939D01*
Y01904D01*
X04096Y018643D01*
X039759D01*
X039743Y018659D01*
Y018718D01*
X039744Y01872D01*
X039751Y018726D01*
X039761Y018734D01*
X039787Y018751D01*
X039799Y018756D01*
X039811Y018765D01*
X039814Y018767D01*
X039821Y018773D01*
X039828Y018778D01*
X039836Y018784D01*
X039837Y018786D01*
X039882Y01882D01*
X039945Y018902D01*
X039985Y018998D01*
X039999Y019102D01*
Y019298D01*
X039985Y019402D01*
X039945Y019498D01*
X039882Y01958D01*
X039799Y019644D01*
X039729Y019673D01*
Y019727D01*
X039799Y019756D01*
X039882Y01982D01*
X039945Y019902D01*
X039985Y019998D01*
X039999Y020102D01*
Y020298D01*
X039985Y020402D01*
X039945Y020498D01*
X039882Y02058D01*
X039799Y020644D01*
X039703Y020684D01*
X0396Y020697D01*
X039497Y020684D01*
X039401Y020644D01*
X039318Y02058D01*
X039255Y020498D01*
X039215Y020402D01*
X039201Y020298D01*
Y020102D01*
X039215Y019998D01*
X039255Y019902D01*
X039318Y01982D01*
X039401Y019756D01*
X039471Y019727D01*
Y019673D01*
X039401Y019644D01*
X039318Y01958D01*
X039255Y019498D01*
X039215Y019402D01*
X039201Y019298D01*
Y019102D01*
X039215Y018998D01*
X039255Y018902D01*
X039318Y01882D01*
X039363Y018786D01*
X039364Y018784D01*
X039372Y018778D01*
X039379Y018773D01*
X039386Y018767D01*
X039389Y018765D01*
X039401Y018756D01*
X039414Y018751D01*
X039425Y018744D01*
X039438Y018735D01*
X039449Y018726D01*
X039456Y01872D01*
X039457Y018718D01*
Y0186D01*
X039457Y0186D01*
X039468Y018545D01*
X039499Y018499D01*
X039599Y018399D01*
X039599Y018399D01*
X039645Y018368D01*
X0397Y018357D01*
X041019D01*
X041019Y018357D01*
X041074Y018368D01*
X04112Y018399D01*
X041601Y01888D01*
X041601Y01888D01*
X041632Y018926D01*
X041643Y018981D01*
X041643Y018981D01*
Y021838D01*
X041655Y02184D01*
X041676Y021842D01*
X041685Y021843D01*
X041817D01*
Y022357D01*
D02*
G37*
G36*
X0284Y020691D02*
X028347Y020684D01*
X028251Y020644D01*
X028168Y02058D01*
X028105Y020498D01*
X028065Y020402D01*
X028051Y020298D01*
Y02025D01*
X02812D01*
X028126Y020253D01*
X028138Y020263D01*
X028148Y020276D01*
X028156Y020292D01*
X028162Y020311D01*
X028167Y020333D01*
X028169Y020358D01*
X02817Y020385D01*
Y02025D01*
X0284D01*
Y020527D01*
X028379Y020524D01*
X028187Y020429D01*
X028215Y020444D01*
X028238Y02046D01*
X028255Y020476D01*
X028268Y020493D01*
X028275Y02051D01*
X028275Y020512D01*
X028241Y020507D01*
X028264Y020526D01*
X028276Y020539D01*
X028275Y020547D01*
X028267Y020565D01*
X028255Y020585D01*
X028237Y020605D01*
X028316Y020639D01*
X028324Y020632D01*
X028335Y020626D01*
X028348Y02062D01*
X028349Y020622D01*
X028355Y020635D01*
X028359Y020647D01*
X02836Y020658D01*
X0284Y020666D01*
Y020691D01*
D02*
G37*
G36*
X038967Y022357D02*
X038333D01*
Y021843D01*
X038465D01*
X038474Y021842D01*
X038495Y02184D01*
X038507Y021838D01*
Y021709D01*
X038049Y021251D01*
X038018Y021205D01*
X038007Y02115D01*
X038007Y02115D01*
Y020479D01*
X037957Y020469D01*
X037945Y020498D01*
X037882Y02058D01*
X037837Y020614D01*
X037836Y020616D01*
X037828Y020622D01*
X037821Y020627D01*
X037814Y020633D01*
X037811Y020635D01*
X037799Y020644D01*
X037786Y020649D01*
X037775Y020656D01*
X037762Y020665D01*
X037751Y020674D01*
X037744Y02068D01*
X037743Y020682D01*
Y021141D01*
X037951Y021349D01*
X037951Y021349D01*
X038001Y021399D01*
X038001Y021399D01*
X038032Y021445D01*
X038043Y0215D01*
X038043Y0215D01*
Y021838D01*
X038055Y02184D01*
X038076Y021842D01*
X038085Y021843D01*
X038217D01*
Y022357D01*
X037583D01*
Y021843D01*
X037715D01*
X037724Y021842D01*
X037745Y02184D01*
X037757Y021838D01*
Y021559D01*
X037749Y021551D01*
X037749Y021551D01*
X037499Y021301D01*
X037468Y021255D01*
X037457Y0212D01*
X037457Y0212D01*
Y020682D01*
X037456Y02068D01*
X037449Y020674D01*
X037439Y020666D01*
X037413Y020649D01*
X037401Y020644D01*
X037389Y020635D01*
X037386Y020633D01*
X037379Y020627D01*
X037372Y020622D01*
X037364Y020616D01*
X037363Y020614D01*
X037318Y02058D01*
X037293Y020547D01*
X037243Y020564D01*
Y021838D01*
X037255Y02184D01*
X037276Y021842D01*
X037285Y021843D01*
X037417D01*
Y022357D01*
X036783D01*
Y021843D01*
X036915D01*
X036924Y021842D01*
X036945Y02184D01*
X036957Y021838D01*
Y020564D01*
X036907Y020547D01*
X036882Y02058D01*
X036799Y020644D01*
X036703Y020684D01*
X0366Y020697D01*
X036497Y020684D01*
X036401Y020644D01*
X036318Y02058D01*
X036255Y020498D01*
X036215Y020402D01*
X036201Y020298D01*
Y020102D01*
X036215Y019998D01*
X036255Y019902D01*
X036318Y01982D01*
X036401Y019756D01*
X036471Y019727D01*
Y019673D01*
X036401Y019644D01*
X036318Y01958D01*
X036255Y019498D01*
X036215Y019402D01*
X036201Y019298D01*
Y019102D01*
X036215Y018998D01*
X036255Y018902D01*
X036318Y01882D01*
X036401Y018756D01*
X036497Y018716D01*
X0366Y018703D01*
X036703Y018716D01*
X036799Y018756D01*
X036882Y01882D01*
X036945Y018902D01*
X036985Y018998D01*
X036999Y019102D01*
Y019298D01*
X036991Y019354D01*
X036992Y019356D01*
X03699Y019366D01*
X036989Y019374D01*
X036988Y019384D01*
X036987Y019387D01*
X036985Y019402D01*
X036979Y019415D01*
X036977Y019427D01*
X036974Y019444D01*
X036972Y019457D01*
X036972Y019467D01*
X036972Y019468D01*
X037201Y019697D01*
X037201Y019697D01*
X037232Y019744D01*
X037243Y019798D01*
X037243Y019798D01*
Y019836D01*
X037293Y019853D01*
X037318Y01982D01*
X037401Y019756D01*
X037471Y019727D01*
Y019673D01*
X037401Y019644D01*
X037318Y01958D01*
X037255Y019498D01*
X037215Y019402D01*
X037201Y019298D01*
Y019102D01*
X037215Y018998D01*
X037255Y018902D01*
X037318Y01882D01*
X037401Y018756D01*
X037497Y018716D01*
X0376Y018703D01*
X037703Y018716D01*
X037799Y018756D01*
X037882Y01882D01*
X037945Y018902D01*
X037985Y018998D01*
X037999Y019102D01*
Y019298D01*
X037985Y019402D01*
X037945Y019498D01*
X037882Y01958D01*
X037799Y019644D01*
X037729Y019673D01*
Y019727D01*
X037799Y019756D01*
X037882Y01982D01*
X037945Y019902D01*
X037957Y019931D01*
X038007Y019921D01*
Y019748D01*
X038007Y019748D01*
X038018Y019694D01*
X038049Y019647D01*
X038228Y019468D01*
X038228Y019467D01*
X038228Y019457D01*
X038226Y019445D01*
X03822Y019414D01*
X038215Y019402D01*
X038213Y019387D01*
X038212Y019384D01*
X038211Y019374D01*
X03821Y019366D01*
X038208Y019356D01*
X038209Y019354D01*
X038201Y019298D01*
Y019102D01*
X038215Y018998D01*
X038255Y018902D01*
X038318Y01882D01*
X038401Y018756D01*
X038497Y018716D01*
X0386Y018703D01*
X038703Y018716D01*
X038799Y018756D01*
X038882Y01882D01*
X038945Y018902D01*
X038985Y018998D01*
X038999Y019102D01*
Y019298D01*
X038985Y019402D01*
X038945Y019498D01*
X038882Y01958D01*
X038799Y019644D01*
X038729Y019673D01*
Y019727D01*
X038799Y019756D01*
X038882Y01982D01*
X038945Y019902D01*
X038985Y019998D01*
X038999Y020102D01*
Y020298D01*
X038985Y020402D01*
X038945Y020498D01*
X038882Y02058D01*
X038799Y020644D01*
X038703Y020684D01*
X0386Y020697D01*
X038497Y020684D01*
X038401Y020644D01*
X038343Y020599D01*
X038293Y020624D01*
Y021091D01*
X038751Y021549D01*
X038751Y021549D01*
X038782Y021595D01*
X038793Y02165D01*
X038793Y02165D01*
Y021838D01*
X038805Y02184D01*
X038826Y021842D01*
X038835Y021843D01*
X038967D01*
Y022357D01*
D02*
G37*
G36*
X0253Y021203D02*
X025196Y021189D01*
X025099Y021149D01*
X025015Y021085D01*
X024951Y021001D01*
X024911Y020904D01*
X024897Y0208D01*
X024911Y020696D01*
X024951Y020599D01*
X025015Y020515D01*
X025099Y020451D01*
X025196Y020411D01*
X0253Y020397D01*
X025404Y020411D01*
X025501Y020451D01*
X025585Y020515D01*
X025649Y020599D01*
X025689Y020696D01*
X025703Y0208D01*
X025689Y020904D01*
X025649Y021001D01*
X025585Y021085D01*
X025501Y021149D01*
X025404Y021189D01*
X0253Y021203D01*
D02*
G37*
G36*
X0243D02*
X024196Y021189D01*
X024099Y021149D01*
X024015Y021085D01*
X023951Y021001D01*
X023911Y020904D01*
X023897Y0208D01*
X023911Y020696D01*
X023951Y020599D01*
X024015Y020515D01*
X024099Y020451D01*
X024196Y020411D01*
X0243Y020397D01*
X024404Y020411D01*
X024501Y020451D01*
X024585Y020515D01*
X024649Y020599D01*
X024689Y020696D01*
X024703Y0208D01*
X024689Y020904D01*
X024649Y021001D01*
X024585Y021085D01*
X024501Y021149D01*
X024404Y021189D01*
X0243Y021203D01*
D02*
G37*
G36*
X02765Y020136D02*
X027383D01*
Y01985D01*
X02765D01*
Y020018D01*
X027632Y020035D01*
X02765Y02002D01*
Y020136D01*
D02*
G37*
%LPD*%
G36*
X036144Y048296D02*
X036166Y048293D01*
X03625Y04829D01*
Y04821D01*
X036206Y048209D01*
X036144Y048204D01*
X036144Y048085D01*
X036143Y048108D01*
X036141Y04813D01*
X036137Y048149D01*
X036131Y048165D01*
X036124Y048179D01*
X036115Y04819D01*
X036105Y048198D01*
X036093Y048196D01*
X036062Y048188D01*
X036034Y048179D01*
X036008Y048168D01*
X035986Y048155D01*
X035967Y04814D01*
X035951Y048123D01*
Y048377D01*
X035967Y04836D01*
X035986Y048345D01*
X036008Y048332D01*
X036034Y048321D01*
X036062Y048312D01*
X036093Y048304D01*
X036102Y048302D01*
X036105Y048304D01*
X036115Y048316D01*
X036124Y04833D01*
X036132Y048348D01*
X036137Y048368D01*
X036142Y048392D01*
X036144Y04842D01*
X036145Y04845D01*
X036144Y048296D01*
D02*
G37*
G36*
X037234Y048084D02*
X037214Y048081D01*
X037197Y048077D01*
X037182Y048072D01*
X037169Y048065D01*
X037159Y048056D01*
X03715Y048045D01*
X037145Y048033D01*
X037141Y04802D01*
X03714Y048005D01*
X03706D01*
X037059Y04802D01*
X037055Y048033D01*
X03705Y048045D01*
X037041Y048056D01*
X037031Y048065D01*
X037018Y048072D01*
X037003Y048077D01*
X036986Y048081D01*
X036966Y048084D01*
X036944Y048085D01*
X037256D01*
X037234Y048084D01*
D02*
G37*
G36*
X037141Y04788D02*
X037145Y047867D01*
X03715Y047855D01*
X037159Y047844D01*
X037169Y047835D01*
X037182Y047828D01*
X037197Y047823D01*
X037214Y047819D01*
X037234Y047816D01*
X037256Y047815D01*
X036944D01*
X036966Y047816D01*
X036986Y047819D01*
X037003Y047823D01*
X037018Y047828D01*
X037031Y047835D01*
X037041Y047844D01*
X03705Y047855D01*
X037055Y047867D01*
X037059Y04788D01*
X03706Y047895D01*
X03714D01*
X037141Y04788D01*
D02*
G37*
G36*
X035254Y047957D02*
X035258Y047938D01*
X035267Y047916D01*
X035281Y047891D01*
X0353Y047863D01*
X035324Y047831D01*
X035388Y047757D01*
X035471Y047671D01*
X035329Y047529D01*
X035284Y047573D01*
X035137Y0477D01*
X035109Y047719D01*
X035084Y047733D01*
X035062Y047742D01*
X035043Y047746D01*
X035028Y047745D01*
X035255Y047972D01*
X035254Y047957D01*
D02*
G37*
G36*
X036144Y047385D02*
X036142Y047407D01*
X036136Y047426D01*
X036126Y047443D01*
X036112Y047458D01*
X036094Y047471D01*
X036072Y047482D01*
X036046Y04749D01*
X036016Y047495D01*
X035982Y047499D01*
X035944Y0475D01*
Y0477D01*
X035982Y047701D01*
X036016Y047705D01*
X036046Y04771D01*
X036072Y047718D01*
X036094Y047729D01*
X036112Y047742D01*
X036126Y047757D01*
X036136Y047774D01*
X036142Y047793D01*
X036144Y047815D01*
Y047385D01*
D02*
G37*
G36*
X037234Y047384D02*
X037214Y047381D01*
X037197Y047377D01*
X037182Y047372D01*
X037169Y047365D01*
X037159Y047356D01*
X03715Y047345D01*
X037145Y047333D01*
X037141Y04732D01*
X03714Y047305D01*
X03706D01*
X037059Y04732D01*
X037055Y047333D01*
X03705Y047345D01*
X037041Y047356D01*
X037031Y047365D01*
X037018Y047372D01*
X037003Y047377D01*
X036986Y047381D01*
X036966Y047384D01*
X036944Y047385D01*
X037256D01*
X037234Y047384D01*
D02*
G37*
G36*
X037142Y04723D02*
X037146Y047216D01*
X037154Y047204D01*
X037166Y047193D01*
X03718Y047184D01*
X037198Y047177D01*
X037218Y047171D01*
X037242Y047167D01*
X03727Y047165D01*
X0373Y047164D01*
X0369D01*
X03693Y047165D01*
X036958Y047167D01*
X036982Y047171D01*
X037002Y047177D01*
X03702Y047184D01*
X037034Y047193D01*
X037046Y047204D01*
X037054Y047216D01*
X037058Y04723D01*
X03706Y047245D01*
X03714D01*
X037142Y04723D01*
D02*
G37*
G36*
X038311Y046861D02*
X038289Y04688D01*
X038261Y046896D01*
X038229Y046911D01*
X038192Y046924D01*
X038149Y046935D01*
X038102Y046944D01*
X03805Y046951D01*
X037931Y046959D01*
X037864Y04696D01*
Y04704D01*
X037931Y047041D01*
X038102Y047056D01*
X038149Y047065D01*
X038192Y047076D01*
X038229Y047089D01*
X038261Y047104D01*
X038289Y04712D01*
X038311Y047139D01*
Y046861D01*
D02*
G37*
G36*
X037336Y047142D02*
X037338Y04712D01*
X037342Y047101D01*
X037348Y047085D01*
X037355Y047071D01*
X037364Y04706D01*
X037374Y047051D01*
X037386Y047045D01*
X0374Y047041D01*
X037415Y04704D01*
Y04696D01*
X0374Y046958D01*
X037386Y046954D01*
X037374Y046946D01*
X037363Y046934D01*
X037354Y04692D01*
X037347Y046902D01*
X037341Y046882D01*
X037337Y046858D01*
X037335Y04683D01*
X037334Y0468D01*
X037335Y047165D01*
X037336Y047142D01*
D02*
G37*
G36*
X028744Y046935D02*
X028743Y046958D01*
X028741Y04698D01*
X028737Y046999D01*
X028731Y047015D01*
X028724Y047029D01*
X028715Y04704D01*
X028705Y047049D01*
X028693Y047055D01*
X028679Y047059D01*
X028664Y04706D01*
Y04714D01*
X028679Y047142D01*
X028693Y047146D01*
X028705Y047154D01*
X028715Y047166D01*
X028724Y04718D01*
X028732Y047198D01*
X028737Y047218D01*
X028742Y047242D01*
X028744Y04727D01*
X028745Y0473D01*
X028744Y046935D01*
D02*
G37*
G36*
X025591Y046057D02*
X025597Y045982D01*
X025602Y04595D01*
X025609Y045922D01*
X025618Y045898D01*
X025628Y045879D01*
X02564Y045862D01*
X025653Y04585D01*
X025668Y045842D01*
X025432D01*
X025447Y04585D01*
X02546Y045862D01*
X025472Y045879D01*
X025482Y045898D01*
X025491Y045922D01*
X025498Y04595D01*
X025503Y045982D01*
X025507Y046017D01*
X02551Y0461D01*
X02559D01*
X025591Y046057D01*
D02*
G37*
G36*
X028745Y04625D02*
X028744Y04628D01*
X028742Y046308D01*
X028738Y046332D01*
X028732Y046352D01*
X028725Y04637D01*
X028716Y046384D01*
X028705Y046396D01*
X028693Y046404D01*
X028679Y046408D01*
X028664Y04641D01*
Y04649D01*
X028679Y046492D01*
X028693Y046496D01*
X028705Y046504D01*
X028716Y046516D01*
X028725Y04653D01*
X028732Y046548D01*
X028738Y046568D01*
X028742Y046592D01*
X028744Y04662D01*
X028745Y04665D01*
Y04625D01*
D02*
G37*
G36*
X027555Y045238D02*
X027598Y0452D01*
X027598Y04365D01*
X027606Y043611D01*
X027628Y043578D01*
X027661Y043556D01*
X0277Y043548D01*
X027861D01*
X027868Y043545D01*
X027945Y043535D01*
X028023Y043545D01*
X02803Y043548D01*
X029648D01*
Y042225D01*
X029656Y042186D01*
X029678Y042153D01*
X029711Y042131D01*
X02975Y042123D01*
X03075D01*
X030789Y042131D01*
X030822Y042153D01*
X030844Y042186D01*
X030852Y042225D01*
Y04365D01*
X030844Y043689D01*
X030822Y043722D01*
X030802Y043736D01*
Y044746D01*
X032116D01*
X032346Y044516D01*
Y041479D01*
X027356Y036489D01*
X027312Y036423D01*
X027303Y036377D01*
X027253Y036382D01*
Y039948D01*
X02835D01*
Y039936D01*
X028448D01*
X028452Y039935D01*
X028455Y039936D01*
X029739D01*
X029741Y039935D01*
X029744Y039936D01*
X029745D01*
X029748Y039935D01*
X029752Y039936D01*
X02985D01*
Y039948D01*
X03055D01*
X030589Y039956D01*
X030622Y039978D01*
X030722Y040078D01*
X030744Y040111D01*
X030752Y04015D01*
Y040654D01*
X030996Y040898D01*
X0316D01*
X031639Y040906D01*
X031672Y040928D01*
X031694Y040961D01*
X031702Y041D01*
Y0419D01*
X031694Y041939D01*
X031672Y041972D01*
X031667Y041978D01*
X031667Y04205D01*
X031667Y042086D01*
Y04235D01*
X03135D01*
X031033D01*
X031033Y042064D01*
X030988Y042052D01*
X029492D01*
X029402Y042142D01*
X029402Y043D01*
X0294Y043011D01*
X029399Y043023D01*
X029397Y043028D01*
Y043364D01*
X028803D01*
Y043277D01*
X028799Y043267D01*
X0288Y043258D01*
X028798Y04325D01*
Y041317D01*
X028562Y041081D01*
X028459D01*
X028456Y041081D01*
X028454Y041081D01*
X028452Y041081D01*
X028448Y041081D01*
X02835D01*
Y041002D01*
X026853D01*
Y043746D01*
X026856Y04408D01*
X026863Y044252D01*
X026866Y04428D01*
X026912Y044341D01*
X026954Y044442D01*
X026969Y04455D01*
X026954Y044658D01*
X026912Y044759D01*
X026846Y044846D01*
X026799Y044882D01*
X026816Y044932D01*
X027175D01*
X027175Y044932D01*
X02723Y044943D01*
X027276Y044974D01*
X027541Y04524D01*
X027555Y045238D01*
D02*
G37*
G36*
X026003Y045047D02*
X025961Y045002D01*
X025925Y04496D01*
X025894Y044918D01*
X025869Y044879D01*
X02585Y04484D01*
X025837Y044803D01*
X025829Y044768D01*
X025827Y044734D01*
X025831Y044702D01*
X025841Y044671D01*
X025532Y044864D01*
X025569Y044869D01*
X025608Y044878D01*
X025648Y044891D01*
X025688Y044908D01*
X025729Y04493D01*
X025771Y044956D01*
X025814Y044986D01*
X025857Y045021D01*
X025947Y045103D01*
X026003Y045047D01*
D02*
G37*
G36*
X026773Y044327D02*
X026769Y044317D01*
X026765Y044294D01*
X026761Y044259D01*
X026754Y044082D01*
X02675Y043677D01*
X02635Y043677D01*
X026327Y044327D01*
X026773Y044327D01*
D02*
G37*
G36*
X0307Y04365D02*
X03075D01*
Y042225D01*
X02975D01*
Y04355D01*
X02975Y04365D01*
X0277D01*
X0277Y0452D01*
X0307D01*
Y04365D01*
D02*
G37*
G36*
X0293Y043D02*
X0293Y0421D01*
X02945Y04195D01*
X03155D01*
X0316Y0419D01*
Y041D01*
X03085D01*
X03065Y0408D01*
Y04015D01*
X03055Y04005D01*
X029749D01*
X029748Y040037D01*
Y04005D01*
X028452D01*
Y040037D01*
X028449Y04005D01*
X0266D01*
X02635Y0403D01*
Y0409D01*
X028448D01*
X028452Y04098D01*
Y0409D01*
X028525D01*
X028605Y04098D01*
X0286D01*
X028605Y04098D01*
X0289Y041275D01*
Y04325D01*
X0293Y043D01*
D02*
G37*
G36*
X024871Y023229D02*
X024818Y023175D01*
X024694Y023029D01*
X024664Y022986D01*
X02464Y022946D01*
X024621Y022908D01*
X024608Y022873D01*
X024601Y02284D01*
X024599Y022811D01*
X024311Y023099D01*
X02434Y023101D01*
X024373Y023108D01*
X024408Y023121D01*
X024446Y02314D01*
X024486Y023164D01*
X024529Y023194D01*
X024575Y02323D01*
X024675Y023318D01*
X024729Y023371D01*
X024871Y023229D01*
D02*
G37*
G36*
X026501Y022918D02*
X026505Y022884D01*
X02651Y022854D01*
X026518Y022828D01*
X026529Y022806D01*
X026542Y022788D01*
X026557Y022774D01*
X026574Y022764D01*
X026593Y022758D01*
X026615Y022756D01*
X026185D01*
X026207Y022758D01*
X026226Y022764D01*
X026243Y022774D01*
X026258Y022788D01*
X026271Y022806D01*
X026282Y022828D01*
X02629Y022854D01*
X026295Y022884D01*
X026299Y022918D01*
X0263Y022956D01*
X0265D01*
X026501Y022918D01*
D02*
G37*
G36*
X03122Y021744D02*
X031192Y021742D01*
X031168Y021738D01*
X031148Y021732D01*
X03113Y021725D01*
X031116Y021716D01*
X031104Y021705D01*
X031096Y021693D01*
X031092Y021679D01*
X03109Y021664D01*
X03101D01*
X031008Y021679D01*
X031004Y021693D01*
X030996Y021705D01*
X030984Y021716D01*
X03097Y021725D01*
X030952Y021732D01*
X030932Y021738D01*
X030908Y021742D01*
X03088Y021744D01*
X03085Y021745D01*
X03125D01*
X03122Y021744D01*
D02*
G37*
G36*
X03057D02*
X030542Y021742D01*
X030518Y021738D01*
X030498Y021732D01*
X03048Y021725D01*
X030466Y021716D01*
X030454Y021705D01*
X030446Y021693D01*
X030442Y021679D01*
X03044Y021664D01*
X03036D01*
X030358Y021679D01*
X030354Y021693D01*
X030346Y021705D01*
X030334Y021716D01*
X03032Y021725D01*
X030302Y021732D01*
X030282Y021738D01*
X030258Y021742D01*
X03023Y021744D01*
X0302Y021745D01*
X0306D01*
X03057Y021744D01*
D02*
G37*
G36*
X02992D02*
X029892Y021742D01*
X029868Y021738D01*
X029848Y021732D01*
X02983Y021725D01*
X029816Y021716D01*
X029804Y021705D01*
X029796Y021693D01*
X029792Y021679D01*
X02979Y021664D01*
X02971D01*
X029708Y021679D01*
X029704Y021693D01*
X029696Y021705D01*
X029684Y021716D01*
X02967Y021725D01*
X029652Y021732D01*
X029632Y021738D01*
X029608Y021742D01*
X02958Y021744D01*
X02955Y021745D01*
X02995D01*
X02992Y021744D01*
D02*
G37*
G36*
X029184D02*
X029157Y021742D01*
X029133Y021738D01*
X029112Y021732D01*
X029095Y021725D01*
X02908Y021716D01*
X029069Y021705D01*
X029061Y021693D01*
X029056Y021679D01*
X029055Y021664D01*
X028975D01*
X028973Y021679D01*
X028968Y021693D01*
X02896Y021705D01*
X028949Y021716D01*
X028935Y021725D01*
X028917Y021732D01*
X028896Y021738D01*
X028872Y021742D01*
X028845Y021744D01*
X028815Y021745D01*
X029215D01*
X029184Y021744D01*
D02*
G37*
G36*
X029491Y020658D02*
X029495Y020646D01*
X029501Y020634D01*
X02951Y020621D01*
X029521Y020609D01*
X029535Y020596D01*
X029551Y020583D01*
X029569Y02057D01*
X029591Y020557D01*
X029614Y020544D01*
X029286D01*
X029309Y020557D01*
X029349Y020583D01*
X029365Y020596D01*
X029379Y020609D01*
X02939Y020621D01*
X029399Y020634D01*
X029405Y020646D01*
X029409Y020658D01*
X02941Y02067D01*
X02949D01*
X029491Y020658D01*
D02*
G37*
G36*
X030588Y020559D02*
X030632Y02054D01*
X030652Y020534D01*
X03067Y02053D01*
X030686Y020528D01*
X0307Y020529D01*
X030713Y020532D01*
X030723Y020536D01*
X030732Y020543D01*
X030776Y020474D01*
X030756Y020452D01*
X03074Y020429D01*
X030728Y020406D01*
X030719Y020381D01*
X030714Y020356D01*
X030713Y02033D01*
X030715Y020303D01*
X030721Y020275D01*
X030731Y020247D01*
X030744Y020217D01*
X030563Y020571D01*
X030588Y020559D01*
D02*
G37*
G36*
X030225Y019582D02*
X030236Y019576D01*
X030249Y019572D01*
X030264Y019569D01*
X030281Y019568D01*
X030299Y019569D01*
X03032Y019571D01*
X030342Y019575D01*
X030366Y019581D01*
X030392Y019588D01*
X03016Y019356D01*
X030168Y019382D01*
X030177Y019429D01*
X03018Y019449D01*
X03018Y019468D01*
X030179Y019484D01*
X030177Y019499D01*
X030172Y019512D01*
X030167Y019524D01*
X030159Y019533D01*
X030216Y019589D01*
X030225Y019582D01*
D02*
G37*
G36*
X029225D02*
X029236Y019576D01*
X029249Y019572D01*
X029264Y019569D01*
X029281Y019568D01*
X029299Y019569D01*
X02932Y019571D01*
X029342Y019575D01*
X029366Y019581D01*
X029392Y019588D01*
X02916Y019356D01*
X029168Y019382D01*
X029177Y019429D01*
X02918Y019449D01*
X02918Y019468D01*
X029179Y019484D01*
X029177Y019499D01*
X029172Y019512D01*
X029167Y019524D01*
X029159Y019533D01*
X029216Y019589D01*
X029225Y019582D01*
D02*
G37*
G36*
X027485Y019219D02*
X0275Y01922D01*
X027527Y019227D01*
X027547Y019234D01*
X027559Y019242D01*
Y018958D01*
X027547Y018966D01*
X027527Y018973D01*
X0275Y01898D01*
X027485Y018982D01*
Y018865D01*
X027483Y018891D01*
X027477Y018914D01*
X027467Y018934D01*
X027453Y018951D01*
X027435Y018966D01*
X027413Y018978D01*
X027387Y018988D01*
X02736Y018994D01*
X02718Y019D01*
X0271Y019D01*
Y0192D01*
X02718Y0192D01*
X02739Y019214D01*
X027413Y019222D01*
X027435Y019234D01*
X027453Y019249D01*
X027467Y019266D01*
X027477Y019286D01*
X027483Y019309D01*
X027485Y019335D01*
Y019219D01*
D02*
G37*
G36*
X028301Y019336D02*
X028315Y019336D01*
Y019131D01*
X028337Y018829D01*
X028295Y018849D01*
X028251Y018867D01*
X028204Y018883D01*
X028155Y018897D01*
X028049Y018919D01*
X028039Y01892D01*
X028015Y018918D01*
X027979Y018911D01*
X027951Y018901D01*
X027931Y018891D01*
X027919Y018879D01*
X027915Y018865D01*
Y018932D01*
X02787Y018935D01*
X027805Y018936D01*
X027758Y019336D01*
X027813Y019338D01*
X027867Y019345D01*
X027921Y019355D01*
X027974Y019369D01*
X028027Y019388D01*
X02808Y019411D01*
X028132Y019438D01*
X028184Y019469D01*
X028235Y019505D01*
X028286Y019544D01*
X028301Y019336D01*
D02*
G37*
%LPC*%
G36*
X028144Y043364D02*
X027898D01*
Y04315D01*
X028144D01*
Y043364D01*
D02*
G37*
G36*
X028491D02*
X028244D01*
Y04315D01*
X0284D01*
X02845Y0432D01*
Y042842D01*
X028491D01*
Y043364D01*
D02*
G37*
G36*
X031667Y042736D02*
X031512D01*
X031516Y04271D01*
X031524Y042683D01*
X031532Y042662D01*
X031542Y042647D01*
X031553Y042638D01*
X031565Y042635D01*
X0314D01*
Y04245D01*
X031667D01*
Y042736D01*
D02*
G37*
G36*
X031188D02*
X031033D01*
Y04245D01*
X0313D01*
Y042635D01*
X031135D01*
X031147Y042638D01*
X031158Y042647D01*
X031168Y042662D01*
X031176Y042683D01*
X031184Y04271D01*
X031188Y042736D01*
D02*
G37*
G36*
X028491Y042742D02*
X02845D01*
Y042219D01*
X028491D01*
Y042742D01*
D02*
G37*
%LPD*%
G36*
X032033Y047744D02*
X032024Y047736D01*
X032016Y047724D01*
X032009Y047709D01*
X032003Y047691D01*
X031998Y04767D01*
X031995Y047645D01*
X031992Y047616D01*
X03199Y04755D01*
X03191D01*
X031909Y047585D01*
X031905Y047645D01*
X031902Y04767D01*
X031897Y047691D01*
X031891Y047709D01*
X031884Y047724D01*
X031876Y047736D01*
X031867Y047744D01*
X031857Y047749D01*
X032043D01*
X032033Y047744D01*
D02*
G37*
G36*
X034157Y047804D02*
X034133Y047759D01*
X034111Y047707D01*
X034092Y047647D01*
X034076Y047579D01*
X034063Y047503D01*
X034046Y047326D01*
X034041Y047226D01*
X03404Y047118D01*
X03396Y047105D01*
X033958Y047204D01*
X03394Y047384D01*
X033925Y047464D01*
X033905Y047539D01*
X03388Y047607D01*
X033852Y047668D01*
X033819Y047724D01*
X033781Y047773D01*
X033739Y047816D01*
X034185Y04784D01*
X034157Y047804D01*
D02*
G37*
G36*
X029856Y047271D02*
X029858Y047244D01*
X029863Y04722D01*
X029868Y047199D01*
X029876Y047181D01*
X029885Y047167D01*
X029895Y047156D01*
X029907Y047148D01*
X029921Y047143D01*
X029936Y047142D01*
Y047062D01*
X029921Y047061D01*
X029907Y047057D01*
X029895Y04705D01*
X029885Y047041D01*
X029876Y04703D01*
X029869Y047016D01*
X029863Y046999D01*
X029859Y04698D01*
X029857Y046959D01*
X029856Y046935D01*
X029855Y047301D01*
X029856Y047271D01*
D02*
G37*
G36*
X029856Y04662D02*
X029858Y046592D01*
X029862Y046568D01*
X029868Y046548D01*
X029875Y04653D01*
X029884Y046516D01*
X029895Y046504D01*
X029907Y046496D01*
X029921Y046492D01*
X029936Y04649D01*
Y04641D01*
X029921Y046408D01*
X029907Y046404D01*
X029895Y046396D01*
X029884Y046384D01*
X029875Y04637D01*
X029868Y046352D01*
X029862Y046332D01*
X029858Y046308D01*
X029856Y04628D01*
X029855Y04625D01*
Y04665D01*
X029856Y04662D01*
D02*
G37*
G36*
X031111Y046234D02*
X031139Y046217D01*
X031171Y046202D01*
X031208Y046189D01*
X031251Y046178D01*
X031298Y046169D01*
X03135Y046162D01*
X031469Y046154D01*
X031536Y046153D01*
Y046073D01*
X031469Y046072D01*
X031298Y046057D01*
X031251Y046048D01*
X031208Y046037D01*
X031171Y046024D01*
X031139Y04601D01*
X031111Y045993D01*
X031089Y045974D01*
Y046252D01*
X031111Y046234D01*
D02*
G37*
G36*
X037811Y038611D02*
X037789Y03863D01*
X037761Y038646D01*
X037729Y038661D01*
X037692Y038674D01*
X037649Y038685D01*
X037602Y038694D01*
X03755Y038701D01*
X037431Y038709D01*
X037364Y03871D01*
Y03879D01*
X037431Y038791D01*
X037602Y038806D01*
X037649Y038815D01*
X037692Y038826D01*
X037729Y038839D01*
X037761Y038854D01*
X037789Y03887D01*
X037811Y038889D01*
Y038611D01*
D02*
G37*
G36*
X033541Y038819D02*
X033556Y038648D01*
X033565Y038601D01*
X033576Y038558D01*
X033589Y038521D01*
X033604Y038489D01*
X03362Y038461D01*
X033639Y038439D01*
X033361D01*
X03338Y038461D01*
X033396Y038489D01*
X033411Y038521D01*
X033424Y038558D01*
X033435Y038601D01*
X033444Y038648D01*
X033451Y0387D01*
X033459Y038819D01*
X03346Y038886D01*
X03354D01*
X033541Y038819D01*
D02*
G37*
G36*
X03362Y038139D02*
X033604Y038111D01*
X033589Y038079D01*
X033576Y038042D01*
X033565Y037999D01*
X033556Y037952D01*
X033549Y0379D01*
X033541Y037781D01*
X03354Y037714D01*
X03346D01*
X033459Y037781D01*
X033444Y037952D01*
X033435Y037999D01*
X033424Y038042D01*
X033411Y038079D01*
X033396Y038111D01*
X03338Y038139D01*
X033361Y038161D01*
X033639D01*
X03362Y038139D01*
D02*
G37*
G36*
X034366Y037177D02*
X03442Y037129D01*
X034427Y037125D01*
X034433Y037122D01*
X034437Y037121D01*
X03444Y037121D01*
X034366Y037047D01*
X034366Y03705D01*
X034365Y037054D01*
X034362Y03706D01*
X034357Y037067D01*
X034351Y037075D01*
X034334Y037095D01*
X034295Y037135D01*
X034352Y037192D01*
X034366Y037177D01*
D02*
G37*
G36*
X033998Y032609D02*
X034168Y032462D01*
X034203Y032438D01*
X034234Y032419D01*
X034263Y032405D01*
X034288Y032396D01*
X03431Y032392D01*
X034099Y032209D01*
X034099Y032244D01*
X034094Y032281D01*
X034084Y032318D01*
X03407Y032357D01*
X03405Y032397D01*
X034026Y032438D01*
X033996Y03248D01*
X033962Y032524D01*
X033923Y032569D01*
X033879Y032614D01*
X033948Y032658D01*
X033998Y032609D01*
D02*
G37*
G36*
X03506Y031153D02*
X035037Y031173D01*
X035009Y031192D01*
X034976Y031208D01*
X034939Y031221D01*
X034897Y031233D01*
X03485Y031243D01*
X034798Y03125D01*
X03468Y031259D01*
X034613Y03126D01*
X034618Y03134D01*
X034685Y031341D01*
X034858Y031355D01*
X034906Y031363D01*
X034948Y031373D01*
X034985Y031385D01*
X035017Y031399D01*
X035043Y031414D01*
X035065Y031432D01*
X03506Y031153D01*
D02*
G37*
G36*
X036262Y030764D02*
X036394Y030653D01*
X036433Y030626D01*
X036471Y030604D01*
X036506Y030587D01*
X03654Y030575D01*
X036571Y030567D01*
X0366Y030565D01*
X036403Y030368D01*
X036401Y030397D01*
X036393Y030428D01*
X036381Y030462D01*
X036364Y030497D01*
X036342Y030535D01*
X036315Y030574D01*
X036283Y030616D01*
X036204Y030706D01*
X036157Y030754D01*
X036214Y030811D01*
X036262Y030764D01*
D02*
G37*
G36*
X041302Y040082D02*
X041262Y040055D01*
X041226Y040025D01*
X041194Y039993D01*
X041166Y039958D01*
X041143Y03992D01*
X041124Y03988D01*
X041109Y039837D01*
X041098Y039792D01*
X041092Y039744D01*
X04109Y039693D01*
X04101Y039805D01*
X041024Y040162D01*
X041302Y040082D01*
D02*
G37*
G36*
X041078Y033325D02*
X041045Y03329D01*
X040989Y033222D01*
X040966Y033188D01*
X040946Y033154D01*
X040929Y03312D01*
X040915Y033086D01*
X040904Y033052D01*
X040897Y033019D01*
X040893Y032986D01*
X040683Y033196D01*
X040716Y0332D01*
X040749Y033208D01*
X040783Y033218D01*
X040817Y033232D01*
X04085Y033249D01*
X040884Y033269D01*
X040919Y033292D01*
X040953Y033319D01*
X040987Y033348D01*
X041022Y033381D01*
X041078Y033325D01*
D02*
G37*
G36*
X025545Y031983D02*
X025587Y031953D01*
X025632Y031927D01*
X02568Y031904D01*
X025731Y031884D01*
X025785Y031868D01*
X025842Y031856D01*
X025902Y031847D01*
X025937Y031844D01*
X025943Y031846D01*
X025955Y031854D01*
X025965Y031866D01*
X025974Y03188D01*
X025982Y031898D01*
X025987Y031918D01*
X025991Y031942D01*
X025994Y03197D01*
X025995Y032D01*
X025994Y031841D01*
X026033Y03184D01*
Y03176D01*
X025994Y031759D01*
X025994Y031735D01*
X025993Y031739D01*
X025991Y031744D01*
X025987Y031748D01*
X025981Y031751D01*
X025974Y031754D01*
X025965Y031756D01*
X025956Y031757D01*
X025902Y031753D01*
X025842Y031744D01*
X025785Y031732D01*
X025731Y031716D01*
X02568Y031696D01*
X025632Y031673D01*
X025587Y031647D01*
X025545Y031617D01*
X025506Y031583D01*
Y032017D01*
X025545Y031983D01*
D02*
G37*
G36*
X024778Y031222D02*
X024738Y03118D01*
X024672Y031099D01*
X024646Y031061D01*
X024626Y031024D01*
X02461Y030988D01*
X024598Y030953D01*
X024592Y030919D01*
X024591Y030887D01*
X024594Y030856D01*
X024356Y031094D01*
X024387Y031091D01*
X024419Y031092D01*
X024453Y031098D01*
X024488Y03111D01*
X024524Y031126D01*
X024561Y031146D01*
X024599Y031172D01*
X024639Y031203D01*
X02468Y031238D01*
X024722Y031278D01*
X024778Y031222D01*
D02*
G37*
G36*
X025995Y03105D02*
X025994Y03108D01*
X025992Y031108D01*
X025988Y031132D01*
X025982Y031152D01*
X025975Y03117D01*
X025966Y031184D01*
X025955Y031196D01*
X025943Y031204D01*
X025929Y031208D01*
X025914Y03121D01*
Y03129D01*
X025929Y031292D01*
X025943Y031296D01*
X025955Y031304D01*
X025966Y031316D01*
X025975Y03133D01*
X025982Y031348D01*
X025988Y031368D01*
X025992Y031392D01*
X025994Y03142D01*
X025995Y03145D01*
Y03105D01*
D02*
G37*
G36*
X043289Y027588D02*
X043251Y027621D01*
X043206Y02765D01*
X043155Y027676D01*
X043097Y027698D01*
X043032Y027717D01*
X04296Y027733D01*
X042881Y027745D01*
X042704Y027758D01*
X042605Y02776D01*
Y02784D01*
X042704Y027842D01*
X042881Y027855D01*
X04296Y027867D01*
X043032Y027883D01*
X043097Y027902D01*
X043155Y027924D01*
X043206Y02795D01*
X043251Y027979D01*
X043289Y028012D01*
Y027588D01*
D02*
G37*
G36*
X04413Y027229D02*
X044207Y027165D01*
X044244Y02714D01*
X044279Y027121D01*
X044313Y027105D01*
X044345Y027095D01*
X044377Y027089D01*
X044407Y027088D01*
X044435Y027092D01*
X044208Y026865D01*
X044212Y026893D01*
X044211Y026923D01*
X044205Y026955D01*
X044195Y026987D01*
X044179Y027021D01*
X04416Y027056D01*
X044135Y027093D01*
X044106Y027131D01*
X044071Y02717D01*
X044033Y027211D01*
X044089Y027267D01*
X04413Y027229D01*
D02*
G37*
G36*
X043289Y026588D02*
X043251Y026621D01*
X043206Y02665D01*
X043155Y026676D01*
X043097Y026698D01*
X043032Y026717D01*
X04296Y026733D01*
X042881Y026745D01*
X042704Y026758D01*
X042605Y02676D01*
Y02684D01*
X042704Y026842D01*
X042881Y026855D01*
X04296Y026867D01*
X043032Y026883D01*
X043097Y026902D01*
X043155Y026924D01*
X043206Y02695D01*
X043251Y026979D01*
X043289Y027012D01*
Y026588D01*
D02*
G37*
G36*
X044177Y026231D02*
X044248Y026171D01*
X044281Y026148D01*
X044313Y026128D01*
X044344Y026113D01*
X044373Y026102D01*
X0444Y026096D01*
X044427Y026093D01*
X044451Y026095D01*
X044224Y025917D01*
X044231Y025939D01*
X044233Y025963D01*
X044231Y025988D01*
X044223Y026015D01*
X044212Y026044D01*
X044195Y026074D01*
X044174Y026106D01*
X044148Y026139D01*
X044118Y026174D01*
X044082Y026211D01*
X044139Y026267D01*
X044177Y026231D01*
D02*
G37*
G36*
X043289Y025588D02*
X043251Y025621D01*
X043206Y02565D01*
X043155Y025676D01*
X043097Y025698D01*
X043032Y025717D01*
X04296Y025733D01*
X042881Y025745D01*
X042704Y025758D01*
X042605Y02576D01*
Y02584D01*
X042704Y025842D01*
X042881Y025855D01*
X04296Y025867D01*
X043032Y025883D01*
X043097Y025902D01*
X043155Y025924D01*
X043206Y02595D01*
X043251Y025979D01*
X043289Y026012D01*
Y025588D01*
D02*
G37*
G36*
X04413Y025229D02*
X044207Y025165D01*
X044244Y02514D01*
X044279Y025121D01*
X044313Y025105D01*
X044345Y025095D01*
X044377Y025089D01*
X044407Y025088D01*
X044435Y025092D01*
X044208Y024865D01*
X044212Y024893D01*
X044211Y024923D01*
X044205Y024955D01*
X044195Y024987D01*
X044179Y025021D01*
X04416Y025056D01*
X044135Y025093D01*
X044106Y025131D01*
X044071Y02517D01*
X044033Y025211D01*
X044089Y025268D01*
X04413Y025229D01*
D02*
G37*
G36*
X043272Y024607D02*
X04323Y02465D01*
X043182Y02469D01*
X04313Y024724D01*
X043071Y024754D01*
X043007Y02478D01*
X042938Y024801D01*
X042863Y024817D01*
X042782Y024828D01*
X042696Y024835D01*
X042605Y024837D01*
X042626Y024917D01*
X042732Y024919D01*
X042998Y024935D01*
X04307Y024946D01*
X04319Y024973D01*
X043238Y02499D01*
X043278Y025009D01*
X043309Y02503D01*
X043272Y024607D01*
D02*
G37*
G36*
X044031Y024328D02*
X044084Y024283D01*
X044137Y024243D01*
X04419Y024208D01*
X044244Y024177D01*
X044299Y024152D01*
X044353Y024131D01*
X044408Y024116D01*
X044464Y024105D01*
X044519Y024099D01*
X044201Y023781D01*
X044195Y023836D01*
X044184Y023892D01*
X044169Y023947D01*
X044148Y024001D01*
X044123Y024056D01*
X044092Y02411D01*
X044057Y024163D01*
X044017Y024216D01*
X043972Y024269D01*
X043922Y024322D01*
X043978Y024378D01*
X044031Y024328D01*
D02*
G37*
G36*
X04321Y023725D02*
X043207Y023731D01*
X043201Y023737D01*
X043192Y023743D01*
X04318Y023747D01*
X043166Y023751D01*
X043148Y023754D01*
X043128Y023757D01*
X043079Y02376D01*
X04305Y02376D01*
Y02384D01*
X043079Y02384D01*
X043148Y023846D01*
X043166Y023849D01*
X04318Y023853D01*
X043192Y023857D01*
X043201Y023863D01*
X043207Y023869D01*
X04321Y023875D01*
Y023725D01*
D02*
G37*
G36*
X040792Y023121D02*
X040796Y023107D01*
X040804Y023095D01*
X040816Y023084D01*
X04083Y023075D01*
X040848Y023068D01*
X040868Y023062D01*
X040892Y023058D01*
X04092Y023056D01*
X04095Y023055D01*
X04055D01*
X04058Y023056D01*
X040608Y023058D01*
X040632Y023062D01*
X040652Y023068D01*
X04067Y023075D01*
X040684Y023084D01*
X040696Y023095D01*
X040704Y023107D01*
X040708Y023121D01*
X04071Y023136D01*
X04079D01*
X040792Y023121D01*
D02*
G37*
G36*
X039992D02*
X039996Y023107D01*
X040004Y023095D01*
X040016Y023084D01*
X04003Y023075D01*
X040048Y023068D01*
X040068Y023062D01*
X040092Y023058D01*
X04012Y023056D01*
X04015Y023055D01*
X03975D01*
X03978Y023056D01*
X039808Y023058D01*
X039832Y023062D01*
X039852Y023068D01*
X03987Y023075D01*
X039884Y023084D01*
X039896Y023095D01*
X039904Y023107D01*
X039908Y023121D01*
X03991Y023136D01*
X03999D01*
X039992Y023121D01*
D02*
G37*
G36*
X038692D02*
X038696Y023107D01*
X038704Y023095D01*
X038716Y023084D01*
X03873Y023075D01*
X038748Y023068D01*
X038768Y023062D01*
X038792Y023058D01*
X03882Y023056D01*
X03885Y023055D01*
X03845D01*
X03848Y023056D01*
X038508Y023058D01*
X038532Y023062D01*
X038552Y023068D01*
X03857Y023075D01*
X038584Y023084D01*
X038596Y023095D01*
X038604Y023107D01*
X038608Y023121D01*
X03861Y023136D01*
X03869D01*
X038692Y023121D01*
D02*
G37*
G36*
X037942D02*
X037946Y023107D01*
X037954Y023095D01*
X037966Y023084D01*
X03798Y023075D01*
X037998Y023068D01*
X038018Y023062D01*
X038042Y023058D01*
X03807Y023056D01*
X0381Y023055D01*
X0377D01*
X03773Y023056D01*
X037758Y023058D01*
X037782Y023062D01*
X037802Y023068D01*
X03782Y023075D01*
X037834Y023084D01*
X037846Y023095D01*
X037854Y023107D01*
X037858Y023121D01*
X03786Y023136D01*
X03794D01*
X037942Y023121D01*
D02*
G37*
G36*
X035779Y023371D02*
X035794Y023199D01*
X035803Y023152D01*
X035814Y02311D01*
X035827Y023073D01*
X035842Y02304D01*
X035859Y023013D01*
X035878Y022991D01*
X035599D01*
X035618Y023013D01*
X035635Y02304D01*
X03565Y023073D01*
X035663Y02311D01*
X035673Y023152D01*
X035682Y023199D01*
X035689Y023251D01*
X035697Y023371D01*
X035698Y023438D01*
X035778D01*
X035779Y023371D01*
D02*
G37*
G36*
X03722Y023339D02*
X037204Y023311D01*
X037189Y023279D01*
X037176Y023242D01*
X037165Y023199D01*
X037156Y023152D01*
X037149Y023103D01*
X037154Y023095D01*
X037166Y023084D01*
X03718Y023075D01*
X037198Y023068D01*
X037218Y023062D01*
X037242Y023058D01*
X03727Y023056D01*
X0373Y023055D01*
X037146D01*
X037141Y022981D01*
X03714Y022914D01*
X03706D01*
X037059Y022981D01*
X037053Y023055D01*
X0369D01*
X03693Y023056D01*
X036958Y023058D01*
X036982Y023062D01*
X037002Y023068D01*
X03702Y023075D01*
X037034Y023084D01*
X037046Y023095D01*
X037049Y0231D01*
X037044Y023152D01*
X037035Y023199D01*
X037024Y023242D01*
X037011Y023279D01*
X036996Y023311D01*
X03698Y023339D01*
X036961Y023361D01*
X037239D01*
X03722Y023339D01*
D02*
G37*
G36*
X031191Y022921D02*
X031193Y022907D01*
X031197Y022895D01*
X031202Y022885D01*
X031209Y022876D01*
X031217Y022869D01*
X031227Y022863D01*
X031238Y022859D01*
X031251Y022857D01*
X031265Y022856D01*
X03095Y022855D01*
X03098Y022856D01*
X031008Y022859D01*
X031032Y022863D01*
X031052Y022868D01*
X03107Y022876D01*
X031084Y022885D01*
X031096Y022895D01*
X031104Y022907D01*
X031108Y022921D01*
X03111Y022936D01*
X03119D01*
X031191Y022921D01*
D02*
G37*
G36*
X030541D02*
X030543Y022907D01*
X030547Y022895D01*
X030552Y022885D01*
X030559Y022876D01*
X030567Y022869D01*
X030577Y022863D01*
X030588Y022859D01*
X030601Y022857D01*
X030615Y022856D01*
X0303Y022855D01*
X03033Y022856D01*
X030358Y022859D01*
X030382Y022863D01*
X030402Y022868D01*
X03042Y022876D01*
X030434Y022885D01*
X030446Y022895D01*
X030454Y022907D01*
X030458Y022921D01*
X03046Y022936D01*
X03054D01*
X030541Y022921D01*
D02*
G37*
G36*
X029841D02*
X029845Y022907D01*
X029851Y022895D01*
X02986Y022885D01*
X029871Y022876D01*
X029885Y022869D01*
X029901Y022863D01*
X02992Y022859D01*
X029942Y022857D01*
X029965Y022856D01*
X0296Y022855D01*
X02963Y022856D01*
X029658Y022859D01*
X029682Y022863D01*
X029702Y022868D01*
X02972Y022876D01*
X029734Y022885D01*
X029746Y022895D01*
X029754Y022907D01*
X029758Y022921D01*
X02976Y022936D01*
X02984D01*
X029841Y022921D01*
D02*
G37*
G36*
X029091D02*
X029095Y022907D01*
X029101Y022895D01*
X02911Y022885D01*
X029121Y022876D01*
X029135Y022869D01*
X029151Y022863D01*
X02917Y022859D01*
X029192Y022857D01*
X029215Y022856D01*
X02885Y022855D01*
X02888Y022856D01*
X028908Y022859D01*
X028932Y022863D01*
X028952Y022868D01*
X02897Y022876D01*
X028984Y022885D01*
X028996Y022895D01*
X029004Y022907D01*
X029008Y022921D01*
X02901Y022936D01*
X02909D01*
X029091Y022921D01*
D02*
G37*
G36*
X044086Y023279D02*
X044133Y02324D01*
X044178Y023205D01*
X044224Y023175D01*
X044269Y02315D01*
X044313Y02313D01*
X044357Y023115D01*
X044401Y023105D01*
X044444Y023099D01*
X044487Y023099D01*
X044202Y022823D01*
X044202Y022865D01*
X044198Y022908D01*
X044189Y022951D01*
X044174Y022995D01*
X044155Y023039D01*
X044131Y023083D01*
X044101Y023129D01*
X044067Y023174D01*
X044028Y02322D01*
X043983Y023267D01*
X04404Y023324D01*
X044086Y023279D01*
D02*
G37*
G36*
X041716Y023034D02*
X041719Y023014D01*
X041723Y022997D01*
X041728Y022982D01*
X041735Y022969D01*
X041744Y022959D01*
X041755Y02295D01*
X041767Y022945D01*
X04178Y022941D01*
X041795Y02294D01*
Y02286D01*
X04178Y022859D01*
X041767Y022855D01*
X041755Y02285D01*
X041744Y022841D01*
X041735Y022831D01*
X041728Y022818D01*
X041723Y022803D01*
X041719Y022786D01*
X041716Y022766D01*
X041715Y022744D01*
Y023056D01*
X041716Y023034D01*
D02*
G37*
G36*
X036441Y022819D02*
X036456Y022648D01*
X036465Y022601D01*
X036476Y022558D01*
X036489Y022521D01*
X036504Y022489D01*
X03652Y022461D01*
X036539Y022439D01*
X036261D01*
X03628Y022461D01*
X036296Y022489D01*
X036311Y022521D01*
X036324Y022558D01*
X036335Y022601D01*
X036344Y022648D01*
X036351Y0227D01*
X036359Y022819D01*
X03636Y022886D01*
X03644D01*
X036441Y022819D01*
D02*
G37*
G36*
X044121Y022238D02*
X044201Y022172D01*
X044239Y022146D01*
X044277Y022125D01*
X044312Y022109D01*
X044347Y022098D01*
X044381Y022092D01*
X044413Y022091D01*
X044444Y022094D01*
X044206Y021856D01*
X044209Y021887D01*
X044208Y021919D01*
X044202Y021953D01*
X044191Y021988D01*
X044175Y022023D01*
X044154Y022061D01*
X044128Y022099D01*
X044098Y022139D01*
X044062Y022179D01*
X044022Y022221D01*
X044079Y022278D01*
X044121Y022238D01*
D02*
G37*
G36*
X042945Y022364D02*
X043075Y022257D01*
X043138Y022213D01*
X0432Y022177D01*
X043261Y022148D01*
X04332Y022125D01*
X043378Y022109D01*
X043435Y022101D01*
X043491Y022099D01*
X043201Y021786D01*
X043195Y021831D01*
X043183Y021879D01*
X043163Y02193D01*
X043135Y021984D01*
X043101Y022041D01*
X04306Y022101D01*
X043011Y022164D01*
X042892Y022299D01*
X042822Y022372D01*
X042878Y022428D01*
X042945Y022364D01*
D02*
G37*
G36*
X044051Y021308D02*
X0441Y021267D01*
X04415Y02123D01*
X0442Y021197D01*
X044251Y02117D01*
X044303Y021146D01*
X044355Y021128D01*
X044408Y021114D01*
X044461Y021104D01*
X044515Y021099D01*
X044201Y020785D01*
X044196Y020839D01*
X044186Y020892D01*
X044172Y020945D01*
X044154Y020997D01*
X04413Y021049D01*
X044103Y0211D01*
X04407Y02115D01*
X044033Y0212D01*
X043992Y021249D01*
X043946Y021298D01*
X044002Y021354D01*
X044051Y021308D01*
D02*
G37*
G36*
X043205Y02075D02*
X043204Y020752D01*
X0432Y020753D01*
X043195Y020755D01*
X043187Y020756D01*
X043178Y020757D01*
X043153Y020759D01*
X0431Y02076D01*
Y02084D01*
X04312Y02084D01*
X043195Y020845D01*
X0432Y020847D01*
X043204Y020848D01*
X043205Y02085D01*
Y02075D01*
D02*
G37*
G36*
X032641Y020657D02*
X032644Y020644D01*
X032649Y020632D01*
X032657Y020621D01*
X032666Y020612D01*
X032677Y020605D01*
X032691Y0206D01*
X032707Y020596D01*
X032724Y020593D01*
X032744Y020593D01*
X0324Y020591D01*
X03243Y020592D01*
X032458Y020595D01*
X032482Y020599D01*
X032502Y020605D01*
X03252Y020612D01*
X032534Y020621D01*
X032546Y020631D01*
X032554Y020643D01*
X032558Y020657D01*
X03256Y020673D01*
X03264D01*
X032641Y020657D01*
D02*
G37*
G36*
X03164Y020603D02*
X031641Y020588D01*
X031642Y020574D01*
X031645Y02056D01*
X031649Y020546D01*
X031654Y020532D01*
X03166Y020518D01*
X031667Y020504D01*
X031676Y02049D01*
X031685Y020476D01*
X031696Y020463D01*
X0314Y020588D01*
X03143Y020576D01*
X031458Y020569D01*
X031482Y020565D01*
X031502Y020566D01*
X03152Y02057D01*
X031534Y020579D01*
X031546Y020591D01*
X031554Y020607D01*
X031558Y020628D01*
X03156Y020652D01*
X03164Y020603D01*
D02*
G37*
G36*
X031741Y019533D02*
X031733Y019524D01*
X031728Y019512D01*
X031723Y019499D01*
X031721Y019484D01*
X03172Y019468D01*
X03172Y019449D01*
X031723Y019429D01*
X031727Y019406D01*
X031732Y019382D01*
X03174Y019356D01*
X031508Y019588D01*
X031534Y019581D01*
X03158Y019571D01*
X031601Y019569D01*
X031619Y019568D01*
X031636Y019569D01*
X031651Y019572D01*
X031664Y019576D01*
X031675Y019582D01*
X031684Y019589D01*
X031741Y019533D01*
D02*
G37*
G36*
X032893Y019305D02*
X032896Y019291D01*
X0329Y019279D01*
X032906Y019269D01*
X032913Y01926D01*
X032922Y019253D01*
X032933Y019247D01*
X032945Y019243D01*
X03296Y019241D01*
X032975Y01924D01*
Y01916D01*
X03296Y019159D01*
X032945Y019157D01*
X032933Y019153D01*
X032922Y019147D01*
X032913Y01914D01*
X032906Y019131D01*
X0329Y019121D01*
X032896Y019109D01*
X032893Y019095D01*
X032892Y01908D01*
Y01932D01*
X032893Y019305D01*
D02*
G37*
G36*
X032726Y019369D02*
X032729Y019342D01*
X032734Y019318D01*
X032741Y019297D01*
X03275Y01928D01*
X032761Y019266D01*
X032774Y019254D01*
X032789Y019246D01*
X032806Y019242D01*
X032826Y01924D01*
Y01916D01*
X032806Y019158D01*
X032789Y019154D01*
X032774Y019146D01*
X032761Y019134D01*
X03275Y01912D01*
X032741Y019103D01*
X032734Y019082D01*
X032729Y019058D01*
X032726Y019031D01*
X032725Y019D01*
X032725Y0194D01*
X032726Y019369D01*
D02*
G37*
G36*
X0364Y03725D02*
Y03705D01*
X0368Y03665D01*
Y03655D01*
X03645Y0362D01*
X0351Y03755D01*
X0356Y03805D01*
X0364Y03725D01*
D02*
G37*
G36*
X029521Y031774D02*
X029547Y0318D01*
X02955Y031787D01*
X029558Y031769D01*
X029571Y031747D01*
X02959Y031721D01*
X029645Y031655D01*
X029648Y031653D01*
X029862Y031446D01*
X029704Y031288D01*
X0297Y031295D01*
X029688Y03131D01*
X029637Y031365D01*
X029586Y031417D01*
X029403Y031579D01*
X029381Y031592D01*
X029363Y0316D01*
X02935Y031603D01*
X029377Y03163D01*
X029279Y031729D01*
X029421Y031871D01*
X029521Y031774D01*
D02*
G37*
G36*
X03215Y02935D02*
X0321D01*
X0317Y02895D01*
X0308Y02985D01*
X03085D01*
X03125Y03025D01*
X03215Y02935D01*
D02*
G37*
G36*
X032993Y027452D02*
X032994Y027451D01*
X033027Y027414D01*
X032878D01*
X032913Y027453D01*
X032993D01*
X032993Y027452D01*
D02*
G37*
G36*
X033148Y027404D02*
X033153Y027375D01*
X033163Y027345D01*
X033179Y027311D01*
X033201Y027275D01*
X033227Y027236D01*
X033259Y027195D01*
X033339Y027104D01*
X033387Y027054D01*
X033172Y026986D01*
X032926Y027258D01*
X033148Y027429D01*
X033148Y027404D01*
D02*
G37*
G36*
X033575Y026867D02*
X033797Y026671D01*
X033819Y026658D01*
X033837Y02665D01*
X03385Y026647D01*
X033653Y02645D01*
X03365Y026463D01*
X033642Y026481D01*
X033629Y026503D01*
X03361Y026529D01*
X033555Y026595D01*
X033433Y026725D01*
X033381Y026778D01*
X033522Y026919D01*
X033575Y026867D01*
D02*
G37*
G36*
X04167Y021944D02*
X041642Y021942D01*
X041618Y021938D01*
X041598Y021932D01*
X04158Y021925D01*
X041566Y021916D01*
X041554Y021905D01*
X041546Y021893D01*
X041542Y021879D01*
X04154Y021864D01*
X04146D01*
X041458Y021879D01*
X041454Y021893D01*
X041446Y021905D01*
X041434Y021916D01*
X04142Y021925D01*
X041402Y021932D01*
X041382Y021938D01*
X041358Y021942D01*
X04133Y021944D01*
X0413Y021945D01*
X0417D01*
X04167Y021944D01*
D02*
G37*
G36*
X04012D02*
X040092Y021942D01*
X040068Y021938D01*
X040048Y021932D01*
X04003Y021925D01*
X040016Y021916D01*
X040004Y021905D01*
X039996Y021893D01*
X039992Y021879D01*
X03999Y021864D01*
X03991D01*
X039908Y021879D01*
X039904Y021893D01*
X039896Y021905D01*
X039884Y021916D01*
X03987Y021925D01*
X039852Y021932D01*
X039832Y021938D01*
X039808Y021942D01*
X03978Y021944D01*
X03975Y021945D01*
X04015D01*
X04012Y021944D01*
D02*
G37*
G36*
X04092D02*
X040892Y021942D01*
X040868Y021938D01*
X040848Y021932D01*
X04083Y021925D01*
X040816Y021916D01*
X040804Y021905D01*
X040798Y021895D01*
X04087D01*
X040855Y021894D01*
X040841Y021892D01*
X040829Y021888D01*
X040819Y021882D01*
X04081Y021875D01*
X040803Y021866D01*
X040797Y021855D01*
X040793Y021843D01*
X040791Y021829D01*
X04079Y021814D01*
X04071D01*
X040709Y021829D01*
X040707Y021843D01*
X040703Y021855D01*
X040697Y021866D01*
X04069Y021875D01*
X040681Y021882D01*
X040671Y021888D01*
X040659Y021892D01*
X040645Y021894D01*
X04063Y021895D01*
X040702D01*
X040696Y021905D01*
X040684Y021916D01*
X04067Y021925D01*
X040652Y021932D01*
X040632Y021938D01*
X040608Y021942D01*
X04058Y021944D01*
X04055Y021945D01*
X04095D01*
X04092Y021944D01*
D02*
G37*
G36*
X040636Y020707D02*
X040638Y020693D01*
X040642Y020681D01*
X040648Y020671D01*
X040655Y020662D01*
X040664Y020655D01*
X040674Y020649D01*
X040686Y020645D01*
X0407Y020642D01*
X040715Y020641D01*
X040642Y020642D01*
X040649Y020631D01*
X04066Y020621D01*
X040675Y020612D01*
X040692Y020604D01*
X040713Y020599D01*
X040737Y020595D01*
X040764Y020592D01*
X040795Y020591D01*
X040395D01*
X040425Y020592D01*
X040452Y020595D01*
X040476Y020599D01*
X040497Y020604D01*
X040515Y020612D01*
X040529Y020621D01*
X04054Y020631D01*
X040548Y020643D01*
X040553Y020657D01*
X040555Y020673D01*
X040555D01*
X040555Y020722D01*
X040635D01*
X040636Y020707D01*
D02*
G37*
G36*
X040855Y019423D02*
X040861Y019399D01*
X040868Y019378D01*
X040878Y019359D01*
X040888Y019344D01*
X040901Y019331D01*
X040915Y019321D01*
X040931Y019314D01*
X040949Y01931D01*
X040968Y019308D01*
Y019228D01*
X040951Y019227D01*
X040936Y019223D01*
X040923Y019216D01*
X040912Y019206D01*
X040904Y019193D01*
X040897Y019177D01*
X040893Y019159D01*
X040891Y019137D01*
X040891Y019113D01*
X040893Y019086D01*
X040851Y01945D01*
X040855Y019423D01*
D02*
G37*
G36*
X039741Y018843D02*
X039701Y018817D01*
X039685Y018804D01*
X039671Y018791D01*
X03966Y018779D01*
X039651Y018766D01*
X039645Y018754D01*
X039641Y018742D01*
X03964Y01873D01*
X03956D01*
X039559Y018742D01*
X039555Y018754D01*
X039549Y018766D01*
X03954Y018779D01*
X039529Y018791D01*
X039515Y018804D01*
X039499Y018817D01*
X039481Y01883D01*
X039459Y018843D01*
X039436Y018856D01*
X039764D01*
X039741Y018843D01*
D02*
G37*
G36*
X03882Y021944D02*
X038792Y021942D01*
X038768Y021938D01*
X038748Y021932D01*
X03873Y021925D01*
X038716Y021916D01*
X038704Y021905D01*
X038696Y021893D01*
X038692Y021879D01*
X03869Y021864D01*
X03861D01*
X038608Y021879D01*
X038604Y021893D01*
X038596Y021905D01*
X038584Y021916D01*
X03857Y021925D01*
X038552Y021932D01*
X038532Y021938D01*
X038508Y021942D01*
X03848Y021944D01*
X03845Y021945D01*
X03885D01*
X03882Y021944D01*
D02*
G37*
G36*
X03807D02*
X038042Y021942D01*
X038018Y021938D01*
X037998Y021932D01*
X03798Y021925D01*
X037966Y021916D01*
X037954Y021905D01*
X037946Y021893D01*
X037942Y021879D01*
X03794Y021864D01*
X03786D01*
X037858Y021879D01*
X037854Y021893D01*
X037846Y021905D01*
X037834Y021916D01*
X03782Y021925D01*
X037802Y021932D01*
X037782Y021938D01*
X037758Y021942D01*
X03773Y021944D01*
X0377Y021945D01*
X0381D01*
X03807Y021944D01*
D02*
G37*
G36*
X03727D02*
X037242Y021942D01*
X037218Y021938D01*
X037198Y021932D01*
X03718Y021925D01*
X037166Y021916D01*
X037154Y021905D01*
X037146Y021893D01*
X037142Y021879D01*
X03714Y021864D01*
X03706D01*
X037058Y021879D01*
X037054Y021893D01*
X037046Y021905D01*
X037034Y021916D01*
X03702Y021925D01*
X037002Y021932D01*
X036982Y021938D01*
X036958Y021942D01*
X03693Y021944D01*
X0369Y021945D01*
X0373D01*
X03727Y021944D01*
D02*
G37*
G36*
X037641Y020658D02*
X037645Y020646D01*
X037651Y020634D01*
X03766Y020621D01*
X037671Y020609D01*
X037685Y020596D01*
X037701Y020583D01*
X037719Y02057D01*
X037741Y020557D01*
X037764Y020544D01*
X037436D01*
X037459Y020557D01*
X037499Y020583D01*
X037515Y020596D01*
X037529Y020609D01*
X03754Y020621D01*
X037549Y020634D01*
X037555Y020646D01*
X037559Y020658D01*
X03756Y02067D01*
X03764D01*
X037641Y020658D01*
D02*
G37*
G36*
X036891Y019533D02*
X036883Y019524D01*
X036878Y019512D01*
X036873Y019499D01*
X036871Y019484D01*
X03687Y019468D01*
X03687Y019449D01*
X036873Y019429D01*
X036877Y019406D01*
X036882Y019382D01*
X03689Y019356D01*
X036658Y019588D01*
X036684Y019581D01*
X03673Y019571D01*
X036751Y019569D01*
X036769Y019568D01*
X036786Y019569D01*
X036801Y019572D01*
X036814Y019576D01*
X036825Y019582D01*
X036834Y019589D01*
X036891Y019533D01*
D02*
G37*
G36*
X038375Y019582D02*
X038386Y019576D01*
X038399Y019572D01*
X038414Y019569D01*
X038431Y019568D01*
X038449Y019569D01*
X03847Y019571D01*
X038492Y019575D01*
X038516Y019581D01*
X038542Y019588D01*
X03831Y019356D01*
X038318Y019382D01*
X038327Y019429D01*
X03833Y019449D01*
X03833Y019468D01*
X038329Y019484D01*
X038327Y019499D01*
X038322Y019512D01*
X038317Y019524D01*
X038309Y019533D01*
X038366Y019589D01*
X038375Y019582D01*
D02*
G37*
D13*
X0285Y045D02*
X0296D01*
X02965Y04495D01*
X03Y0446D01*
Y043D02*
Y0446D01*
X03255Y041394D02*
Y0446D01*
X02965Y04495D02*
X0322D01*
X03255Y0446D01*
X0291Y040508D02*
Y042792D01*
X0354Y0476D02*
X0363D01*
X03495Y04805D02*
X0354Y0476D01*
X0275Y036344D02*
X03255Y041394D01*
X0275Y0215D02*
Y036344D01*
X0243Y0228D02*
X0248Y0233D01*
X02625D01*
X0264Y02315D01*
Y0226D02*
Y02315D01*
X0268Y0208D02*
X0275Y0215D01*
X0268Y0194D02*
X0271Y0191D01*
X0268Y0194D02*
Y0208D01*
X0271Y0191D02*
X0277D01*
X02935Y0318D02*
X0299Y03125D01*
X036Y03715D02*
X03645Y0367D01*
X032953Y027347D02*
X03385Y02645D01*
D28*
X0297Y04715D02*
D03*
X0289D02*
D03*
X0371Y0476D02*
D03*
X0363D02*
D03*
X0363Y0483D02*
D03*
X0371D02*
D03*
X0297Y04645D02*
D03*
X0289D02*
D03*
X02615Y03125D02*
D03*
X02695D02*
D03*
X02615Y03195D02*
D03*
X02695D02*
D03*
D32*
X03135Y0424D02*
D03*
Y0417D02*
D03*
X0277Y0198D02*
D03*
Y0191D02*
D03*
D36*
X0264Y0218D02*
D03*
Y0226D02*
D03*
X029Y0227D02*
D03*
Y0219D02*
D03*
X0415Y0221D02*
D03*
Y0229D02*
D03*
X0371D02*
D03*
Y0221D02*
D03*
X0379Y0229D02*
D03*
Y0221D02*
D03*
X03865Y0229D02*
D03*
Y0221D02*
D03*
X04075D02*
D03*
Y0229D02*
D03*
X03995Y0221D02*
D03*
Y0229D02*
D03*
X03105Y0219D02*
D03*
Y0227D02*
D03*
X0304D02*
D03*
Y0219D02*
D03*
X02975Y0227D02*
D03*
Y0219D02*
D03*
D64*
X041362Y045467D02*
D03*
X036622D02*
D03*
D67*
X031915Y047123D02*
G03*
X031896Y047124I-000015J-000337D01*
G01*
X0397Y0185D02*
X041019D01*
X0396Y0186D02*
Y0192D01*
Y0186D02*
X0397Y0185D01*
X040595Y020505D02*
X04085Y02025D01*
X03985Y019185D02*
Y01925D01*
X02845Y020448D02*
X0286Y020298D01*
X0284Y020498D02*
X02845Y020448D01*
X0279Y020998D02*
Y026656D01*
X03455Y0313D02*
X035192D01*
X0366Y030368D02*
X0366D01*
X03412Y037112D02*
X034231Y032768D01*
X035192Y0313D02*
X035202Y03129D01*
X034231Y032768D02*
X034232Y032736D01*
X0366Y030368D01*
X03385Y0327D02*
X034296Y032254D01*
Y032196D02*
Y032254D01*
X027175Y045075D02*
X02855Y04645D01*
X025975Y045075D02*
X027175D01*
X02855Y04645D02*
X0289D01*
X02555Y0461D02*
X02575Y0463D01*
X02725D01*
X02805Y0471D01*
X02555Y04565D02*
Y0461D01*
X02805Y0471D02*
X02895D01*
X0297Y04645D02*
X03215D01*
X02975Y0471D02*
X031896Y047124D01*
X03215Y04645D02*
X03385Y04475D01*
X034Y046D02*
Y048D01*
Y046D02*
X03455Y04545D01*
Y03955D02*
Y04545D01*
X03535Y03875D02*
X03795D01*
X03455Y03955D02*
X03535Y03875D01*
X03403Y045075D02*
X03412Y037112D01*
X0343Y037187D02*
Y0452D01*
X03205Y04745D02*
X034277Y045223D01*
X034323Y037163D02*
X034537Y03695D01*
X0343Y037187D02*
X034323Y037163D01*
X034277Y045223D02*
X0343Y0452D01*
X032138Y046967D02*
X03403Y045075D01*
X03195Y04755D02*
X03205Y04745D01*
X03385Y0327D02*
Y04475D01*
X03196Y047121D02*
X032138Y046967D01*
X03095Y046113D02*
X032037D01*
X0335Y0383D02*
Y04465D01*
Y03235D02*
Y0383D01*
X032037Y046113D02*
X0335Y04465D01*
X031915Y047123D02*
X03196Y047121D01*
X0335Y03235D02*
X03455Y0313D01*
X042597Y021903D02*
Y022398D01*
X043174Y021326D02*
X043974D01*
X042597Y021903D02*
X043174Y021326D01*
X03642Y02417D02*
X04268D01*
X04305Y0238D02*
X0435D01*
X04268Y02417D02*
X04305Y0238D01*
X036917Y023917D02*
X042483D01*
X043105Y023295D01*
X044011D01*
X038237Y023737D02*
X042213D01*
X043478Y022822D02*
X0435Y0228D01*
X042213Y023737D02*
X043128Y022822D01*
X043478D01*
X04285Y0224D02*
Y0224D01*
X042275Y021625D02*
Y022466D01*
X039997Y023377D02*
X041873D01*
X041841Y0229D02*
X042275Y022466D01*
X0415Y0229D02*
X041841D01*
X041798Y023197D02*
X042597Y022398D01*
X0408Y023197D02*
X041798D01*
X041873Y023377D02*
X04285Y0224D01*
X042093Y023557D02*
X04305Y0226D01*
X03865Y0229D02*
Y0233D01*
X0434Y02225D02*
X04405D01*
X03865Y0233D02*
X038907Y023557D01*
X04305Y0226D02*
Y0226D01*
Y0226D02*
X0434Y02225D01*
X038907Y023557D02*
X042093D01*
X03195Y04755D02*
Y04805D01*
X0379Y0215D02*
Y0221D01*
X03785Y02145D02*
X0379Y0215D01*
X0376Y0212D02*
X03785Y02145D01*
X0376Y0202D02*
Y0212D01*
X03275Y031775D02*
Y0318D01*
Y031775D02*
X03365Y030875D01*
Y03085D02*
Y030875D01*
Y03085D02*
X033667Y030833D01*
X02555Y04465D02*
X025975Y045075D01*
X025247Y044397D02*
X025249D01*
X025433Y044582D02*
Y044583D01*
X025249Y044397D02*
X025433Y044582D01*
X0371Y0476D02*
Y0483D01*
Y04695D02*
Y0476D01*
X03395Y04805D02*
X034Y048D01*
X0358Y04825D02*
Y048335D01*
Y04825D02*
X03625D01*
X0363Y0483D01*
X041285Y019585D02*
Y020824D01*
X0406Y0192D02*
X040668Y019268D01*
X040968D01*
X041285Y019585D01*
X0371Y019798D02*
Y0221D01*
X040697Y033D02*
X04105Y033353D01*
Y0403D01*
X040157Y027239D02*
X044061D01*
X044602Y026698D01*
X0305Y0227D02*
Y0232D01*
X044111Y026239D02*
X04463Y02572D01*
X039666Y026239D02*
X044111D01*
X0316Y0202D02*
Y0232D01*
X044061Y025239D02*
X0445Y0248D01*
X039176Y025239D02*
X044061D01*
X043423Y024877D02*
X0435Y0248D01*
X034627Y024877D02*
X043423D01*
X0435Y0258D02*
X0436D01*
X0326Y0202D02*
Y02285D01*
X0431Y0208D02*
X0435D01*
X04345Y0218D02*
X0435D01*
X04285Y0224D02*
X04345Y0218D01*
X04395Y02435D02*
X0445Y0238D01*
X034595Y02435D02*
X04395D01*
X0445Y0228D02*
Y022807D01*
X044011Y023295D02*
X0445Y022807D01*
X04405Y02225D02*
X0445Y0218D01*
X043974Y021326D02*
X0445Y0208D01*
X041019Y0185D02*
X0415Y018981D01*
X03785Y02205D02*
X03785Y02205D01*
X0386Y0192D02*
Y019298D01*
X03815Y019748D02*
X0386Y019298D01*
X03815Y019748D02*
Y02115D01*
X03865Y02165D01*
Y0221D01*
X0366Y0192D02*
Y019298D01*
X0371Y019798D01*
X02845Y0202D02*
Y020448D01*
X0284Y025565D02*
X028703Y025868D01*
X0279Y020998D02*
X0284Y020498D01*
Y025565D01*
X02808Y0202D02*
X02845D01*
X029Y0227D02*
X02905Y02275D01*
Y0234D02*
X031607Y025957D01*
X02905Y02275D02*
Y0234D01*
X029015Y021865D02*
X02905Y0219D01*
X029015Y019734D02*
Y021865D01*
X03195Y0231D02*
X033907Y025057D01*
X03145Y0192D02*
Y019298D01*
X03195Y019798D01*
Y0231D01*
X02945Y0192D02*
Y019298D01*
X029015Y019734D02*
X02945Y019298D01*
X02945Y0202D02*
Y02085D01*
X02975Y02115D01*
Y0219D01*
X03045Y0192D02*
Y019298D01*
X03Y019748D02*
X03045Y019298D01*
X03Y019748D02*
Y0209D01*
X0304Y0213D01*
Y0219D01*
X03105Y020805D02*
Y0219D01*
X03045Y020205D02*
X03105Y020805D01*
X03045Y0202D02*
Y020205D01*
X030624Y020374D02*
X030698D01*
X03045Y0202D02*
X030624Y020374D01*
X0415Y018981D02*
Y0221D01*
X0371Y04695D02*
X0371Y04695D01*
X0371Y04695D02*
X03715Y047D01*
X03845D01*
X02615Y031917D02*
Y03195D01*
X026033Y0318D02*
X02615Y031917D01*
X0253Y0318D02*
X026033D01*
X02475Y03125D02*
X02615D01*
X0243Y0308D02*
X02475Y03125D01*
X042275Y021625D02*
X0431Y0208D01*
X0304Y02265D02*
Y0227D01*
X040464Y0278D02*
X0435D01*
X035738Y022851D02*
Y023488D01*
X03642Y02417D01*
X033267Y025417D02*
X038845D01*
X033907Y025057D02*
X038994D01*
X031607Y025957D02*
X038621D01*
X0298Y02335D02*
X032227Y025777D01*
X038696D02*
X040157Y027239D01*
X032897Y025597D02*
X03877D01*
X03115Y0233D02*
X033267Y025417D01*
X038919Y025237D02*
X039482Y0258D01*
X038845Y025417D02*
X039666Y026239D01*
X032227Y025777D02*
X038696D01*
X037785Y0263D02*
X037885Y0262D01*
X033637Y025237D02*
X038919D01*
X0316Y0232D02*
X033637Y025237D01*
X03877Y025597D02*
X039973Y0268D01*
X0305Y0232D02*
X032897Y025597D01*
X0326Y02285D02*
X034627Y024877D01*
X038994Y025057D02*
X039176Y025239D01*
X038621Y025957D02*
X040464Y0278D01*
X0377Y0263D02*
X037785D01*
X039973Y0268D02*
X0435D01*
X039482Y0258D02*
X0435D01*
X033667Y030533D02*
Y030833D01*
Y030533D02*
X034934Y029266D01*
X0371Y0229D02*
Y0235D01*
X0364Y0223D02*
Y0234D01*
X036917Y023917D01*
X028703Y025868D02*
Y025953D01*
X0334Y023155D02*
X034595Y02435D01*
X0379Y0234D02*
X038237Y023737D01*
X0379Y0229D02*
Y0234D01*
X0334Y01935D02*
Y023155D01*
X0297Y022541D02*
Y0227D01*
X0298D02*
Y02335D01*
X03995Y0229D02*
Y023331D01*
X04075Y023147D02*
X0408Y023197D01*
X03995Y023331D02*
X039997Y023377D01*
X04075Y02285D02*
Y023147D01*
X03325Y0192D02*
X0334Y01935D01*
X03115Y022727D02*
Y0233D01*
X0326Y0192D02*
X03325D01*
X032953Y027347D02*
Y027453D01*
X0264Y0226D02*
X026459Y0226D01*
X0277Y01982D02*
X02808Y0202D01*
X0277Y0198D02*
Y01982D01*
X03995Y0216D02*
Y0221D01*
Y0216D02*
X040595Y020955D01*
Y020505D02*
Y020955D01*
X04075Y021359D02*
X041285Y020824D01*
X04075Y021359D02*
Y02205D01*
D68*
X036622Y045654D02*
X041362D01*
X044599Y041701D02*
Y0418D01*
X043538Y0408D02*
Y040978D01*
X0435Y040762D02*
X043538Y0408D01*
X043162Y040762D02*
X0435D01*
X0445Y028838D02*
X044966D01*
X044486Y028314D02*
Y028824D01*
Y028314D02*
X04525Y02755D01*
X03295Y04895D02*
X041128D01*
X028634D02*
X03295D01*
X0245Y04455D02*
Y04555D01*
X0243Y04075D02*
X02455D01*
X02695Y03195D02*
Y040095D01*
X027184Y040329D02*
X0291D01*
X02695Y03125D02*
Y03195D01*
X02655Y0406D02*
Y04465D01*
Y0406D02*
X027003Y040147D01*
X02695Y040095D02*
X027184Y040329D01*
X0291Y040329D02*
Y040508D01*
X02835Y0479D02*
Y048666D01*
X028634Y04895D01*
X0262Y02D02*
Y02035D01*
X028536Y019136D02*
X0286Y0192D01*
X027717Y019136D02*
X028536D01*
X03116Y04149D02*
X03135Y04168D01*
X030178Y040508D02*
X03116Y04149D01*
X0291Y040508D02*
X030178D01*
X028194Y041994D02*
Y042792D01*
X034994Y048106D02*
X035Y0481D01*
X02695Y0232D02*
Y03125D01*
X043201Y020201D02*
X045016D01*
X04525Y020435D02*
Y02755D01*
X045016Y020201D02*
X04525Y020435D01*
X042933Y045467D02*
X04455Y04385D01*
X0445Y0418D02*
X04455Y04185D01*
Y04385D01*
X04355Y0418D02*
X0445D01*
X044966Y028838D02*
X0452Y029072D01*
Y040528D01*
X044966Y040762D02*
X0452Y040528D01*
X044592Y040762D02*
X044966D01*
X044538Y040816D02*
X044592Y040762D01*
X044538Y040816D02*
Y040892D01*
X0446Y040954D01*
Y0417D01*
X044599Y041701D02*
X0446Y0417D01*
X04355Y04099D02*
Y041696D01*
X043538Y040978D02*
X04355Y04099D01*
X043538Y041708D02*
X04355Y041696D01*
X043538Y041708D02*
Y041788D01*
X04355Y0418D01*
X044486Y028824D02*
X0445Y028838D01*
X03295Y04805D02*
Y04895D01*
X041128D02*
X041362Y048716D01*
Y045654D02*
Y048716D01*
X03642Y04695D02*
X036436Y046933D01*
Y045653D02*
Y046933D01*
X024147Y040701D02*
X024208Y040762D01*
X023701Y020434D02*
X023984Y02015D01*
X023701Y020434D02*
Y040417D01*
X023984Y02015D02*
X02605D01*
X023984Y040701D02*
X024147D01*
X023701Y040417D02*
X023984Y040701D01*
X024208Y040762D02*
X024288D01*
X03135Y04168D02*
Y0417D01*
X041362Y045467D02*
Y045654D01*
Y045467D02*
X042933D01*
X04155Y03145D02*
X04235Y03225D01*
Y03995D01*
X043162Y040762D01*
X026484Y018D02*
X041D01*
X02625Y018234D02*
X026484Y018D01*
X02625Y018234D02*
Y01995D01*
X041Y018D02*
X043201Y020201D01*
X02605Y02015D02*
X0262Y02D01*
X02625Y01995D01*
X0262Y02035D02*
X0264Y02055D01*
X036436Y045653D02*
X036622Y045467D01*
X0243Y0398D02*
Y04075D01*
X0264Y02055D02*
Y0218D01*
X024288Y040762D02*
X0243Y04075D01*
X04045Y0303D02*
Y03105D01*
X03665Y0265D02*
X04045Y0303D01*
Y03105D02*
Y03165D01*
X03645Y03565D02*
X04045Y03165D01*
X03645Y03565D02*
Y0367D01*
X0299Y03125D02*
X03465Y0265D01*
X03665D01*
X03565Y03755D02*
X036475Y036725D01*
X0277Y01912D02*
X027717Y019136D01*
X0277Y0191D02*
Y01912D01*
D69*
X0313Y04415D02*
X03135Y0441D01*
Y0424D02*
Y0441D01*
D70*
X0366Y0202D02*
D03*
X0376D02*
D03*
X0386D02*
D03*
X0396D02*
D03*
X0406Y0192D02*
D03*
X0396D02*
D03*
X0386D02*
D03*
X0376D02*
D03*
X0366D02*
D03*
X02845D02*
D03*
X02945Y0192D02*
D03*
X03045D02*
D03*
X03145Y0192D02*
D03*
X03245Y0192D02*
D03*
X03145Y0202D02*
D03*
X03045D02*
D03*
X02945D02*
D03*
X02845Y0202D02*
D03*
D71*
X0406Y0202D02*
D03*
X03245Y0202D02*
D03*
D72*
X02655Y04555D02*
D03*
X03095Y04805D02*
D03*
D73*
X02655Y04455D02*
D03*
X02555D02*
D03*
X02455D02*
D03*
X02555Y04555D02*
D03*
X02455D02*
D03*
X03495Y04805D02*
D03*
X03395D02*
D03*
X03295D02*
D03*
X03195D02*
D03*
D74*
X0435Y0418D02*
D03*
Y0408D02*
D03*
X0435Y0398D02*
D03*
Y0388D02*
D03*
Y0378D02*
D03*
X0435Y0368D02*
D03*
Y0358D02*
D03*
X0435Y0348D02*
D03*
Y0338D02*
D03*
Y0328D02*
D03*
X0435Y0318D02*
D03*
X0435Y0308D02*
D03*
Y0298D02*
D03*
Y0288D02*
D03*
X0435Y0278D02*
D03*
Y0268D02*
D03*
X0435Y0258D02*
D03*
Y0248D02*
D03*
Y0238D02*
D03*
X0445Y0408D02*
D03*
Y0398D02*
D03*
Y0388D02*
D03*
Y0378D02*
D03*
Y0368D02*
D03*
Y0358D02*
D03*
Y0348D02*
D03*
Y0338D02*
D03*
Y0328D02*
D03*
Y0318D02*
D03*
Y0308D02*
D03*
Y0298D02*
D03*
Y0288D02*
D03*
Y0278D02*
D03*
Y0268D02*
D03*
Y0258D02*
D03*
Y0248D02*
D03*
Y0238D02*
D03*
Y0228D02*
D03*
Y0218D02*
D03*
Y0208D02*
D03*
X0435D02*
D03*
Y0218D02*
D03*
X0435Y0228D02*
D03*
X0243D02*
D03*
Y0218D02*
D03*
X0243Y0208D02*
D03*
X0253D02*
D03*
Y0218D02*
D03*
Y0228D02*
D03*
Y0238D02*
D03*
Y0248D02*
D03*
Y0258D02*
D03*
Y0268D02*
D03*
Y0278D02*
D03*
Y0288D02*
D03*
Y0298D02*
D03*
Y0308D02*
D03*
Y0318D02*
D03*
Y0328D02*
D03*
Y0338D02*
D03*
Y0348D02*
D03*
Y0358D02*
D03*
Y0368D02*
D03*
Y0378D02*
D03*
Y0388D02*
D03*
Y0398D02*
D03*
Y0408D02*
D03*
X0243Y0238D02*
D03*
Y0248D02*
D03*
Y0258D02*
D03*
Y0268D02*
D03*
Y0278D02*
D03*
Y0288D02*
D03*
Y0298D02*
D03*
Y0308D02*
D03*
Y0318D02*
D03*
Y0328D02*
D03*
Y0338D02*
D03*
Y0348D02*
D03*
Y0358D02*
D03*
Y0368D02*
D03*
Y0378D02*
D03*
Y0388D02*
D03*
Y0398D02*
D03*
Y0408D02*
D03*
X0243Y0418D02*
D03*
D75*
X0445D02*
D03*
X0253D02*
D03*
D76*
X0247Y0186D02*
D03*
X0444Y0478D02*
D03*
X02555D02*
D03*
X0441Y01865D02*
D03*
D77*
X0385Y043613D02*
D03*
X0385Y0444D02*
D03*
X039484D02*
D03*
X039484Y043613D02*
D03*
D78*
X030514Y027236D02*
D03*
X0291Y02865D02*
D03*
D79*
X02815Y04285D02*
D03*
X0275Y042D02*
D03*
X02745Y0428D02*
D03*
X027945Y043834D02*
D03*
Y044367D02*
D03*
X028Y045D02*
D03*
X0285D02*
D03*
X034296Y032196D02*
D03*
X035202Y03129D02*
D03*
X034934Y029266D02*
D03*
X0366Y030368D02*
D03*
X034537Y03695D02*
D03*
X0358Y0334D02*
D03*
X03275Y0318D02*
D03*
X03365Y03085D02*
D03*
X03795Y03875D02*
D03*
X040697Y033D02*
D03*
X02835Y0479D02*
D03*
X03095Y046113D02*
D03*
X0335Y0383D02*
D03*
X03035Y04335D02*
D03*
X03Y043D02*
D03*
X03035Y0425D02*
D03*
X02945Y0409D02*
D03*
X03035Y04055D02*
D03*
X0291Y040329D02*
D03*
X028194Y041994D02*
D03*
X0412Y04025D02*
D03*
X0358Y04825D02*
D03*
X0305Y0413D02*
D03*
X0313Y04135D02*
D03*
Y04415D02*
D03*
X024Y01795D02*
D03*
X02535Y01925D02*
D03*
Y01795D02*
D03*
X024Y01925D02*
D03*
X02375Y0186D02*
D03*
X02565D02*
D03*
X0247Y01765D02*
D03*
Y01955D02*
D03*
X0262Y02D02*
D03*
X03845Y047D02*
D03*
X02695Y0232D02*
D03*
X02795Y02665D02*
D03*
X035738Y022851D02*
D03*
X0444Y04875D02*
D03*
Y04685D02*
D03*
X04535Y0478D02*
D03*
X04345D02*
D03*
X0437Y04845D02*
D03*
X04505Y04715D02*
D03*
Y04845D02*
D03*
X0437Y04715D02*
D03*
X02555Y04875D02*
D03*
Y04685D02*
D03*
X0265Y0478D02*
D03*
X0246D02*
D03*
X02485Y04845D02*
D03*
X0262Y04715D02*
D03*
Y04845D02*
D03*
X02485Y04715D02*
D03*
X0441Y0196D02*
D03*
Y0177D02*
D03*
X04505Y01865D02*
D03*
X04315D02*
D03*
X0434Y0193D02*
D03*
X04475Y018D02*
D03*
Y0193D02*
D03*
X0434Y018D02*
D03*
X04045Y03105D02*
D03*
X02935Y0318D02*
D03*
X0372Y0269D02*
D03*
Y0321D02*
D03*
X03645Y0367D02*
D03*
X03565Y03755D02*
D03*
X0371Y0235D02*
D03*
X04155Y03145D02*
D03*
X028703Y025953D02*
D03*
X0364Y0223D02*
D03*
X033895Y026455D02*
D03*
X032953Y027453D02*
D03*
X0317Y0294D02*
D03*
X03135Y02975D02*
D03*
X036Y03715D02*
D03*
D80*
X028194Y042792D02*
D03*
X0291Y042792D02*
D03*
X030006Y042792D02*
D03*
D81*
X0291Y040508D02*
D03*
D82*
X0364Y04695D02*
D03*
X0371D02*
D03*
M02*
