G04*
G04 #@! TF.GenerationSoftware,Altium Limited,Altium Designer,20.1.12 (249)*
G04*
G04 Layer_Color=255*
%FSTAX24Y24*%
%MOIN*%
G70*
G04*
G04 #@! TF.SameCoordinates,A4519483-63F0-4905-8E8D-142606AE7E66*
G04*
G04*
G04 #@! TF.FilePolarity,Positive*
G04*
G01*
G75*
%ADD28R,0.0315X0.0433*%
%ADD32R,0.0433X0.0472*%
%ADD36R,0.0433X0.0315*%
%ADD64O,0.1378X0.1772*%
%ADD70O,0.0591X0.0787*%
%ADD71R,0.0591X0.0787*%
%ADD72R,0.0630X0.0630*%
%ADD73C,0.0630*%
%ADD74C,0.0598*%
%ADD75R,0.0598X0.0598*%
%ADD76C,0.2362*%
%ADD77C,0.0640*%
%ADD78C,0.0750*%
%ADD80R,0.0394X0.0945*%
%ADD81R,0.1299X0.0945*%
%ADD82R,0.0472X0.0433*%
D28*
X0297Y04715D02*
D03*
X0289D02*
D03*
X0371Y0476D02*
D03*
X0363D02*
D03*
X0363Y0483D02*
D03*
X0371D02*
D03*
X0297Y04645D02*
D03*
X0289D02*
D03*
X02615Y03125D02*
D03*
X02695D02*
D03*
X02615Y03195D02*
D03*
X02695D02*
D03*
D32*
X03135Y0424D02*
D03*
Y0417D02*
D03*
X0277Y0198D02*
D03*
Y0191D02*
D03*
D36*
X0264Y0218D02*
D03*
Y0226D02*
D03*
X029Y0227D02*
D03*
Y0219D02*
D03*
X0415Y0221D02*
D03*
Y0229D02*
D03*
X0371D02*
D03*
Y0221D02*
D03*
X0379Y0229D02*
D03*
Y0221D02*
D03*
X03865Y0229D02*
D03*
Y0221D02*
D03*
X04075D02*
D03*
Y0229D02*
D03*
X03995Y0221D02*
D03*
Y0229D02*
D03*
X03105Y0219D02*
D03*
Y0227D02*
D03*
X0304D02*
D03*
Y0219D02*
D03*
X02975Y0227D02*
D03*
Y0219D02*
D03*
D64*
X041362Y045467D02*
D03*
X036622D02*
D03*
D70*
X0366Y0202D02*
D03*
X0376D02*
D03*
X0386D02*
D03*
X0396D02*
D03*
X0406Y0192D02*
D03*
X0396D02*
D03*
X0386D02*
D03*
X0376D02*
D03*
X0366D02*
D03*
X02845D02*
D03*
X02945Y0192D02*
D03*
X03045D02*
D03*
X03145Y0192D02*
D03*
X03245Y0192D02*
D03*
X03145Y0202D02*
D03*
X03045D02*
D03*
X02945D02*
D03*
X02845Y0202D02*
D03*
D71*
X0406Y0202D02*
D03*
X03245Y0202D02*
D03*
D72*
X02655Y04555D02*
D03*
X03095Y04805D02*
D03*
D73*
X02655Y04455D02*
D03*
X02555D02*
D03*
X02455D02*
D03*
X02555Y04555D02*
D03*
X02455D02*
D03*
X03495Y04805D02*
D03*
X03395D02*
D03*
X03295D02*
D03*
X03195D02*
D03*
D74*
X0435Y0418D02*
D03*
Y0408D02*
D03*
X0435Y0398D02*
D03*
Y0388D02*
D03*
Y0378D02*
D03*
X0435Y0368D02*
D03*
Y0358D02*
D03*
X0435Y0348D02*
D03*
Y0338D02*
D03*
Y0328D02*
D03*
X0435Y0318D02*
D03*
X0435Y0308D02*
D03*
Y0298D02*
D03*
Y0288D02*
D03*
X0435Y0278D02*
D03*
Y0268D02*
D03*
X0435Y0258D02*
D03*
Y0248D02*
D03*
Y0238D02*
D03*
X0445Y0408D02*
D03*
Y0398D02*
D03*
Y0388D02*
D03*
Y0378D02*
D03*
Y0368D02*
D03*
Y0358D02*
D03*
Y0348D02*
D03*
Y0338D02*
D03*
Y0328D02*
D03*
Y0318D02*
D03*
Y0308D02*
D03*
Y0298D02*
D03*
Y0288D02*
D03*
Y0278D02*
D03*
Y0268D02*
D03*
Y0258D02*
D03*
Y0248D02*
D03*
Y0238D02*
D03*
Y0228D02*
D03*
Y0218D02*
D03*
Y0208D02*
D03*
X0435D02*
D03*
Y0218D02*
D03*
X0435Y0228D02*
D03*
X0243D02*
D03*
Y0218D02*
D03*
X0243Y0208D02*
D03*
X0253D02*
D03*
Y0218D02*
D03*
Y0228D02*
D03*
Y0238D02*
D03*
Y0248D02*
D03*
Y0258D02*
D03*
Y0268D02*
D03*
Y0278D02*
D03*
Y0288D02*
D03*
Y0298D02*
D03*
Y0308D02*
D03*
Y0318D02*
D03*
Y0328D02*
D03*
Y0338D02*
D03*
Y0348D02*
D03*
Y0358D02*
D03*
Y0368D02*
D03*
Y0378D02*
D03*
Y0388D02*
D03*
Y0398D02*
D03*
Y0408D02*
D03*
X0243Y0238D02*
D03*
Y0248D02*
D03*
Y0258D02*
D03*
Y0268D02*
D03*
Y0278D02*
D03*
Y0288D02*
D03*
Y0298D02*
D03*
Y0308D02*
D03*
Y0318D02*
D03*
Y0328D02*
D03*
Y0338D02*
D03*
Y0348D02*
D03*
Y0358D02*
D03*
Y0368D02*
D03*
Y0378D02*
D03*
Y0388D02*
D03*
Y0398D02*
D03*
Y0408D02*
D03*
X0243Y0418D02*
D03*
D75*
X0445D02*
D03*
X0253D02*
D03*
D76*
X0247Y0186D02*
D03*
X0444Y0478D02*
D03*
X02555D02*
D03*
X0441Y01865D02*
D03*
D77*
X0385Y043613D02*
D03*
X0385Y0444D02*
D03*
X039484D02*
D03*
X039484Y043613D02*
D03*
D78*
X030514Y027236D02*
D03*
X0291Y02865D02*
D03*
D80*
X028194Y042792D02*
D03*
X0291Y042792D02*
D03*
X030006Y042792D02*
D03*
D81*
X0291Y040508D02*
D03*
D82*
X0364Y04695D02*
D03*
X0371D02*
D03*
M02*
